%TF.GenerationSoftware,KiCad,Pcbnew,8.0.4*%
%TF.CreationDate,2025-01-10T13:20:36-08:00*%
%TF.ProjectId,X17-ESC-Controller,5831372d-4553-4432-9d43-6f6e74726f6c,rev?*%
%TF.SameCoordinates,Original*%
%TF.FileFunction,Paste,Top*%
%TF.FilePolarity,Positive*%
%FSLAX46Y46*%
G04 Gerber Fmt 4.6, Leading zero omitted, Abs format (unit mm)*
G04 Created by KiCad (PCBNEW 8.0.4) date 2025-01-10 13:20:36*
%MOMM*%
%LPD*%
G01*
G04 APERTURE LIST*
G04 Aperture macros list*
%AMRoundRect*
0 Rectangle with rounded corners*
0 $1 Rounding radius*
0 $2 $3 $4 $5 $6 $7 $8 $9 X,Y pos of 4 corners*
0 Add a 4 corners polygon primitive as box body*
4,1,4,$2,$3,$4,$5,$6,$7,$8,$9,$2,$3,0*
0 Add four circle primitives for the rounded corners*
1,1,$1+$1,$2,$3*
1,1,$1+$1,$4,$5*
1,1,$1+$1,$6,$7*
1,1,$1+$1,$8,$9*
0 Add four rect primitives between the rounded corners*
20,1,$1+$1,$2,$3,$4,$5,0*
20,1,$1+$1,$4,$5,$6,$7,0*
20,1,$1+$1,$6,$7,$8,$9,0*
20,1,$1+$1,$8,$9,$2,$3,0*%
G04 Aperture macros list end*
%ADD10RoundRect,0.250000X0.325000X0.450000X-0.325000X0.450000X-0.325000X-0.450000X0.325000X-0.450000X0*%
%ADD11RoundRect,0.237500X-0.237500X0.300000X-0.237500X-0.300000X0.237500X-0.300000X0.237500X0.300000X0*%
%ADD12RoundRect,0.237500X0.300000X0.237500X-0.300000X0.237500X-0.300000X-0.237500X0.300000X-0.237500X0*%
%ADD13R,0.609600X2.209800*%
%ADD14RoundRect,0.237500X0.237500X-0.250000X0.237500X0.250000X-0.237500X0.250000X-0.237500X-0.250000X0*%
%ADD15RoundRect,0.075000X0.662500X0.075000X-0.662500X0.075000X-0.662500X-0.075000X0.662500X-0.075000X0*%
%ADD16RoundRect,0.075000X0.075000X0.662500X-0.075000X0.662500X-0.075000X-0.662500X0.075000X-0.662500X0*%
%ADD17RoundRect,0.250000X0.450000X-0.325000X0.450000X0.325000X-0.450000X0.325000X-0.450000X-0.325000X0*%
%ADD18RoundRect,0.237500X-0.237500X0.250000X-0.237500X-0.250000X0.237500X-0.250000X0.237500X0.250000X0*%
%ADD19R,0.990600X2.108200*%
%ADD20RoundRect,0.237500X-0.300000X-0.237500X0.300000X-0.237500X0.300000X0.237500X-0.300000X0.237500X0*%
%ADD21RoundRect,0.375000X-0.625000X-0.375000X0.625000X-0.375000X0.625000X0.375000X-0.625000X0.375000X0*%
%ADD22RoundRect,0.500000X-0.500000X-1.400000X0.500000X-1.400000X0.500000X1.400000X-0.500000X1.400000X0*%
%ADD23RoundRect,0.237500X0.237500X-0.300000X0.237500X0.300000X-0.237500X0.300000X-0.237500X-0.300000X0*%
%ADD24RoundRect,0.237500X-0.250000X-0.237500X0.250000X-0.237500X0.250000X0.237500X-0.250000X0.237500X0*%
G04 APERTURE END LIST*
D10*
%TO.C,D1*%
X147725000Y-97600000D03*
X145675000Y-97600000D03*
%TD*%
D11*
%TO.C,C11*%
X148200000Y-89737500D03*
X148200000Y-91462500D03*
%TD*%
D12*
%TO.C,C12*%
X132400000Y-92800000D03*
X130675000Y-92800000D03*
%TD*%
D13*
%TO.C,U5*%
X149795000Y-95316200D03*
X151065000Y-95316200D03*
X152335000Y-95316200D03*
X153605000Y-95316200D03*
X153605000Y-90083800D03*
X152335000Y-90083800D03*
X151065000Y-90083800D03*
X149795000Y-90083800D03*
%TD*%
D14*
%TO.C,R7*%
X146600000Y-91525000D03*
X146600000Y-89700000D03*
%TD*%
D15*
%TO.C,U4*%
X156037500Y-106700000D03*
X156037500Y-106200000D03*
X156037500Y-105700000D03*
X156037500Y-105200000D03*
X156037500Y-104700000D03*
X156037500Y-104200000D03*
X156037500Y-103700000D03*
X156037500Y-103200000D03*
X156037500Y-102700000D03*
X156037500Y-102200000D03*
X156037500Y-101700000D03*
X156037500Y-101200000D03*
D16*
X154625000Y-99787500D03*
X154125000Y-99787500D03*
X153625000Y-99787500D03*
X153125000Y-99787500D03*
X152625000Y-99787500D03*
X152125000Y-99787500D03*
X151625000Y-99787500D03*
X151125000Y-99787500D03*
X150625000Y-99787500D03*
X150125000Y-99787500D03*
X149625000Y-99787500D03*
X149125000Y-99787500D03*
D15*
X147712500Y-101200000D03*
X147712500Y-101700000D03*
X147712500Y-102200000D03*
X147712500Y-102700000D03*
X147712500Y-103200000D03*
X147712500Y-103700000D03*
X147712500Y-104200000D03*
X147712500Y-104700000D03*
X147712500Y-105200000D03*
X147712500Y-105700000D03*
X147712500Y-106200000D03*
X147712500Y-106700000D03*
D16*
X149125000Y-108112500D03*
X149625000Y-108112500D03*
X150125000Y-108112500D03*
X150625000Y-108112500D03*
X151125000Y-108112500D03*
X151625000Y-108112500D03*
X152125000Y-108112500D03*
X152625000Y-108112500D03*
X153125000Y-108112500D03*
X153625000Y-108112500D03*
X154125000Y-108112500D03*
X154625000Y-108112500D03*
%TD*%
D17*
%TO.C,D2*%
X126600000Y-94825000D03*
X126600000Y-92775000D03*
%TD*%
D18*
%TO.C,R6*%
X145800000Y-99487500D03*
X145800000Y-101312500D03*
%TD*%
D19*
%TO.C,SW1*%
X160137500Y-99439450D03*
X160137500Y-104138450D03*
%TD*%
D20*
%TO.C,C3*%
X159612500Y-107700000D03*
X161337500Y-107700000D03*
%TD*%
D14*
%TO.C,R2*%
X126800000Y-91112500D03*
X126800000Y-89287500D03*
%TD*%
D21*
%TO.C,U2*%
X132450000Y-86100000D03*
X132450000Y-88400000D03*
D22*
X138750000Y-88400000D03*
D21*
X132450000Y-90700000D03*
%TD*%
D10*
%TO.C,D3*%
X148100000Y-93500000D03*
X146050000Y-93500000D03*
%TD*%
D23*
%TO.C,C13*%
X141000000Y-88362500D03*
X141000000Y-86637500D03*
%TD*%
D24*
%TO.C,R3*%
X150575000Y-87900000D03*
X152400000Y-87900000D03*
%TD*%
D18*
%TO.C,R5*%
X158037500Y-106400000D03*
X158037500Y-108225000D03*
%TD*%
M02*
