%TF.GenerationSoftware,KiCad,Pcbnew,8.0.4*%
%TF.CreationDate,2025-01-10T13:20:37-08:00*%
%TF.ProjectId,X17-ESC-Controller,5831372d-4553-4432-9d43-6f6e74726f6c,rev?*%
%TF.SameCoordinates,Original*%
%TF.FileFunction,Soldermask,Bot*%
%TF.FilePolarity,Negative*%
%FSLAX46Y46*%
G04 Gerber Fmt 4.6, Leading zero omitted, Abs format (unit mm)*
G04 Created by KiCad (PCBNEW 8.0.4) date 2025-01-10 13:20:37*
%MOMM*%
%LPD*%
G01*
G04 APERTURE LIST*
G04 Aperture macros list*
%AMRoundRect*
0 Rectangle with rounded corners*
0 $1 Rounding radius*
0 $2 $3 $4 $5 $6 $7 $8 $9 X,Y pos of 4 corners*
0 Add a 4 corners polygon primitive as box body*
4,1,4,$2,$3,$4,$5,$6,$7,$8,$9,$2,$3,0*
0 Add four circle primitives for the rounded corners*
1,1,$1+$1,$2,$3*
1,1,$1+$1,$4,$5*
1,1,$1+$1,$6,$7*
1,1,$1+$1,$8,$9*
0 Add four rect primitives between the rounded corners*
20,1,$1+$1,$2,$3,$4,$5,0*
20,1,$1+$1,$4,$5,$6,$7,0*
20,1,$1+$1,$6,$7,$8,$9,0*
20,1,$1+$1,$8,$9,$2,$3,0*%
G04 Aperture macros list end*
%ADD10R,1.700000X1.700000*%
%ADD11O,1.700000X1.700000*%
%ADD12RoundRect,0.250000X0.600000X-0.600000X0.600000X0.600000X-0.600000X0.600000X-0.600000X-0.600000X0*%
%ADD13C,1.700000*%
%ADD14C,1.270000*%
%ADD15RoundRect,0.237500X0.250000X0.237500X-0.250000X0.237500X-0.250000X-0.237500X0.250000X-0.237500X0*%
%ADD16RoundRect,0.112500X0.637500X-0.112500X0.637500X0.112500X-0.637500X0.112500X-0.637500X-0.112500X0*%
%ADD17RoundRect,0.237500X-0.237500X0.300000X-0.237500X-0.300000X0.237500X-0.300000X0.237500X0.300000X0*%
%ADD18RoundRect,0.237500X0.237500X-0.300000X0.237500X0.300000X-0.237500X0.300000X-0.237500X-0.300000X0*%
%ADD19RoundRect,0.237500X-0.300000X-0.237500X0.300000X-0.237500X0.300000X0.237500X-0.300000X0.237500X0*%
%ADD20RoundRect,0.237500X0.300000X0.237500X-0.300000X0.237500X-0.300000X-0.237500X0.300000X-0.237500X0*%
%ADD21RoundRect,0.237500X-0.250000X-0.237500X0.250000X-0.237500X0.250000X0.237500X-0.250000X0.237500X0*%
G04 APERTURE END LIST*
D10*
%TO.C,J9*%
X160325000Y-112700000D03*
D11*
X162865000Y-112700000D03*
%TD*%
D10*
%TO.C,J5*%
X156500000Y-112700000D03*
D11*
X153960000Y-112700000D03*
X151420000Y-112700000D03*
X148880000Y-112700000D03*
%TD*%
D10*
%TO.C,J10*%
X127400000Y-100900000D03*
D11*
X127400000Y-98360000D03*
%TD*%
D12*
%TO.C,J4*%
X130840000Y-111240000D03*
D13*
X130840000Y-108700000D03*
X133380000Y-111240000D03*
X133380000Y-108700000D03*
X135920000Y-111240000D03*
X135920000Y-108700000D03*
X138460000Y-111240000D03*
X138460000Y-108700000D03*
X141000000Y-111240000D03*
X141000000Y-108700000D03*
%TD*%
D10*
%TO.C,J11*%
X172700000Y-95775000D03*
D11*
X172700000Y-93235000D03*
%TD*%
D14*
%TO.C,J1*%
X138429100Y-94700000D03*
X136429099Y-94700000D03*
X138429100Y-96699999D03*
X136429099Y-96699999D03*
X138429100Y-98700000D03*
X136429099Y-98700000D03*
X138429100Y-100700001D03*
X136429099Y-100700001D03*
X138429100Y-102699999D03*
X136429099Y-102699999D03*
X165900001Y-94700000D03*
X163900000Y-94700000D03*
X165900001Y-96699999D03*
X163900000Y-96699999D03*
X165900001Y-98700000D03*
X163900000Y-98700000D03*
X165900001Y-100700001D03*
X163900000Y-100700001D03*
X165900001Y-102699999D03*
X163900000Y-102699999D03*
%TD*%
D10*
%TO.C,J3*%
X172700000Y-99525000D03*
D11*
X172700000Y-102065000D03*
%TD*%
D10*
%TO.C,J6*%
X142800000Y-95500000D03*
D11*
X142800000Y-98040000D03*
X142800000Y-100580000D03*
X142800000Y-103120000D03*
%TD*%
D10*
%TO.C,J8*%
X150500000Y-83900000D03*
D11*
X153040000Y-83900000D03*
%TD*%
D10*
%TO.C,J7*%
X157300000Y-91000000D03*
D11*
X157300000Y-93540000D03*
X157300000Y-96080000D03*
%TD*%
D15*
%TO.C,R1*%
X151625000Y-88100000D03*
X149800000Y-88100000D03*
%TD*%
D16*
%TO.C,U3*%
X158607500Y-107650000D03*
X158607500Y-106350000D03*
X161267500Y-107000000D03*
%TD*%
D17*
%TO.C,C1*%
X157837500Y-102875000D03*
X157837500Y-104600000D03*
%TD*%
D18*
%TO.C,C2*%
X147637500Y-98300000D03*
X147637500Y-96575000D03*
%TD*%
D19*
%TO.C,C5*%
X158775000Y-109100000D03*
X160500000Y-109100000D03*
%TD*%
D17*
%TO.C,C9*%
X145837500Y-106337500D03*
X145837500Y-108062500D03*
%TD*%
D20*
%TO.C,C8*%
X154737500Y-108900000D03*
X153012500Y-108900000D03*
%TD*%
D17*
%TO.C,C6*%
X156237500Y-102875000D03*
X156237500Y-104600000D03*
%TD*%
%TO.C,C7*%
X156337500Y-107200000D03*
X156337500Y-108925000D03*
%TD*%
%TO.C,C4*%
X147437500Y-106337500D03*
X147437500Y-108062500D03*
%TD*%
D21*
%TO.C,R4*%
X147775000Y-86400000D03*
X149600000Y-86400000D03*
%TD*%
D18*
%TO.C,C10*%
X149237500Y-98300000D03*
X149237500Y-96575000D03*
%TD*%
M02*
