%TF.GenerationSoftware,KiCad,Pcbnew,8.0.4*%
%TF.CreationDate,2025-01-10T13:20:48-08:00*%
%TF.ProjectId,X17-ESC-Controller,5831372d-4553-4432-9d43-6f6e74726f6c,rev?*%
%TF.SameCoordinates,Original*%
%TF.FileFunction,Drillmap*%
%TF.FilePolarity,Positive*%
%FSLAX45Y45*%
G04 Gerber Fmt 4.5, Leading zero omitted, Abs format (unit mm)*
G04 Created by KiCad (PCBNEW 8.0.4) date 2025-01-10 13:20:48*
%MOMM*%
%LPD*%
G01*
G04 APERTURE LIST*
%ADD10C,0.050000*%
%ADD11C,0.200000*%
G04 APERTURE END LIST*
D10*
X17500000Y-11530000D02*
X17500000Y-8200000D01*
X17500000Y-8200000D02*
X12500000Y-8200000D01*
X12490000Y-11530000D02*
X17500000Y-11530000D01*
X12500000Y-8200000D02*
X12490000Y-11530000D01*
D11*
X12748277Y-11843984D02*
X12748277Y-11643984D01*
X12748277Y-11643984D02*
X12795896Y-11643984D01*
X12795896Y-11643984D02*
X12824467Y-11653508D01*
X12824467Y-11653508D02*
X12843515Y-11672555D01*
X12843515Y-11672555D02*
X12853039Y-11691603D01*
X12853039Y-11691603D02*
X12862562Y-11729698D01*
X12862562Y-11729698D02*
X12862562Y-11758269D01*
X12862562Y-11758269D02*
X12853039Y-11796365D01*
X12853039Y-11796365D02*
X12843515Y-11815412D01*
X12843515Y-11815412D02*
X12824467Y-11834460D01*
X12824467Y-11834460D02*
X12795896Y-11843984D01*
X12795896Y-11843984D02*
X12748277Y-11843984D01*
X12948277Y-11843984D02*
X12948277Y-11710650D01*
X12948277Y-11748746D02*
X12957801Y-11729698D01*
X12957801Y-11729698D02*
X12967324Y-11720174D01*
X12967324Y-11720174D02*
X12986372Y-11710650D01*
X12986372Y-11710650D02*
X13005420Y-11710650D01*
X13072086Y-11843984D02*
X13072086Y-11710650D01*
X13072086Y-11643984D02*
X13062562Y-11653508D01*
X13062562Y-11653508D02*
X13072086Y-11663031D01*
X13072086Y-11663031D02*
X13081610Y-11653508D01*
X13081610Y-11653508D02*
X13072086Y-11643984D01*
X13072086Y-11643984D02*
X13072086Y-11663031D01*
X13195896Y-11843984D02*
X13176848Y-11834460D01*
X13176848Y-11834460D02*
X13167324Y-11815412D01*
X13167324Y-11815412D02*
X13167324Y-11643984D01*
X13300658Y-11843984D02*
X13281610Y-11834460D01*
X13281610Y-11834460D02*
X13272086Y-11815412D01*
X13272086Y-11815412D02*
X13272086Y-11643984D01*
X13529229Y-11843984D02*
X13529229Y-11643984D01*
X13529229Y-11643984D02*
X13595896Y-11786841D01*
X13595896Y-11786841D02*
X13662562Y-11643984D01*
X13662562Y-11643984D02*
X13662562Y-11843984D01*
X13843515Y-11843984D02*
X13843515Y-11739222D01*
X13843515Y-11739222D02*
X13833991Y-11720174D01*
X13833991Y-11720174D02*
X13814943Y-11710650D01*
X13814943Y-11710650D02*
X13776848Y-11710650D01*
X13776848Y-11710650D02*
X13757801Y-11720174D01*
X13843515Y-11834460D02*
X13824467Y-11843984D01*
X13824467Y-11843984D02*
X13776848Y-11843984D01*
X13776848Y-11843984D02*
X13757801Y-11834460D01*
X13757801Y-11834460D02*
X13748277Y-11815412D01*
X13748277Y-11815412D02*
X13748277Y-11796365D01*
X13748277Y-11796365D02*
X13757801Y-11777317D01*
X13757801Y-11777317D02*
X13776848Y-11767793D01*
X13776848Y-11767793D02*
X13824467Y-11767793D01*
X13824467Y-11767793D02*
X13843515Y-11758269D01*
X13938753Y-11710650D02*
X13938753Y-11910650D01*
X13938753Y-11720174D02*
X13957801Y-11710650D01*
X13957801Y-11710650D02*
X13995896Y-11710650D01*
X13995896Y-11710650D02*
X14014943Y-11720174D01*
X14014943Y-11720174D02*
X14024467Y-11729698D01*
X14024467Y-11729698D02*
X14033991Y-11748746D01*
X14033991Y-11748746D02*
X14033991Y-11805888D01*
X14033991Y-11805888D02*
X14024467Y-11824936D01*
X14024467Y-11824936D02*
X14014943Y-11834460D01*
X14014943Y-11834460D02*
X13995896Y-11843984D01*
X13995896Y-11843984D02*
X13957801Y-11843984D01*
X13957801Y-11843984D02*
X13938753Y-11834460D01*
X14119705Y-11824936D02*
X14129229Y-11834460D01*
X14129229Y-11834460D02*
X14119705Y-11843984D01*
X14119705Y-11843984D02*
X14110182Y-11834460D01*
X14110182Y-11834460D02*
X14119705Y-11824936D01*
X14119705Y-11824936D02*
X14119705Y-11843984D01*
X14119705Y-11720174D02*
X14129229Y-11729698D01*
X14129229Y-11729698D02*
X14119705Y-11739222D01*
X14119705Y-11739222D02*
X14110182Y-11729698D01*
X14110182Y-11729698D02*
X14119705Y-11720174D01*
X14119705Y-11720174D02*
X14119705Y-11739222D01*
M02*
