M48
; DRILL file {KiCad 8.0.4} date 2025-01-10T13:20:47-0800
; FORMAT={-:-/ absolute / metric / decimal}
; #@! TF.CreationDate,2025-01-10T13:20:47-08:00
; #@! TF.GenerationSoftware,Kicad,Pcbnew,8.0.4
; #@! TF.FileFunction,Plated,1,2,PTH
FMAT,2
METRIC
; #@! TA.AperFunction,Plated,PTH,ViaDrill
T1C0.300
; #@! TA.AperFunction,Plated,PTH,ViaDrill
T2C0.533
; #@! TA.AperFunction,Plated,PTH,ComponentDrill
T3C0.762
; #@! TA.AperFunction,Plated,PTH,ComponentDrill
T4C1.000
%
G90
G05
T1
X126.6Y-107.4
X126.6Y-112.6
X128.4Y-112.8
X128.7Y-107.4
X130.5Y-95.9
X130.6Y-98.4
X132.8Y-100.6
X133.3Y-95.9
X133.4Y-98.5
X144.0Y-110.2
X144.5Y-112.4
X146.3Y-112.5
X146.6Y-110.4
X148.985Y-103.065
X149.3Y-103.8
X150.6Y-85.6
X150.6Y-87.0
X151.0Y-106.4
X151.1Y-101.2
X151.9Y-101.5
X152.0Y-106.7
X152.4Y-86.4
X152.6Y-106.417
X153.7Y-104.3
X154.6Y-87.9
X154.6Y-104.8
X155.8Y-83.6
X156.9Y-88.2
X158.6Y-83.6
X158.7Y-101.2
X159.0Y-102.3
X159.8Y-101.3
X160.0Y-93.1
X160.1Y-88.1
X160.3Y-90.8
X161.6Y-97.5
X161.9Y-103.2
X162.1Y-98.6
X162.7Y-91.0
X163.0Y-83.5
X163.0Y-85.6
X163.1Y-105.0
X163.3Y-106.9
X165.7Y-113.6
X166.8Y-83.5
X167.1Y-85.6
X167.6Y-108.8
X167.7Y-87.8
X168.0Y-90.1
X168.9Y-104.0
X169.0Y-106.7
X169.8Y-92.15
X170.3Y-83.5
X170.3Y-108.8
X170.4Y-85.7
X170.6Y-87.7
X170.6Y-90.0
X172.1Y-104.6
X172.2Y-106.9
X172.9Y-83.5
X172.9Y-87.5
X172.9Y-89.9
X173.0Y-85.4
T2
X130.7Y-94.0
X132.4Y-83.9
X134.4Y-90.8
X141.0Y-85.1
X141.0Y-89.7
X143.615Y-89.515
X145.1Y-91.0
X148.1Y-95.1
X149.3Y-106.3
X149.527Y-101.749
X153.0Y-103.4
X153.969Y-105.536
X158.9Y-109.749
X162.9Y-109.1
X168.1Y-111.8
T3
X136.429Y-94.7
X136.429Y-96.7
X136.429Y-98.7
X136.429Y-100.7
X136.429Y-102.7
X138.429Y-94.7
X138.429Y-96.7
X138.429Y-98.7
X138.429Y-100.7
X138.429Y-102.7
X163.9Y-94.7
X163.9Y-96.7
X163.9Y-98.7
X163.9Y-100.7
X163.9Y-102.7
X165.9Y-94.7
X165.9Y-96.7
X165.9Y-98.7
X165.9Y-100.7
X165.9Y-102.7
T4
X127.4Y-98.36
X127.4Y-100.9
X130.84Y-108.7
X130.84Y-111.24
X133.38Y-108.7
X133.38Y-111.24
X135.92Y-108.7
X135.92Y-111.24
X138.46Y-108.7
X138.46Y-111.24
X141.0Y-108.7
X141.0Y-111.24
X142.8Y-95.5
X142.8Y-98.04
X142.8Y-100.58
X142.8Y-103.12
X148.88Y-112.7
X150.5Y-83.9
X151.42Y-112.7
X153.04Y-83.9
X153.96Y-112.7
X156.5Y-112.7
X157.3Y-91.0
X157.3Y-93.54
X157.3Y-96.08
X160.325Y-112.7
X162.865Y-112.7
X172.7Y-93.235
X172.7Y-95.775
X172.7Y-99.525
X172.7Y-102.065
M30
