%TF.GenerationSoftware,KiCad,Pcbnew,8.0.4*%
%TF.CreationDate,2025-01-10T13:20:37-08:00*%
%TF.ProjectId,X17-ESC-Controller,5831372d-4553-4432-9d43-6f6e74726f6c,rev?*%
%TF.SameCoordinates,Original*%
%TF.FileFunction,Legend,Top*%
%TF.FilePolarity,Positive*%
%FSLAX46Y46*%
G04 Gerber Fmt 4.6, Leading zero omitted, Abs format (unit mm)*
G04 Created by KiCad (PCBNEW 8.0.4) date 2025-01-10 13:20:37*
%MOMM*%
%LPD*%
G01*
G04 APERTURE LIST*
G04 Aperture macros list*
%AMRoundRect*
0 Rectangle with rounded corners*
0 $1 Rounding radius*
0 $2 $3 $4 $5 $6 $7 $8 $9 X,Y pos of 4 corners*
0 Add a 4 corners polygon primitive as box body*
4,1,4,$2,$3,$4,$5,$6,$7,$8,$9,$2,$3,0*
0 Add four circle primitives for the rounded corners*
1,1,$1+$1,$2,$3*
1,1,$1+$1,$4,$5*
1,1,$1+$1,$6,$7*
1,1,$1+$1,$8,$9*
0 Add four rect primitives between the rounded corners*
20,1,$1+$1,$2,$3,$4,$5,0*
20,1,$1+$1,$4,$5,$6,$7,0*
20,1,$1+$1,$6,$7,$8,$9,0*
20,1,$1+$1,$8,$9,$2,$3,0*%
G04 Aperture macros list end*
%ADD10C,0.101600*%
%ADD11C,0.150000*%
%ADD12C,0.200000*%
%ADD13C,0.120000*%
%ADD14C,0.203200*%
%ADD15C,0.152400*%
%ADD16C,0.508000*%
%ADD17R,1.700000X1.700000*%
%ADD18O,1.700000X1.700000*%
%ADD19RoundRect,0.250000X0.325000X0.450000X-0.325000X0.450000X-0.325000X-0.450000X0.325000X-0.450000X0*%
%ADD20RoundRect,0.237500X-0.237500X0.300000X-0.237500X-0.300000X0.237500X-0.300000X0.237500X0.300000X0*%
%ADD21RoundRect,0.250000X0.600000X-0.600000X0.600000X0.600000X-0.600000X0.600000X-0.600000X-0.600000X0*%
%ADD22C,1.700000*%
%ADD23RoundRect,0.237500X0.300000X0.237500X-0.300000X0.237500X-0.300000X-0.237500X0.300000X-0.237500X0*%
%ADD24RoundRect,0.102000X-0.304800X-1.104900X0.304800X-1.104900X0.304800X1.104900X-0.304800X1.104900X0*%
%ADD25RoundRect,0.237500X0.237500X-0.250000X0.237500X0.250000X-0.237500X0.250000X-0.237500X-0.250000X0*%
%ADD26RoundRect,0.075000X0.662500X0.075000X-0.662500X0.075000X-0.662500X-0.075000X0.662500X-0.075000X0*%
%ADD27RoundRect,0.075000X0.075000X0.662500X-0.075000X0.662500X-0.075000X-0.662500X0.075000X-0.662500X0*%
%ADD28C,4.000000*%
%ADD29RoundRect,0.250000X0.450000X-0.325000X0.450000X0.325000X-0.450000X0.325000X-0.450000X-0.325000X0*%
%ADD30RoundRect,0.237500X-0.237500X0.250000X-0.237500X-0.250000X0.237500X-0.250000X0.237500X0.250000X0*%
%ADD31C,1.270000*%
%ADD32R,0.990600X2.108200*%
%ADD33RoundRect,0.237500X-0.300000X-0.237500X0.300000X-0.237500X0.300000X0.237500X-0.300000X0.237500X0*%
%ADD34RoundRect,0.375000X-0.625000X-0.375000X0.625000X-0.375000X0.625000X0.375000X-0.625000X0.375000X0*%
%ADD35RoundRect,0.500000X-0.500000X-1.400000X0.500000X-1.400000X0.500000X1.400000X-0.500000X1.400000X0*%
%ADD36RoundRect,0.237500X0.237500X-0.300000X0.237500X0.300000X-0.237500X0.300000X-0.237500X-0.300000X0*%
%ADD37RoundRect,0.237500X-0.250000X-0.237500X0.250000X-0.237500X0.250000X0.237500X-0.250000X0.237500X0*%
G04 APERTURE END LIST*
D10*
X156897470Y-83324144D02*
X157507070Y-84238544D01*
X157507070Y-83324144D02*
X156897470Y-84238544D01*
X158334384Y-84238544D02*
X157811870Y-84238544D01*
X158073127Y-84238544D02*
X158073127Y-83324144D01*
X158073127Y-83324144D02*
X157986041Y-83454773D01*
X157986041Y-83454773D02*
X157898956Y-83541859D01*
X157898956Y-83541859D02*
X157811870Y-83585402D01*
X158639184Y-83324144D02*
X159248784Y-83324144D01*
X159248784Y-83324144D02*
X158856898Y-84238544D01*
X160293813Y-83759573D02*
X160598613Y-83759573D01*
X160729241Y-84238544D02*
X160293813Y-84238544D01*
X160293813Y-84238544D02*
X160293813Y-83324144D01*
X160293813Y-83324144D02*
X160729241Y-83324144D01*
X161077584Y-84195002D02*
X161208213Y-84238544D01*
X161208213Y-84238544D02*
X161425927Y-84238544D01*
X161425927Y-84238544D02*
X161513013Y-84195002D01*
X161513013Y-84195002D02*
X161556555Y-84151459D01*
X161556555Y-84151459D02*
X161600098Y-84064373D01*
X161600098Y-84064373D02*
X161600098Y-83977287D01*
X161600098Y-83977287D02*
X161556555Y-83890202D01*
X161556555Y-83890202D02*
X161513013Y-83846659D01*
X161513013Y-83846659D02*
X161425927Y-83803116D01*
X161425927Y-83803116D02*
X161251755Y-83759573D01*
X161251755Y-83759573D02*
X161164670Y-83716030D01*
X161164670Y-83716030D02*
X161121127Y-83672487D01*
X161121127Y-83672487D02*
X161077584Y-83585402D01*
X161077584Y-83585402D02*
X161077584Y-83498316D01*
X161077584Y-83498316D02*
X161121127Y-83411230D01*
X161121127Y-83411230D02*
X161164670Y-83367687D01*
X161164670Y-83367687D02*
X161251755Y-83324144D01*
X161251755Y-83324144D02*
X161469470Y-83324144D01*
X161469470Y-83324144D02*
X161600098Y-83367687D01*
X162514498Y-84151459D02*
X162470955Y-84195002D01*
X162470955Y-84195002D02*
X162340327Y-84238544D01*
X162340327Y-84238544D02*
X162253241Y-84238544D01*
X162253241Y-84238544D02*
X162122612Y-84195002D01*
X162122612Y-84195002D02*
X162035527Y-84107916D01*
X162035527Y-84107916D02*
X161991984Y-84020830D01*
X161991984Y-84020830D02*
X161948441Y-83846659D01*
X161948441Y-83846659D02*
X161948441Y-83716030D01*
X161948441Y-83716030D02*
X161991984Y-83541859D01*
X161991984Y-83541859D02*
X162035527Y-83454773D01*
X162035527Y-83454773D02*
X162122612Y-83367687D01*
X162122612Y-83367687D02*
X162253241Y-83324144D01*
X162253241Y-83324144D02*
X162340327Y-83324144D01*
X162340327Y-83324144D02*
X162470955Y-83367687D01*
X162470955Y-83367687D02*
X162514498Y-83411230D01*
X164125584Y-84151459D02*
X164082041Y-84195002D01*
X164082041Y-84195002D02*
X163951413Y-84238544D01*
X163951413Y-84238544D02*
X163864327Y-84238544D01*
X163864327Y-84238544D02*
X163733698Y-84195002D01*
X163733698Y-84195002D02*
X163646613Y-84107916D01*
X163646613Y-84107916D02*
X163603070Y-84020830D01*
X163603070Y-84020830D02*
X163559527Y-83846659D01*
X163559527Y-83846659D02*
X163559527Y-83716030D01*
X163559527Y-83716030D02*
X163603070Y-83541859D01*
X163603070Y-83541859D02*
X163646613Y-83454773D01*
X163646613Y-83454773D02*
X163733698Y-83367687D01*
X163733698Y-83367687D02*
X163864327Y-83324144D01*
X163864327Y-83324144D02*
X163951413Y-83324144D01*
X163951413Y-83324144D02*
X164082041Y-83367687D01*
X164082041Y-83367687D02*
X164125584Y-83411230D01*
X164648098Y-84238544D02*
X164561013Y-84195002D01*
X164561013Y-84195002D02*
X164517470Y-84151459D01*
X164517470Y-84151459D02*
X164473927Y-84064373D01*
X164473927Y-84064373D02*
X164473927Y-83803116D01*
X164473927Y-83803116D02*
X164517470Y-83716030D01*
X164517470Y-83716030D02*
X164561013Y-83672487D01*
X164561013Y-83672487D02*
X164648098Y-83628944D01*
X164648098Y-83628944D02*
X164778727Y-83628944D01*
X164778727Y-83628944D02*
X164865813Y-83672487D01*
X164865813Y-83672487D02*
X164909356Y-83716030D01*
X164909356Y-83716030D02*
X164952898Y-83803116D01*
X164952898Y-83803116D02*
X164952898Y-84064373D01*
X164952898Y-84064373D02*
X164909356Y-84151459D01*
X164909356Y-84151459D02*
X164865813Y-84195002D01*
X164865813Y-84195002D02*
X164778727Y-84238544D01*
X164778727Y-84238544D02*
X164648098Y-84238544D01*
X165344784Y-83628944D02*
X165344784Y-84238544D01*
X165344784Y-83716030D02*
X165388327Y-83672487D01*
X165388327Y-83672487D02*
X165475412Y-83628944D01*
X165475412Y-83628944D02*
X165606041Y-83628944D01*
X165606041Y-83628944D02*
X165693127Y-83672487D01*
X165693127Y-83672487D02*
X165736670Y-83759573D01*
X165736670Y-83759573D02*
X165736670Y-84238544D01*
X166041469Y-83628944D02*
X166389812Y-83628944D01*
X166172098Y-83324144D02*
X166172098Y-84107916D01*
X166172098Y-84107916D02*
X166215641Y-84195002D01*
X166215641Y-84195002D02*
X166302726Y-84238544D01*
X166302726Y-84238544D02*
X166389812Y-84238544D01*
X166694612Y-84238544D02*
X166694612Y-83628944D01*
X166694612Y-83803116D02*
X166738155Y-83716030D01*
X166738155Y-83716030D02*
X166781698Y-83672487D01*
X166781698Y-83672487D02*
X166868783Y-83628944D01*
X166868783Y-83628944D02*
X166955869Y-83628944D01*
X167391297Y-84238544D02*
X167304212Y-84195002D01*
X167304212Y-84195002D02*
X167260669Y-84151459D01*
X167260669Y-84151459D02*
X167217126Y-84064373D01*
X167217126Y-84064373D02*
X167217126Y-83803116D01*
X167217126Y-83803116D02*
X167260669Y-83716030D01*
X167260669Y-83716030D02*
X167304212Y-83672487D01*
X167304212Y-83672487D02*
X167391297Y-83628944D01*
X167391297Y-83628944D02*
X167521926Y-83628944D01*
X167521926Y-83628944D02*
X167609012Y-83672487D01*
X167609012Y-83672487D02*
X167652555Y-83716030D01*
X167652555Y-83716030D02*
X167696097Y-83803116D01*
X167696097Y-83803116D02*
X167696097Y-84064373D01*
X167696097Y-84064373D02*
X167652555Y-84151459D01*
X167652555Y-84151459D02*
X167609012Y-84195002D01*
X167609012Y-84195002D02*
X167521926Y-84238544D01*
X167521926Y-84238544D02*
X167391297Y-84238544D01*
X168218611Y-84238544D02*
X168131526Y-84195002D01*
X168131526Y-84195002D02*
X168087983Y-84107916D01*
X168087983Y-84107916D02*
X168087983Y-83324144D01*
X168697582Y-84238544D02*
X168610497Y-84195002D01*
X168610497Y-84195002D02*
X168566954Y-84107916D01*
X168566954Y-84107916D02*
X168566954Y-83324144D01*
X169394268Y-84195002D02*
X169307182Y-84238544D01*
X169307182Y-84238544D02*
X169133011Y-84238544D01*
X169133011Y-84238544D02*
X169045925Y-84195002D01*
X169045925Y-84195002D02*
X169002382Y-84107916D01*
X169002382Y-84107916D02*
X169002382Y-83759573D01*
X169002382Y-83759573D02*
X169045925Y-83672487D01*
X169045925Y-83672487D02*
X169133011Y-83628944D01*
X169133011Y-83628944D02*
X169307182Y-83628944D01*
X169307182Y-83628944D02*
X169394268Y-83672487D01*
X169394268Y-83672487D02*
X169437811Y-83759573D01*
X169437811Y-83759573D02*
X169437811Y-83846659D01*
X169437811Y-83846659D02*
X169002382Y-83933744D01*
X169829696Y-84238544D02*
X169829696Y-83628944D01*
X169829696Y-83803116D02*
X169873239Y-83716030D01*
X169873239Y-83716030D02*
X169916782Y-83672487D01*
X169916782Y-83672487D02*
X170003867Y-83628944D01*
X170003867Y-83628944D02*
X170090953Y-83628944D01*
X157507070Y-85710677D02*
X157202270Y-85275249D01*
X156984556Y-85710677D02*
X156984556Y-84796277D01*
X156984556Y-84796277D02*
X157332899Y-84796277D01*
X157332899Y-84796277D02*
X157419984Y-84839820D01*
X157419984Y-84839820D02*
X157463527Y-84883363D01*
X157463527Y-84883363D02*
X157507070Y-84970449D01*
X157507070Y-84970449D02*
X157507070Y-85101077D01*
X157507070Y-85101077D02*
X157463527Y-85188163D01*
X157463527Y-85188163D02*
X157419984Y-85231706D01*
X157419984Y-85231706D02*
X157332899Y-85275249D01*
X157332899Y-85275249D02*
X156984556Y-85275249D01*
X158247299Y-85667135D02*
X158160213Y-85710677D01*
X158160213Y-85710677D02*
X157986042Y-85710677D01*
X157986042Y-85710677D02*
X157898956Y-85667135D01*
X157898956Y-85667135D02*
X157855413Y-85580049D01*
X157855413Y-85580049D02*
X157855413Y-85231706D01*
X157855413Y-85231706D02*
X157898956Y-85144620D01*
X157898956Y-85144620D02*
X157986042Y-85101077D01*
X157986042Y-85101077D02*
X158160213Y-85101077D01*
X158160213Y-85101077D02*
X158247299Y-85144620D01*
X158247299Y-85144620D02*
X158290842Y-85231706D01*
X158290842Y-85231706D02*
X158290842Y-85318792D01*
X158290842Y-85318792D02*
X157855413Y-85405877D01*
X158682727Y-85710677D02*
X158682727Y-85101077D01*
X158682727Y-85188163D02*
X158726270Y-85144620D01*
X158726270Y-85144620D02*
X158813355Y-85101077D01*
X158813355Y-85101077D02*
X158943984Y-85101077D01*
X158943984Y-85101077D02*
X159031070Y-85144620D01*
X159031070Y-85144620D02*
X159074613Y-85231706D01*
X159074613Y-85231706D02*
X159074613Y-85710677D01*
X159074613Y-85231706D02*
X159118155Y-85144620D01*
X159118155Y-85144620D02*
X159205241Y-85101077D01*
X159205241Y-85101077D02*
X159335870Y-85101077D01*
X159335870Y-85101077D02*
X159422955Y-85144620D01*
X159422955Y-85144620D02*
X159466498Y-85231706D01*
X159466498Y-85231706D02*
X159466498Y-85710677D01*
X160032555Y-85710677D02*
X159945470Y-85667135D01*
X159945470Y-85667135D02*
X159901927Y-85580049D01*
X159901927Y-85580049D02*
X159901927Y-84796277D01*
X160729241Y-85667135D02*
X160642155Y-85710677D01*
X160642155Y-85710677D02*
X160467984Y-85710677D01*
X160467984Y-85710677D02*
X160380898Y-85667135D01*
X160380898Y-85667135D02*
X160337355Y-85580049D01*
X160337355Y-85580049D02*
X160337355Y-85231706D01*
X160337355Y-85231706D02*
X160380898Y-85144620D01*
X160380898Y-85144620D02*
X160467984Y-85101077D01*
X160467984Y-85101077D02*
X160642155Y-85101077D01*
X160642155Y-85101077D02*
X160729241Y-85144620D01*
X160729241Y-85144620D02*
X160772784Y-85231706D01*
X160772784Y-85231706D02*
X160772784Y-85318792D01*
X160772784Y-85318792D02*
X160337355Y-85405877D01*
X161077583Y-85101077D02*
X161295297Y-85710677D01*
X161513012Y-85101077D02*
X161295297Y-85710677D01*
X161295297Y-85710677D02*
X161208212Y-85928392D01*
X161208212Y-85928392D02*
X161164669Y-85971935D01*
X161164669Y-85971935D02*
X161077583Y-86015477D01*
X162558041Y-85710677D02*
X162558041Y-84796277D01*
X162558041Y-85231706D02*
X163080555Y-85231706D01*
X163080555Y-85710677D02*
X163080555Y-84796277D01*
X163646612Y-85710677D02*
X163559527Y-85667135D01*
X163559527Y-85667135D02*
X163515984Y-85623592D01*
X163515984Y-85623592D02*
X163472441Y-85536506D01*
X163472441Y-85536506D02*
X163472441Y-85275249D01*
X163472441Y-85275249D02*
X163515984Y-85188163D01*
X163515984Y-85188163D02*
X163559527Y-85144620D01*
X163559527Y-85144620D02*
X163646612Y-85101077D01*
X163646612Y-85101077D02*
X163777241Y-85101077D01*
X163777241Y-85101077D02*
X163864327Y-85144620D01*
X163864327Y-85144620D02*
X163907870Y-85188163D01*
X163907870Y-85188163D02*
X163951412Y-85275249D01*
X163951412Y-85275249D02*
X163951412Y-85536506D01*
X163951412Y-85536506D02*
X163907870Y-85623592D01*
X163907870Y-85623592D02*
X163864327Y-85667135D01*
X163864327Y-85667135D02*
X163777241Y-85710677D01*
X163777241Y-85710677D02*
X163646612Y-85710677D01*
X164473926Y-85710677D02*
X164386841Y-85667135D01*
X164386841Y-85667135D02*
X164343298Y-85623592D01*
X164343298Y-85623592D02*
X164299755Y-85536506D01*
X164299755Y-85536506D02*
X164299755Y-85275249D01*
X164299755Y-85275249D02*
X164343298Y-85188163D01*
X164343298Y-85188163D02*
X164386841Y-85144620D01*
X164386841Y-85144620D02*
X164473926Y-85101077D01*
X164473926Y-85101077D02*
X164604555Y-85101077D01*
X164604555Y-85101077D02*
X164691641Y-85144620D01*
X164691641Y-85144620D02*
X164735184Y-85188163D01*
X164735184Y-85188163D02*
X164778726Y-85275249D01*
X164778726Y-85275249D02*
X164778726Y-85536506D01*
X164778726Y-85536506D02*
X164735184Y-85623592D01*
X164735184Y-85623592D02*
X164691641Y-85667135D01*
X164691641Y-85667135D02*
X164604555Y-85710677D01*
X164604555Y-85710677D02*
X164473926Y-85710677D01*
X165170612Y-85710677D02*
X165170612Y-84796277D01*
X165257698Y-85362335D02*
X165518955Y-85710677D01*
X165518955Y-85101077D02*
X165170612Y-85449420D01*
X166259184Y-85667135D02*
X166172098Y-85710677D01*
X166172098Y-85710677D02*
X165997927Y-85710677D01*
X165997927Y-85710677D02*
X165910841Y-85667135D01*
X165910841Y-85667135D02*
X165867298Y-85580049D01*
X165867298Y-85580049D02*
X165867298Y-85231706D01*
X165867298Y-85231706D02*
X165910841Y-85144620D01*
X165910841Y-85144620D02*
X165997927Y-85101077D01*
X165997927Y-85101077D02*
X166172098Y-85101077D01*
X166172098Y-85101077D02*
X166259184Y-85144620D01*
X166259184Y-85144620D02*
X166302727Y-85231706D01*
X166302727Y-85231706D02*
X166302727Y-85318792D01*
X166302727Y-85318792D02*
X165867298Y-85405877D01*
X166694612Y-85710677D02*
X166694612Y-85101077D01*
X166694612Y-85275249D02*
X166738155Y-85188163D01*
X166738155Y-85188163D02*
X166781698Y-85144620D01*
X166781698Y-85144620D02*
X166868783Y-85101077D01*
X166868783Y-85101077D02*
X166955869Y-85101077D01*
X156853927Y-86268410D02*
X157158727Y-87182810D01*
X157158727Y-87182810D02*
X157463527Y-86268410D01*
X157768327Y-87182810D02*
X157768327Y-86573210D01*
X157768327Y-86268410D02*
X157724784Y-86311953D01*
X157724784Y-86311953D02*
X157768327Y-86355496D01*
X157768327Y-86355496D02*
X157811870Y-86311953D01*
X157811870Y-86311953D02*
X157768327Y-86268410D01*
X157768327Y-86268410D02*
X157768327Y-86355496D01*
X158203756Y-86573210D02*
X158203756Y-87356982D01*
X158203756Y-87356982D02*
X158160213Y-87444068D01*
X158160213Y-87444068D02*
X158073127Y-87487610D01*
X158073127Y-87487610D02*
X158029584Y-87487610D01*
X158203756Y-86268410D02*
X158160213Y-86311953D01*
X158160213Y-86311953D02*
X158203756Y-86355496D01*
X158203756Y-86355496D02*
X158247299Y-86311953D01*
X158247299Y-86311953D02*
X158203756Y-86268410D01*
X158203756Y-86268410D02*
X158203756Y-86355496D01*
X159031071Y-87182810D02*
X159031071Y-86703839D01*
X159031071Y-86703839D02*
X158987528Y-86616753D01*
X158987528Y-86616753D02*
X158900442Y-86573210D01*
X158900442Y-86573210D02*
X158726271Y-86573210D01*
X158726271Y-86573210D02*
X158639185Y-86616753D01*
X159031071Y-87139268D02*
X158943985Y-87182810D01*
X158943985Y-87182810D02*
X158726271Y-87182810D01*
X158726271Y-87182810D02*
X158639185Y-87139268D01*
X158639185Y-87139268D02*
X158595642Y-87052182D01*
X158595642Y-87052182D02*
X158595642Y-86965096D01*
X158595642Y-86965096D02*
X158639185Y-86878010D01*
X158639185Y-86878010D02*
X158726271Y-86834468D01*
X158726271Y-86834468D02*
X158943985Y-86834468D01*
X158943985Y-86834468D02*
X159031071Y-86790925D01*
X159379413Y-86573210D02*
X159597127Y-87182810D01*
X159814842Y-86573210D02*
X159597127Y-87182810D01*
X159597127Y-87182810D02*
X159510042Y-87400525D01*
X159510042Y-87400525D02*
X159466499Y-87444068D01*
X159466499Y-87444068D02*
X159379413Y-87487610D01*
X160206728Y-87139268D02*
X160206728Y-87182810D01*
X160206728Y-87182810D02*
X160163185Y-87269896D01*
X160163185Y-87269896D02*
X160119642Y-87313439D01*
X161295300Y-87182810D02*
X161295300Y-86268410D01*
X161295300Y-86268410D02*
X161513014Y-86268410D01*
X161513014Y-86268410D02*
X161643643Y-86311953D01*
X161643643Y-86311953D02*
X161730728Y-86399039D01*
X161730728Y-86399039D02*
X161774271Y-86486125D01*
X161774271Y-86486125D02*
X161817814Y-86660296D01*
X161817814Y-86660296D02*
X161817814Y-86790925D01*
X161817814Y-86790925D02*
X161774271Y-86965096D01*
X161774271Y-86965096D02*
X161730728Y-87052182D01*
X161730728Y-87052182D02*
X161643643Y-87139268D01*
X161643643Y-87139268D02*
X161513014Y-87182810D01*
X161513014Y-87182810D02*
X161295300Y-87182810D01*
X162601586Y-87182810D02*
X162601586Y-86703839D01*
X162601586Y-86703839D02*
X162558043Y-86616753D01*
X162558043Y-86616753D02*
X162470957Y-86573210D01*
X162470957Y-86573210D02*
X162296786Y-86573210D01*
X162296786Y-86573210D02*
X162209700Y-86616753D01*
X162601586Y-87139268D02*
X162514500Y-87182810D01*
X162514500Y-87182810D02*
X162296786Y-87182810D01*
X162296786Y-87182810D02*
X162209700Y-87139268D01*
X162209700Y-87139268D02*
X162166157Y-87052182D01*
X162166157Y-87052182D02*
X162166157Y-86965096D01*
X162166157Y-86965096D02*
X162209700Y-86878010D01*
X162209700Y-86878010D02*
X162296786Y-86834468D01*
X162296786Y-86834468D02*
X162514500Y-86834468D01*
X162514500Y-86834468D02*
X162601586Y-86790925D01*
X163037014Y-86573210D02*
X163037014Y-87182810D01*
X163037014Y-86660296D02*
X163080557Y-86616753D01*
X163080557Y-86616753D02*
X163167642Y-86573210D01*
X163167642Y-86573210D02*
X163298271Y-86573210D01*
X163298271Y-86573210D02*
X163385357Y-86616753D01*
X163385357Y-86616753D02*
X163428900Y-86703839D01*
X163428900Y-86703839D02*
X163428900Y-87182810D01*
X163864328Y-87182810D02*
X163864328Y-86573210D01*
X163864328Y-86268410D02*
X163820785Y-86311953D01*
X163820785Y-86311953D02*
X163864328Y-86355496D01*
X163864328Y-86355496D02*
X163907871Y-86311953D01*
X163907871Y-86311953D02*
X163864328Y-86268410D01*
X163864328Y-86268410D02*
X163864328Y-86355496D01*
X164648100Y-87139268D02*
X164561014Y-87182810D01*
X164561014Y-87182810D02*
X164386843Y-87182810D01*
X164386843Y-87182810D02*
X164299757Y-87139268D01*
X164299757Y-87139268D02*
X164256214Y-87052182D01*
X164256214Y-87052182D02*
X164256214Y-86703839D01*
X164256214Y-86703839D02*
X164299757Y-86616753D01*
X164299757Y-86616753D02*
X164386843Y-86573210D01*
X164386843Y-86573210D02*
X164561014Y-86573210D01*
X164561014Y-86573210D02*
X164648100Y-86616753D01*
X164648100Y-86616753D02*
X164691643Y-86703839D01*
X164691643Y-86703839D02*
X164691643Y-86790925D01*
X164691643Y-86790925D02*
X164256214Y-86878010D01*
X165214156Y-87182810D02*
X165127071Y-87139268D01*
X165127071Y-87139268D02*
X165083528Y-87052182D01*
X165083528Y-87052182D02*
X165083528Y-86268410D01*
X165606042Y-87139268D02*
X165606042Y-87182810D01*
X165606042Y-87182810D02*
X165562499Y-87269896D01*
X165562499Y-87269896D02*
X165518956Y-87313439D01*
X167130042Y-87182810D02*
X166694614Y-87182810D01*
X166694614Y-87182810D02*
X166694614Y-86268410D01*
X167783186Y-87139268D02*
X167696100Y-87182810D01*
X167696100Y-87182810D02*
X167521929Y-87182810D01*
X167521929Y-87182810D02*
X167434843Y-87139268D01*
X167434843Y-87139268D02*
X167391300Y-87052182D01*
X167391300Y-87052182D02*
X167391300Y-86703839D01*
X167391300Y-86703839D02*
X167434843Y-86616753D01*
X167434843Y-86616753D02*
X167521929Y-86573210D01*
X167521929Y-86573210D02*
X167696100Y-86573210D01*
X167696100Y-86573210D02*
X167783186Y-86616753D01*
X167783186Y-86616753D02*
X167826729Y-86703839D01*
X167826729Y-86703839D02*
X167826729Y-86790925D01*
X167826729Y-86790925D02*
X167391300Y-86878010D01*
X168349242Y-87182810D02*
X168262157Y-87139268D01*
X168262157Y-87139268D02*
X168218614Y-87095725D01*
X168218614Y-87095725D02*
X168175071Y-87008639D01*
X168175071Y-87008639D02*
X168175071Y-86747382D01*
X168175071Y-86747382D02*
X168218614Y-86660296D01*
X168218614Y-86660296D02*
X168262157Y-86616753D01*
X168262157Y-86616753D02*
X168349242Y-86573210D01*
X168349242Y-86573210D02*
X168479871Y-86573210D01*
X168479871Y-86573210D02*
X168566957Y-86616753D01*
X168566957Y-86616753D02*
X168610500Y-86660296D01*
X168610500Y-86660296D02*
X168654042Y-86747382D01*
X168654042Y-86747382D02*
X168654042Y-87008639D01*
X168654042Y-87008639D02*
X168610500Y-87095725D01*
X168610500Y-87095725D02*
X168566957Y-87139268D01*
X168566957Y-87139268D02*
X168479871Y-87182810D01*
X168479871Y-87182810D02*
X168349242Y-87182810D01*
X169089471Y-87139268D02*
X169089471Y-87182810D01*
X169089471Y-87182810D02*
X169045928Y-87269896D01*
X169045928Y-87269896D02*
X169002385Y-87313439D01*
X170178043Y-87182810D02*
X170178043Y-86268410D01*
X170700557Y-87182810D02*
X170308671Y-86660296D01*
X170700557Y-86268410D02*
X170178043Y-86790925D01*
X171440786Y-87139268D02*
X171353700Y-87182810D01*
X171353700Y-87182810D02*
X171179529Y-87182810D01*
X171179529Y-87182810D02*
X171092443Y-87139268D01*
X171092443Y-87139268D02*
X171048900Y-87052182D01*
X171048900Y-87052182D02*
X171048900Y-86703839D01*
X171048900Y-86703839D02*
X171092443Y-86616753D01*
X171092443Y-86616753D02*
X171179529Y-86573210D01*
X171179529Y-86573210D02*
X171353700Y-86573210D01*
X171353700Y-86573210D02*
X171440786Y-86616753D01*
X171440786Y-86616753D02*
X171484329Y-86703839D01*
X171484329Y-86703839D02*
X171484329Y-86790925D01*
X171484329Y-86790925D02*
X171048900Y-86878010D01*
X172006842Y-87182810D02*
X171919757Y-87139268D01*
X171919757Y-87139268D02*
X171876214Y-87095725D01*
X171876214Y-87095725D02*
X171832671Y-87008639D01*
X171832671Y-87008639D02*
X171832671Y-86747382D01*
X171832671Y-86747382D02*
X171876214Y-86660296D01*
X171876214Y-86660296D02*
X171919757Y-86616753D01*
X171919757Y-86616753D02*
X172006842Y-86573210D01*
X172006842Y-86573210D02*
X172137471Y-86573210D01*
X172137471Y-86573210D02*
X172224557Y-86616753D01*
X172224557Y-86616753D02*
X172268100Y-86660296D01*
X172268100Y-86660296D02*
X172311642Y-86747382D01*
X172311642Y-86747382D02*
X172311642Y-87008639D01*
X172311642Y-87008639D02*
X172268100Y-87095725D01*
X172268100Y-87095725D02*
X172224557Y-87139268D01*
X172224557Y-87139268D02*
X172137471Y-87182810D01*
X172137471Y-87182810D02*
X172006842Y-87182810D01*
X172703528Y-86573210D02*
X172703528Y-87182810D01*
X172703528Y-86660296D02*
X172747071Y-86616753D01*
X172747071Y-86616753D02*
X172834156Y-86573210D01*
X172834156Y-86573210D02*
X172964785Y-86573210D01*
X172964785Y-86573210D02*
X173051871Y-86616753D01*
X173051871Y-86616753D02*
X173095414Y-86703839D01*
X173095414Y-86703839D02*
X173095414Y-87182810D01*
X173922728Y-87182810D02*
X173922728Y-86703839D01*
X173922728Y-86703839D02*
X173879185Y-86616753D01*
X173879185Y-86616753D02*
X173792099Y-86573210D01*
X173792099Y-86573210D02*
X173617928Y-86573210D01*
X173617928Y-86573210D02*
X173530842Y-86616753D01*
X173922728Y-87139268D02*
X173835642Y-87182810D01*
X173835642Y-87182810D02*
X173617928Y-87182810D01*
X173617928Y-87182810D02*
X173530842Y-87139268D01*
X173530842Y-87139268D02*
X173487299Y-87052182D01*
X173487299Y-87052182D02*
X173487299Y-86965096D01*
X173487299Y-86965096D02*
X173530842Y-86878010D01*
X173530842Y-86878010D02*
X173617928Y-86834468D01*
X173617928Y-86834468D02*
X173835642Y-86834468D01*
X173835642Y-86834468D02*
X173922728Y-86790925D01*
D11*
X167861905Y-101754819D02*
X168433333Y-101754819D01*
X168147619Y-102754819D02*
X168147619Y-101754819D01*
X168671429Y-101754819D02*
X169290476Y-101754819D01*
X169290476Y-101754819D02*
X168957143Y-102135771D01*
X168957143Y-102135771D02*
X169100000Y-102135771D01*
X169100000Y-102135771D02*
X169195238Y-102183390D01*
X169195238Y-102183390D02*
X169242857Y-102231009D01*
X169242857Y-102231009D02*
X169290476Y-102326247D01*
X169290476Y-102326247D02*
X169290476Y-102564342D01*
X169290476Y-102564342D02*
X169242857Y-102659580D01*
X169242857Y-102659580D02*
X169195238Y-102707200D01*
X169195238Y-102707200D02*
X169100000Y-102754819D01*
X169100000Y-102754819D02*
X168814286Y-102754819D01*
X168814286Y-102754819D02*
X168719048Y-102707200D01*
X168719048Y-102707200D02*
X168671429Y-102659580D01*
X170290476Y-102659580D02*
X170242857Y-102707200D01*
X170242857Y-102707200D02*
X170100000Y-102754819D01*
X170100000Y-102754819D02*
X170004762Y-102754819D01*
X170004762Y-102754819D02*
X169861905Y-102707200D01*
X169861905Y-102707200D02*
X169766667Y-102611961D01*
X169766667Y-102611961D02*
X169719048Y-102516723D01*
X169719048Y-102516723D02*
X169671429Y-102326247D01*
X169671429Y-102326247D02*
X169671429Y-102183390D01*
X169671429Y-102183390D02*
X169719048Y-101992914D01*
X169719048Y-101992914D02*
X169766667Y-101897676D01*
X169766667Y-101897676D02*
X169861905Y-101802438D01*
X169861905Y-101802438D02*
X170004762Y-101754819D01*
X170004762Y-101754819D02*
X170100000Y-101754819D01*
X170100000Y-101754819D02*
X170242857Y-101802438D01*
X170242857Y-101802438D02*
X170290476Y-101850057D01*
X170671429Y-101850057D02*
X170719048Y-101802438D01*
X170719048Y-101802438D02*
X170814286Y-101754819D01*
X170814286Y-101754819D02*
X171052381Y-101754819D01*
X171052381Y-101754819D02*
X171147619Y-101802438D01*
X171147619Y-101802438D02*
X171195238Y-101850057D01*
X171195238Y-101850057D02*
X171242857Y-101945295D01*
X171242857Y-101945295D02*
X171242857Y-102040533D01*
X171242857Y-102040533D02*
X171195238Y-102183390D01*
X171195238Y-102183390D02*
X170623810Y-102754819D01*
X170623810Y-102754819D02*
X171242857Y-102754819D01*
X136409580Y-106845238D02*
X136457200Y-106892857D01*
X136457200Y-106892857D02*
X136504819Y-107035714D01*
X136504819Y-107035714D02*
X136504819Y-107130952D01*
X136504819Y-107130952D02*
X136457200Y-107273809D01*
X136457200Y-107273809D02*
X136361961Y-107369047D01*
X136361961Y-107369047D02*
X136266723Y-107416666D01*
X136266723Y-107416666D02*
X136076247Y-107464285D01*
X136076247Y-107464285D02*
X135933390Y-107464285D01*
X135933390Y-107464285D02*
X135742914Y-107416666D01*
X135742914Y-107416666D02*
X135647676Y-107369047D01*
X135647676Y-107369047D02*
X135552438Y-107273809D01*
X135552438Y-107273809D02*
X135504819Y-107130952D01*
X135504819Y-107130952D02*
X135504819Y-107035714D01*
X135504819Y-107035714D02*
X135552438Y-106892857D01*
X135552438Y-106892857D02*
X135600057Y-106845238D01*
X136504819Y-105940476D02*
X136504819Y-106416666D01*
X136504819Y-106416666D02*
X135504819Y-106416666D01*
X136504819Y-105607142D02*
X135504819Y-105607142D01*
X136504819Y-105035714D02*
X135933390Y-105464285D01*
X135504819Y-105035714D02*
X136076247Y-105607142D01*
X137904819Y-107488094D02*
X137904819Y-106869047D01*
X137904819Y-106869047D02*
X138285771Y-107202380D01*
X138285771Y-107202380D02*
X138285771Y-107059523D01*
X138285771Y-107059523D02*
X138333390Y-106964285D01*
X138333390Y-106964285D02*
X138381009Y-106916666D01*
X138381009Y-106916666D02*
X138476247Y-106869047D01*
X138476247Y-106869047D02*
X138714342Y-106869047D01*
X138714342Y-106869047D02*
X138809580Y-106916666D01*
X138809580Y-106916666D02*
X138857200Y-106964285D01*
X138857200Y-106964285D02*
X138904819Y-107059523D01*
X138904819Y-107059523D02*
X138904819Y-107345237D01*
X138904819Y-107345237D02*
X138857200Y-107440475D01*
X138857200Y-107440475D02*
X138809580Y-107488094D01*
X137904819Y-106583332D02*
X138904819Y-106249999D01*
X138904819Y-106249999D02*
X137904819Y-105916666D01*
X137904819Y-105678570D02*
X137904819Y-105059523D01*
X137904819Y-105059523D02*
X138285771Y-105392856D01*
X138285771Y-105392856D02*
X138285771Y-105249999D01*
X138285771Y-105249999D02*
X138333390Y-105154761D01*
X138333390Y-105154761D02*
X138381009Y-105107142D01*
X138381009Y-105107142D02*
X138476247Y-105059523D01*
X138476247Y-105059523D02*
X138714342Y-105059523D01*
X138714342Y-105059523D02*
X138809580Y-105107142D01*
X138809580Y-105107142D02*
X138857200Y-105154761D01*
X138857200Y-105154761D02*
X138904819Y-105249999D01*
X138904819Y-105249999D02*
X138904819Y-105535713D01*
X138904819Y-105535713D02*
X138857200Y-105630951D01*
X138857200Y-105630951D02*
X138809580Y-105678570D01*
X159061905Y-109654819D02*
X159633333Y-109654819D01*
X159347619Y-110654819D02*
X159347619Y-109654819D01*
X159871429Y-109654819D02*
X160538095Y-110654819D01*
X160538095Y-109654819D02*
X159871429Y-110654819D01*
X161442857Y-110654819D02*
X160871429Y-110654819D01*
X161157143Y-110654819D02*
X161157143Y-109654819D01*
X161157143Y-109654819D02*
X161061905Y-109797676D01*
X161061905Y-109797676D02*
X160966667Y-109892914D01*
X160966667Y-109892914D02*
X160871429Y-109940533D01*
X129461905Y-97854819D02*
X130033333Y-97854819D01*
X129747619Y-98854819D02*
X129747619Y-97854819D01*
X130319048Y-97950057D02*
X130366667Y-97902438D01*
X130366667Y-97902438D02*
X130461905Y-97854819D01*
X130461905Y-97854819D02*
X130700000Y-97854819D01*
X130700000Y-97854819D02*
X130795238Y-97902438D01*
X130795238Y-97902438D02*
X130842857Y-97950057D01*
X130842857Y-97950057D02*
X130890476Y-98045295D01*
X130890476Y-98045295D02*
X130890476Y-98140533D01*
X130890476Y-98140533D02*
X130842857Y-98283390D01*
X130842857Y-98283390D02*
X130271429Y-98854819D01*
X130271429Y-98854819D02*
X130890476Y-98854819D01*
X131890476Y-98759580D02*
X131842857Y-98807200D01*
X131842857Y-98807200D02*
X131700000Y-98854819D01*
X131700000Y-98854819D02*
X131604762Y-98854819D01*
X131604762Y-98854819D02*
X131461905Y-98807200D01*
X131461905Y-98807200D02*
X131366667Y-98711961D01*
X131366667Y-98711961D02*
X131319048Y-98616723D01*
X131319048Y-98616723D02*
X131271429Y-98426247D01*
X131271429Y-98426247D02*
X131271429Y-98283390D01*
X131271429Y-98283390D02*
X131319048Y-98092914D01*
X131319048Y-98092914D02*
X131366667Y-97997676D01*
X131366667Y-97997676D02*
X131461905Y-97902438D01*
X131461905Y-97902438D02*
X131604762Y-97854819D01*
X131604762Y-97854819D02*
X131700000Y-97854819D01*
X131700000Y-97854819D02*
X131842857Y-97902438D01*
X131842857Y-97902438D02*
X131890476Y-97950057D01*
X132271429Y-97950057D02*
X132319048Y-97902438D01*
X132319048Y-97902438D02*
X132414286Y-97854819D01*
X132414286Y-97854819D02*
X132652381Y-97854819D01*
X132652381Y-97854819D02*
X132747619Y-97902438D01*
X132747619Y-97902438D02*
X132795238Y-97950057D01*
X132795238Y-97950057D02*
X132842857Y-98045295D01*
X132842857Y-98045295D02*
X132842857Y-98140533D01*
X132842857Y-98140533D02*
X132795238Y-98283390D01*
X132795238Y-98283390D02*
X132223810Y-98854819D01*
X132223810Y-98854819D02*
X132842857Y-98854819D01*
X162757142Y-109149847D02*
X162423809Y-108673656D01*
X162185714Y-109149847D02*
X162185714Y-108149847D01*
X162185714Y-108149847D02*
X162566666Y-108149847D01*
X162566666Y-108149847D02*
X162661904Y-108197466D01*
X162661904Y-108197466D02*
X162709523Y-108245085D01*
X162709523Y-108245085D02*
X162757142Y-108340323D01*
X162757142Y-108340323D02*
X162757142Y-108483180D01*
X162757142Y-108483180D02*
X162709523Y-108578418D01*
X162709523Y-108578418D02*
X162661904Y-108626037D01*
X162661904Y-108626037D02*
X162566666Y-108673656D01*
X162566666Y-108673656D02*
X162185714Y-108673656D01*
X163090476Y-108149847D02*
X163757142Y-109149847D01*
X163757142Y-108149847D02*
X163090476Y-109149847D01*
X164661904Y-109149847D02*
X164090476Y-109149847D01*
X164376190Y-109149847D02*
X164376190Y-108149847D01*
X164376190Y-108149847D02*
X164280952Y-108292704D01*
X164280952Y-108292704D02*
X164185714Y-108387942D01*
X164185714Y-108387942D02*
X164090476Y-108435561D01*
X162138095Y-109759791D02*
X162709523Y-109759791D01*
X162423809Y-110759791D02*
X162423809Y-109759791D01*
X163519047Y-110759791D02*
X163042857Y-110759791D01*
X163042857Y-110759791D02*
X163042857Y-109759791D01*
X163852381Y-110759791D02*
X163852381Y-109759791D01*
X163852381Y-109759791D02*
X164185714Y-110474076D01*
X164185714Y-110474076D02*
X164519047Y-109759791D01*
X164519047Y-109759791D02*
X164519047Y-110759791D01*
X133002438Y-106861904D02*
X132954819Y-106957142D01*
X132954819Y-106957142D02*
X132954819Y-107099999D01*
X132954819Y-107099999D02*
X133002438Y-107242856D01*
X133002438Y-107242856D02*
X133097676Y-107338094D01*
X133097676Y-107338094D02*
X133192914Y-107385713D01*
X133192914Y-107385713D02*
X133383390Y-107433332D01*
X133383390Y-107433332D02*
X133526247Y-107433332D01*
X133526247Y-107433332D02*
X133716723Y-107385713D01*
X133716723Y-107385713D02*
X133811961Y-107338094D01*
X133811961Y-107338094D02*
X133907200Y-107242856D01*
X133907200Y-107242856D02*
X133954819Y-107099999D01*
X133954819Y-107099999D02*
X133954819Y-107004761D01*
X133954819Y-107004761D02*
X133907200Y-106861904D01*
X133907200Y-106861904D02*
X133859580Y-106814285D01*
X133859580Y-106814285D02*
X133526247Y-106814285D01*
X133526247Y-106814285D02*
X133526247Y-107004761D01*
X133954819Y-106385713D02*
X132954819Y-106385713D01*
X132954819Y-106385713D02*
X133954819Y-105814285D01*
X133954819Y-105814285D02*
X132954819Y-105814285D01*
X133954819Y-105338094D02*
X132954819Y-105338094D01*
X132954819Y-105338094D02*
X132954819Y-105099999D01*
X132954819Y-105099999D02*
X133002438Y-104957142D01*
X133002438Y-104957142D02*
X133097676Y-104861904D01*
X133097676Y-104861904D02*
X133192914Y-104814285D01*
X133192914Y-104814285D02*
X133383390Y-104766666D01*
X133383390Y-104766666D02*
X133526247Y-104766666D01*
X133526247Y-104766666D02*
X133716723Y-104814285D01*
X133716723Y-104814285D02*
X133811961Y-104861904D01*
X133811961Y-104861904D02*
X133907200Y-104957142D01*
X133907200Y-104957142D02*
X133954819Y-105099999D01*
X133954819Y-105099999D02*
X133954819Y-105338094D01*
X139914286Y-82973866D02*
X140676191Y-82973866D01*
X140295238Y-83354819D02*
X140295238Y-82592914D01*
X141628571Y-82354819D02*
X141152381Y-82354819D01*
X141152381Y-82354819D02*
X141104762Y-82831009D01*
X141104762Y-82831009D02*
X141152381Y-82783390D01*
X141152381Y-82783390D02*
X141247619Y-82735771D01*
X141247619Y-82735771D02*
X141485714Y-82735771D01*
X141485714Y-82735771D02*
X141580952Y-82783390D01*
X141580952Y-82783390D02*
X141628571Y-82831009D01*
X141628571Y-82831009D02*
X141676190Y-82926247D01*
X141676190Y-82926247D02*
X141676190Y-83164342D01*
X141676190Y-83164342D02*
X141628571Y-83259580D01*
X141628571Y-83259580D02*
X141580952Y-83307200D01*
X141580952Y-83307200D02*
X141485714Y-83354819D01*
X141485714Y-83354819D02*
X141247619Y-83354819D01*
X141247619Y-83354819D02*
X141152381Y-83307200D01*
X141152381Y-83307200D02*
X141104762Y-83259580D01*
X141961905Y-82354819D02*
X142295238Y-83354819D01*
X142295238Y-83354819D02*
X142628571Y-82354819D01*
X144561905Y-102754819D02*
X145133333Y-102754819D01*
X144847619Y-103754819D02*
X144847619Y-102754819D01*
X145990476Y-103754819D02*
X145419048Y-103754819D01*
X145704762Y-103754819D02*
X145704762Y-102754819D01*
X145704762Y-102754819D02*
X145609524Y-102897676D01*
X145609524Y-102897676D02*
X145514286Y-102992914D01*
X145514286Y-102992914D02*
X145419048Y-103040533D01*
X146990476Y-103659580D02*
X146942857Y-103707200D01*
X146942857Y-103707200D02*
X146800000Y-103754819D01*
X146800000Y-103754819D02*
X146704762Y-103754819D01*
X146704762Y-103754819D02*
X146561905Y-103707200D01*
X146561905Y-103707200D02*
X146466667Y-103611961D01*
X146466667Y-103611961D02*
X146419048Y-103516723D01*
X146419048Y-103516723D02*
X146371429Y-103326247D01*
X146371429Y-103326247D02*
X146371429Y-103183390D01*
X146371429Y-103183390D02*
X146419048Y-102992914D01*
X146419048Y-102992914D02*
X146466667Y-102897676D01*
X146466667Y-102897676D02*
X146561905Y-102802438D01*
X146561905Y-102802438D02*
X146704762Y-102754819D01*
X146704762Y-102754819D02*
X146800000Y-102754819D01*
X146800000Y-102754819D02*
X146942857Y-102802438D01*
X146942857Y-102802438D02*
X146990476Y-102850057D01*
X147847619Y-103088152D02*
X147847619Y-103754819D01*
X147609524Y-102707200D02*
X147371429Y-103421485D01*
X147371429Y-103421485D02*
X147990476Y-103421485D01*
X160157142Y-91454819D02*
X159823809Y-90978628D01*
X159585714Y-91454819D02*
X159585714Y-90454819D01*
X159585714Y-90454819D02*
X159966666Y-90454819D01*
X159966666Y-90454819D02*
X160061904Y-90502438D01*
X160061904Y-90502438D02*
X160109523Y-90550057D01*
X160109523Y-90550057D02*
X160157142Y-90645295D01*
X160157142Y-90645295D02*
X160157142Y-90788152D01*
X160157142Y-90788152D02*
X160109523Y-90883390D01*
X160109523Y-90883390D02*
X160061904Y-90931009D01*
X160061904Y-90931009D02*
X159966666Y-90978628D01*
X159966666Y-90978628D02*
X159585714Y-90978628D01*
X160490476Y-90454819D02*
X161157142Y-91454819D01*
X161157142Y-90454819D02*
X160490476Y-91454819D01*
X161442857Y-90454819D02*
X162061904Y-90454819D01*
X162061904Y-90454819D02*
X161728571Y-90835771D01*
X161728571Y-90835771D02*
X161871428Y-90835771D01*
X161871428Y-90835771D02*
X161966666Y-90883390D01*
X161966666Y-90883390D02*
X162014285Y-90931009D01*
X162014285Y-90931009D02*
X162061904Y-91026247D01*
X162061904Y-91026247D02*
X162061904Y-91264342D01*
X162061904Y-91264342D02*
X162014285Y-91359580D01*
X162014285Y-91359580D02*
X161966666Y-91407200D01*
X161966666Y-91407200D02*
X161871428Y-91454819D01*
X161871428Y-91454819D02*
X161585714Y-91454819D01*
X161585714Y-91454819D02*
X161490476Y-91407200D01*
X161490476Y-91407200D02*
X161442857Y-91359580D01*
X167861905Y-99054819D02*
X168433333Y-99054819D01*
X168147619Y-100054819D02*
X168147619Y-99054819D01*
X168671429Y-99054819D02*
X169290476Y-99054819D01*
X169290476Y-99054819D02*
X168957143Y-99435771D01*
X168957143Y-99435771D02*
X169100000Y-99435771D01*
X169100000Y-99435771D02*
X169195238Y-99483390D01*
X169195238Y-99483390D02*
X169242857Y-99531009D01*
X169242857Y-99531009D02*
X169290476Y-99626247D01*
X169290476Y-99626247D02*
X169290476Y-99864342D01*
X169290476Y-99864342D02*
X169242857Y-99959580D01*
X169242857Y-99959580D02*
X169195238Y-100007200D01*
X169195238Y-100007200D02*
X169100000Y-100054819D01*
X169100000Y-100054819D02*
X168814286Y-100054819D01*
X168814286Y-100054819D02*
X168719048Y-100007200D01*
X168719048Y-100007200D02*
X168671429Y-99959580D01*
X170290476Y-99959580D02*
X170242857Y-100007200D01*
X170242857Y-100007200D02*
X170100000Y-100054819D01*
X170100000Y-100054819D02*
X170004762Y-100054819D01*
X170004762Y-100054819D02*
X169861905Y-100007200D01*
X169861905Y-100007200D02*
X169766667Y-99911961D01*
X169766667Y-99911961D02*
X169719048Y-99816723D01*
X169719048Y-99816723D02*
X169671429Y-99626247D01*
X169671429Y-99626247D02*
X169671429Y-99483390D01*
X169671429Y-99483390D02*
X169719048Y-99292914D01*
X169719048Y-99292914D02*
X169766667Y-99197676D01*
X169766667Y-99197676D02*
X169861905Y-99102438D01*
X169861905Y-99102438D02*
X170004762Y-99054819D01*
X170004762Y-99054819D02*
X170100000Y-99054819D01*
X170100000Y-99054819D02*
X170242857Y-99102438D01*
X170242857Y-99102438D02*
X170290476Y-99150057D01*
X171242857Y-100054819D02*
X170671429Y-100054819D01*
X170957143Y-100054819D02*
X170957143Y-99054819D01*
X170957143Y-99054819D02*
X170861905Y-99197676D01*
X170861905Y-99197676D02*
X170766667Y-99292914D01*
X170766667Y-99292914D02*
X170671429Y-99340533D01*
X144661905Y-94954819D02*
X145233333Y-94954819D01*
X144947619Y-95954819D02*
X144947619Y-94954819D01*
X146090476Y-95954819D02*
X145519048Y-95954819D01*
X145804762Y-95954819D02*
X145804762Y-94954819D01*
X145804762Y-94954819D02*
X145709524Y-95097676D01*
X145709524Y-95097676D02*
X145614286Y-95192914D01*
X145614286Y-95192914D02*
X145519048Y-95240533D01*
X147090476Y-95859580D02*
X147042857Y-95907200D01*
X147042857Y-95907200D02*
X146900000Y-95954819D01*
X146900000Y-95954819D02*
X146804762Y-95954819D01*
X146804762Y-95954819D02*
X146661905Y-95907200D01*
X146661905Y-95907200D02*
X146566667Y-95811961D01*
X146566667Y-95811961D02*
X146519048Y-95716723D01*
X146519048Y-95716723D02*
X146471429Y-95526247D01*
X146471429Y-95526247D02*
X146471429Y-95383390D01*
X146471429Y-95383390D02*
X146519048Y-95192914D01*
X146519048Y-95192914D02*
X146566667Y-95097676D01*
X146566667Y-95097676D02*
X146661905Y-95002438D01*
X146661905Y-95002438D02*
X146804762Y-94954819D01*
X146804762Y-94954819D02*
X146900000Y-94954819D01*
X146900000Y-94954819D02*
X147042857Y-95002438D01*
X147042857Y-95002438D02*
X147090476Y-95050057D01*
X148042857Y-95954819D02*
X147471429Y-95954819D01*
X147757143Y-95954819D02*
X147757143Y-94954819D01*
X147757143Y-94954819D02*
X147661905Y-95097676D01*
X147661905Y-95097676D02*
X147566667Y-95192914D01*
X147566667Y-95192914D02*
X147471429Y-95240533D01*
X129461905Y-100454819D02*
X130033333Y-100454819D01*
X129747619Y-101454819D02*
X129747619Y-100454819D01*
X130319048Y-100550057D02*
X130366667Y-100502438D01*
X130366667Y-100502438D02*
X130461905Y-100454819D01*
X130461905Y-100454819D02*
X130700000Y-100454819D01*
X130700000Y-100454819D02*
X130795238Y-100502438D01*
X130795238Y-100502438D02*
X130842857Y-100550057D01*
X130842857Y-100550057D02*
X130890476Y-100645295D01*
X130890476Y-100645295D02*
X130890476Y-100740533D01*
X130890476Y-100740533D02*
X130842857Y-100883390D01*
X130842857Y-100883390D02*
X130271429Y-101454819D01*
X130271429Y-101454819D02*
X130890476Y-101454819D01*
X131890476Y-101359580D02*
X131842857Y-101407200D01*
X131842857Y-101407200D02*
X131700000Y-101454819D01*
X131700000Y-101454819D02*
X131604762Y-101454819D01*
X131604762Y-101454819D02*
X131461905Y-101407200D01*
X131461905Y-101407200D02*
X131366667Y-101311961D01*
X131366667Y-101311961D02*
X131319048Y-101216723D01*
X131319048Y-101216723D02*
X131271429Y-101026247D01*
X131271429Y-101026247D02*
X131271429Y-100883390D01*
X131271429Y-100883390D02*
X131319048Y-100692914D01*
X131319048Y-100692914D02*
X131366667Y-100597676D01*
X131366667Y-100597676D02*
X131461905Y-100502438D01*
X131461905Y-100502438D02*
X131604762Y-100454819D01*
X131604762Y-100454819D02*
X131700000Y-100454819D01*
X131700000Y-100454819D02*
X131842857Y-100502438D01*
X131842857Y-100502438D02*
X131890476Y-100550057D01*
X132842857Y-101454819D02*
X132271429Y-101454819D01*
X132557143Y-101454819D02*
X132557143Y-100454819D01*
X132557143Y-100454819D02*
X132461905Y-100597676D01*
X132461905Y-100597676D02*
X132366667Y-100692914D01*
X132366667Y-100692914D02*
X132271429Y-100740533D01*
X170838095Y-108002438D02*
X170742857Y-107954819D01*
X170742857Y-107954819D02*
X170600000Y-107954819D01*
X170600000Y-107954819D02*
X170457143Y-108002438D01*
X170457143Y-108002438D02*
X170361905Y-108097676D01*
X170361905Y-108097676D02*
X170314286Y-108192914D01*
X170314286Y-108192914D02*
X170266667Y-108383390D01*
X170266667Y-108383390D02*
X170266667Y-108526247D01*
X170266667Y-108526247D02*
X170314286Y-108716723D01*
X170314286Y-108716723D02*
X170361905Y-108811961D01*
X170361905Y-108811961D02*
X170457143Y-108907200D01*
X170457143Y-108907200D02*
X170600000Y-108954819D01*
X170600000Y-108954819D02*
X170695238Y-108954819D01*
X170695238Y-108954819D02*
X170838095Y-108907200D01*
X170838095Y-108907200D02*
X170885714Y-108859580D01*
X170885714Y-108859580D02*
X170885714Y-108526247D01*
X170885714Y-108526247D02*
X170695238Y-108526247D01*
X171314286Y-108954819D02*
X171314286Y-107954819D01*
X171314286Y-107954819D02*
X171885714Y-108954819D01*
X171885714Y-108954819D02*
X171885714Y-107954819D01*
X172361905Y-108954819D02*
X172361905Y-107954819D01*
X172361905Y-107954819D02*
X172600000Y-107954819D01*
X172600000Y-107954819D02*
X172742857Y-108002438D01*
X172742857Y-108002438D02*
X172838095Y-108097676D01*
X172838095Y-108097676D02*
X172885714Y-108192914D01*
X172885714Y-108192914D02*
X172933333Y-108383390D01*
X172933333Y-108383390D02*
X172933333Y-108526247D01*
X172933333Y-108526247D02*
X172885714Y-108716723D01*
X172885714Y-108716723D02*
X172838095Y-108811961D01*
X172838095Y-108811961D02*
X172742857Y-108907200D01*
X172742857Y-108907200D02*
X172600000Y-108954819D01*
X172600000Y-108954819D02*
X172361905Y-108954819D01*
X130300000Y-83173866D02*
X131061905Y-83173866D01*
X130680952Y-83554819D02*
X130680952Y-82792914D01*
X131442857Y-82554819D02*
X132061904Y-82554819D01*
X132061904Y-82554819D02*
X131728571Y-82935771D01*
X131728571Y-82935771D02*
X131871428Y-82935771D01*
X131871428Y-82935771D02*
X131966666Y-82983390D01*
X131966666Y-82983390D02*
X132014285Y-83031009D01*
X132014285Y-83031009D02*
X132061904Y-83126247D01*
X132061904Y-83126247D02*
X132061904Y-83364342D01*
X132061904Y-83364342D02*
X132014285Y-83459580D01*
X132014285Y-83459580D02*
X131966666Y-83507200D01*
X131966666Y-83507200D02*
X131871428Y-83554819D01*
X131871428Y-83554819D02*
X131585714Y-83554819D01*
X131585714Y-83554819D02*
X131490476Y-83507200D01*
X131490476Y-83507200D02*
X131442857Y-83459580D01*
X132490476Y-83459580D02*
X132538095Y-83507200D01*
X132538095Y-83507200D02*
X132490476Y-83554819D01*
X132490476Y-83554819D02*
X132442857Y-83507200D01*
X132442857Y-83507200D02*
X132490476Y-83459580D01*
X132490476Y-83459580D02*
X132490476Y-83554819D01*
X132871428Y-82554819D02*
X133490475Y-82554819D01*
X133490475Y-82554819D02*
X133157142Y-82935771D01*
X133157142Y-82935771D02*
X133299999Y-82935771D01*
X133299999Y-82935771D02*
X133395237Y-82983390D01*
X133395237Y-82983390D02*
X133442856Y-83031009D01*
X133442856Y-83031009D02*
X133490475Y-83126247D01*
X133490475Y-83126247D02*
X133490475Y-83364342D01*
X133490475Y-83364342D02*
X133442856Y-83459580D01*
X133442856Y-83459580D02*
X133395237Y-83507200D01*
X133395237Y-83507200D02*
X133299999Y-83554819D01*
X133299999Y-83554819D02*
X133014285Y-83554819D01*
X133014285Y-83554819D02*
X132919047Y-83507200D01*
X132919047Y-83507200D02*
X132871428Y-83459580D01*
X133776190Y-82554819D02*
X134109523Y-83554819D01*
X134109523Y-83554819D02*
X134442856Y-82554819D01*
X131404819Y-107373808D02*
X130404819Y-107373808D01*
X130404819Y-107373808D02*
X130404819Y-107135713D01*
X130404819Y-107135713D02*
X130452438Y-106992856D01*
X130452438Y-106992856D02*
X130547676Y-106897618D01*
X130547676Y-106897618D02*
X130642914Y-106849999D01*
X130642914Y-106849999D02*
X130833390Y-106802380D01*
X130833390Y-106802380D02*
X130976247Y-106802380D01*
X130976247Y-106802380D02*
X131166723Y-106849999D01*
X131166723Y-106849999D02*
X131261961Y-106897618D01*
X131261961Y-106897618D02*
X131357200Y-106992856D01*
X131357200Y-106992856D02*
X131404819Y-107135713D01*
X131404819Y-107135713D02*
X131404819Y-107373808D01*
X131404819Y-106373808D02*
X130404819Y-106373808D01*
X130404819Y-105707142D02*
X130404819Y-105516666D01*
X130404819Y-105516666D02*
X130452438Y-105421428D01*
X130452438Y-105421428D02*
X130547676Y-105326190D01*
X130547676Y-105326190D02*
X130738152Y-105278571D01*
X130738152Y-105278571D02*
X131071485Y-105278571D01*
X131071485Y-105278571D02*
X131261961Y-105326190D01*
X131261961Y-105326190D02*
X131357200Y-105421428D01*
X131357200Y-105421428D02*
X131404819Y-105516666D01*
X131404819Y-105516666D02*
X131404819Y-105707142D01*
X131404819Y-105707142D02*
X131357200Y-105802380D01*
X131357200Y-105802380D02*
X131261961Y-105897618D01*
X131261961Y-105897618D02*
X131071485Y-105945237D01*
X131071485Y-105945237D02*
X130738152Y-105945237D01*
X130738152Y-105945237D02*
X130547676Y-105897618D01*
X130547676Y-105897618D02*
X130452438Y-105802380D01*
X130452438Y-105802380D02*
X130404819Y-105707142D01*
X151959580Y-110795238D02*
X152007200Y-110842857D01*
X152007200Y-110842857D02*
X152054819Y-110985714D01*
X152054819Y-110985714D02*
X152054819Y-111080952D01*
X152054819Y-111080952D02*
X152007200Y-111223809D01*
X152007200Y-111223809D02*
X151911961Y-111319047D01*
X151911961Y-111319047D02*
X151816723Y-111366666D01*
X151816723Y-111366666D02*
X151626247Y-111414285D01*
X151626247Y-111414285D02*
X151483390Y-111414285D01*
X151483390Y-111414285D02*
X151292914Y-111366666D01*
X151292914Y-111366666D02*
X151197676Y-111319047D01*
X151197676Y-111319047D02*
X151102438Y-111223809D01*
X151102438Y-111223809D02*
X151054819Y-111080952D01*
X151054819Y-111080952D02*
X151054819Y-110985714D01*
X151054819Y-110985714D02*
X151102438Y-110842857D01*
X151102438Y-110842857D02*
X151150057Y-110795238D01*
X152054819Y-109890476D02*
X152054819Y-110366666D01*
X152054819Y-110366666D02*
X151054819Y-110366666D01*
X152054819Y-109557142D02*
X151054819Y-109557142D01*
X152054819Y-108985714D02*
X151483390Y-109414285D01*
X151054819Y-108985714D02*
X151626247Y-109557142D01*
X157054819Y-110971427D02*
X156054819Y-110971427D01*
X156054819Y-110971427D02*
X156769104Y-110638094D01*
X156769104Y-110638094D02*
X156054819Y-110304761D01*
X156054819Y-110304761D02*
X157054819Y-110304761D01*
X156054819Y-109638094D02*
X156054819Y-109447618D01*
X156054819Y-109447618D02*
X156102438Y-109352380D01*
X156102438Y-109352380D02*
X156197676Y-109257142D01*
X156197676Y-109257142D02*
X156388152Y-109209523D01*
X156388152Y-109209523D02*
X156721485Y-109209523D01*
X156721485Y-109209523D02*
X156911961Y-109257142D01*
X156911961Y-109257142D02*
X157007200Y-109352380D01*
X157007200Y-109352380D02*
X157054819Y-109447618D01*
X157054819Y-109447618D02*
X157054819Y-109638094D01*
X157054819Y-109638094D02*
X157007200Y-109733332D01*
X157007200Y-109733332D02*
X156911961Y-109828570D01*
X156911961Y-109828570D02*
X156721485Y-109876189D01*
X156721485Y-109876189D02*
X156388152Y-109876189D01*
X156388152Y-109876189D02*
X156197676Y-109828570D01*
X156197676Y-109828570D02*
X156102438Y-109733332D01*
X156102438Y-109733332D02*
X156054819Y-109638094D01*
X157007200Y-108828570D02*
X157054819Y-108685713D01*
X157054819Y-108685713D02*
X157054819Y-108447618D01*
X157054819Y-108447618D02*
X157007200Y-108352380D01*
X157007200Y-108352380D02*
X156959580Y-108304761D01*
X156959580Y-108304761D02*
X156864342Y-108257142D01*
X156864342Y-108257142D02*
X156769104Y-108257142D01*
X156769104Y-108257142D02*
X156673866Y-108304761D01*
X156673866Y-108304761D02*
X156626247Y-108352380D01*
X156626247Y-108352380D02*
X156578628Y-108447618D01*
X156578628Y-108447618D02*
X156531009Y-108638094D01*
X156531009Y-108638094D02*
X156483390Y-108733332D01*
X156483390Y-108733332D02*
X156435771Y-108780951D01*
X156435771Y-108780951D02*
X156340533Y-108828570D01*
X156340533Y-108828570D02*
X156245295Y-108828570D01*
X156245295Y-108828570D02*
X156150057Y-108780951D01*
X156150057Y-108780951D02*
X156102438Y-108733332D01*
X156102438Y-108733332D02*
X156054819Y-108638094D01*
X156054819Y-108638094D02*
X156054819Y-108399999D01*
X156054819Y-108399999D02*
X156102438Y-108257142D01*
X157054819Y-107828570D02*
X156054819Y-107828570D01*
X150571428Y-86431009D02*
X150714285Y-86478628D01*
X150714285Y-86478628D02*
X150761904Y-86526247D01*
X150761904Y-86526247D02*
X150809523Y-86621485D01*
X150809523Y-86621485D02*
X150809523Y-86764342D01*
X150809523Y-86764342D02*
X150761904Y-86859580D01*
X150761904Y-86859580D02*
X150714285Y-86907200D01*
X150714285Y-86907200D02*
X150619047Y-86954819D01*
X150619047Y-86954819D02*
X150238095Y-86954819D01*
X150238095Y-86954819D02*
X150238095Y-85954819D01*
X150238095Y-85954819D02*
X150571428Y-85954819D01*
X150571428Y-85954819D02*
X150666666Y-86002438D01*
X150666666Y-86002438D02*
X150714285Y-86050057D01*
X150714285Y-86050057D02*
X150761904Y-86145295D01*
X150761904Y-86145295D02*
X150761904Y-86240533D01*
X150761904Y-86240533D02*
X150714285Y-86335771D01*
X150714285Y-86335771D02*
X150666666Y-86383390D01*
X150666666Y-86383390D02*
X150571428Y-86431009D01*
X150571428Y-86431009D02*
X150238095Y-86431009D01*
X154654819Y-110971427D02*
X153654819Y-110971427D01*
X153654819Y-110971427D02*
X154369104Y-110638094D01*
X154369104Y-110638094D02*
X153654819Y-110304761D01*
X153654819Y-110304761D02*
X154654819Y-110304761D01*
X154654819Y-109828570D02*
X153654819Y-109828570D01*
X154607200Y-109399999D02*
X154654819Y-109257142D01*
X154654819Y-109257142D02*
X154654819Y-109019047D01*
X154654819Y-109019047D02*
X154607200Y-108923809D01*
X154607200Y-108923809D02*
X154559580Y-108876190D01*
X154559580Y-108876190D02*
X154464342Y-108828571D01*
X154464342Y-108828571D02*
X154369104Y-108828571D01*
X154369104Y-108828571D02*
X154273866Y-108876190D01*
X154273866Y-108876190D02*
X154226247Y-108923809D01*
X154226247Y-108923809D02*
X154178628Y-109019047D01*
X154178628Y-109019047D02*
X154131009Y-109209523D01*
X154131009Y-109209523D02*
X154083390Y-109304761D01*
X154083390Y-109304761D02*
X154035771Y-109352380D01*
X154035771Y-109352380D02*
X153940533Y-109399999D01*
X153940533Y-109399999D02*
X153845295Y-109399999D01*
X153845295Y-109399999D02*
X153750057Y-109352380D01*
X153750057Y-109352380D02*
X153702438Y-109304761D01*
X153702438Y-109304761D02*
X153654819Y-109209523D01*
X153654819Y-109209523D02*
X153654819Y-108971428D01*
X153654819Y-108971428D02*
X153702438Y-108828571D01*
X153654819Y-108209523D02*
X153654819Y-108019047D01*
X153654819Y-108019047D02*
X153702438Y-107923809D01*
X153702438Y-107923809D02*
X153797676Y-107828571D01*
X153797676Y-107828571D02*
X153988152Y-107780952D01*
X153988152Y-107780952D02*
X154321485Y-107780952D01*
X154321485Y-107780952D02*
X154511961Y-107828571D01*
X154511961Y-107828571D02*
X154607200Y-107923809D01*
X154607200Y-107923809D02*
X154654819Y-108019047D01*
X154654819Y-108019047D02*
X154654819Y-108209523D01*
X154654819Y-108209523D02*
X154607200Y-108304761D01*
X154607200Y-108304761D02*
X154511961Y-108399999D01*
X154511961Y-108399999D02*
X154321485Y-108447618D01*
X154321485Y-108447618D02*
X153988152Y-108447618D01*
X153988152Y-108447618D02*
X153797676Y-108399999D01*
X153797676Y-108399999D02*
X153702438Y-108304761D01*
X153702438Y-108304761D02*
X153654819Y-108209523D01*
X129157143Y-113804819D02*
X129157143Y-112804819D01*
X129157143Y-112804819D02*
X129728571Y-113804819D01*
X129728571Y-113804819D02*
X129728571Y-112804819D01*
X130776190Y-113804819D02*
X130442857Y-113328628D01*
X130204762Y-113804819D02*
X130204762Y-112804819D01*
X130204762Y-112804819D02*
X130585714Y-112804819D01*
X130585714Y-112804819D02*
X130680952Y-112852438D01*
X130680952Y-112852438D02*
X130728571Y-112900057D01*
X130728571Y-112900057D02*
X130776190Y-112995295D01*
X130776190Y-112995295D02*
X130776190Y-113138152D01*
X130776190Y-113138152D02*
X130728571Y-113233390D01*
X130728571Y-113233390D02*
X130680952Y-113281009D01*
X130680952Y-113281009D02*
X130585714Y-113328628D01*
X130585714Y-113328628D02*
X130204762Y-113328628D01*
X131157143Y-113757200D02*
X131300000Y-113804819D01*
X131300000Y-113804819D02*
X131538095Y-113804819D01*
X131538095Y-113804819D02*
X131633333Y-113757200D01*
X131633333Y-113757200D02*
X131680952Y-113709580D01*
X131680952Y-113709580D02*
X131728571Y-113614342D01*
X131728571Y-113614342D02*
X131728571Y-113519104D01*
X131728571Y-113519104D02*
X131680952Y-113423866D01*
X131680952Y-113423866D02*
X131633333Y-113376247D01*
X131633333Y-113376247D02*
X131538095Y-113328628D01*
X131538095Y-113328628D02*
X131347619Y-113281009D01*
X131347619Y-113281009D02*
X131252381Y-113233390D01*
X131252381Y-113233390D02*
X131204762Y-113185771D01*
X131204762Y-113185771D02*
X131157143Y-113090533D01*
X131157143Y-113090533D02*
X131157143Y-112995295D01*
X131157143Y-112995295D02*
X131204762Y-112900057D01*
X131204762Y-112900057D02*
X131252381Y-112852438D01*
X131252381Y-112852438D02*
X131347619Y-112804819D01*
X131347619Y-112804819D02*
X131585714Y-112804819D01*
X131585714Y-112804819D02*
X131728571Y-112852438D01*
X132014286Y-112804819D02*
X132585714Y-112804819D01*
X132300000Y-113804819D02*
X132300000Y-112804819D01*
X167861905Y-95454819D02*
X168433333Y-95454819D01*
X168147619Y-96454819D02*
X168147619Y-95454819D01*
X168719048Y-95550057D02*
X168766667Y-95502438D01*
X168766667Y-95502438D02*
X168861905Y-95454819D01*
X168861905Y-95454819D02*
X169100000Y-95454819D01*
X169100000Y-95454819D02*
X169195238Y-95502438D01*
X169195238Y-95502438D02*
X169242857Y-95550057D01*
X169242857Y-95550057D02*
X169290476Y-95645295D01*
X169290476Y-95645295D02*
X169290476Y-95740533D01*
X169290476Y-95740533D02*
X169242857Y-95883390D01*
X169242857Y-95883390D02*
X168671429Y-96454819D01*
X168671429Y-96454819D02*
X169290476Y-96454819D01*
X170290476Y-96359580D02*
X170242857Y-96407200D01*
X170242857Y-96407200D02*
X170100000Y-96454819D01*
X170100000Y-96454819D02*
X170004762Y-96454819D01*
X170004762Y-96454819D02*
X169861905Y-96407200D01*
X169861905Y-96407200D02*
X169766667Y-96311961D01*
X169766667Y-96311961D02*
X169719048Y-96216723D01*
X169719048Y-96216723D02*
X169671429Y-96026247D01*
X169671429Y-96026247D02*
X169671429Y-95883390D01*
X169671429Y-95883390D02*
X169719048Y-95692914D01*
X169719048Y-95692914D02*
X169766667Y-95597676D01*
X169766667Y-95597676D02*
X169861905Y-95502438D01*
X169861905Y-95502438D02*
X170004762Y-95454819D01*
X170004762Y-95454819D02*
X170100000Y-95454819D01*
X170100000Y-95454819D02*
X170242857Y-95502438D01*
X170242857Y-95502438D02*
X170290476Y-95550057D01*
X170623810Y-95454819D02*
X171242857Y-95454819D01*
X171242857Y-95454819D02*
X170909524Y-95835771D01*
X170909524Y-95835771D02*
X171052381Y-95835771D01*
X171052381Y-95835771D02*
X171147619Y-95883390D01*
X171147619Y-95883390D02*
X171195238Y-95931009D01*
X171195238Y-95931009D02*
X171242857Y-96026247D01*
X171242857Y-96026247D02*
X171242857Y-96264342D01*
X171242857Y-96264342D02*
X171195238Y-96359580D01*
X171195238Y-96359580D02*
X171147619Y-96407200D01*
X171147619Y-96407200D02*
X171052381Y-96454819D01*
X171052381Y-96454819D02*
X170766667Y-96454819D01*
X170766667Y-96454819D02*
X170671429Y-96407200D01*
X170671429Y-96407200D02*
X170623810Y-96359580D01*
X152761905Y-86569104D02*
X153238095Y-86569104D01*
X152666667Y-86854819D02*
X153000000Y-85854819D01*
X153000000Y-85854819D02*
X153333333Y-86854819D01*
X159261905Y-92854819D02*
X159833333Y-92854819D01*
X159547619Y-93854819D02*
X159547619Y-92854819D01*
X160071429Y-92854819D02*
X160738095Y-93854819D01*
X160738095Y-92854819D02*
X160071429Y-93854819D01*
X161023810Y-92854819D02*
X161642857Y-92854819D01*
X161642857Y-92854819D02*
X161309524Y-93235771D01*
X161309524Y-93235771D02*
X161452381Y-93235771D01*
X161452381Y-93235771D02*
X161547619Y-93283390D01*
X161547619Y-93283390D02*
X161595238Y-93331009D01*
X161595238Y-93331009D02*
X161642857Y-93426247D01*
X161642857Y-93426247D02*
X161642857Y-93664342D01*
X161642857Y-93664342D02*
X161595238Y-93759580D01*
X161595238Y-93759580D02*
X161547619Y-93807200D01*
X161547619Y-93807200D02*
X161452381Y-93854819D01*
X161452381Y-93854819D02*
X161166667Y-93854819D01*
X161166667Y-93854819D02*
X161071429Y-93807200D01*
X161071429Y-93807200D02*
X161023810Y-93759580D01*
X159785714Y-96454819D02*
X159785714Y-95454819D01*
X159785714Y-95454819D02*
X160023809Y-95454819D01*
X160023809Y-95454819D02*
X160166666Y-95502438D01*
X160166666Y-95502438D02*
X160261904Y-95597676D01*
X160261904Y-95597676D02*
X160309523Y-95692914D01*
X160309523Y-95692914D02*
X160357142Y-95883390D01*
X160357142Y-95883390D02*
X160357142Y-96026247D01*
X160357142Y-96026247D02*
X160309523Y-96216723D01*
X160309523Y-96216723D02*
X160261904Y-96311961D01*
X160261904Y-96311961D02*
X160166666Y-96407200D01*
X160166666Y-96407200D02*
X160023809Y-96454819D01*
X160023809Y-96454819D02*
X159785714Y-96454819D01*
X160785714Y-95931009D02*
X161119047Y-95931009D01*
X161261904Y-96454819D02*
X160785714Y-96454819D01*
X160785714Y-96454819D02*
X160785714Y-95454819D01*
X160785714Y-95454819D02*
X161261904Y-95454819D01*
X149159580Y-110366666D02*
X149207200Y-110414285D01*
X149207200Y-110414285D02*
X149254819Y-110557142D01*
X149254819Y-110557142D02*
X149254819Y-110652380D01*
X149254819Y-110652380D02*
X149207200Y-110795237D01*
X149207200Y-110795237D02*
X149111961Y-110890475D01*
X149111961Y-110890475D02*
X149016723Y-110938094D01*
X149016723Y-110938094D02*
X148826247Y-110985713D01*
X148826247Y-110985713D02*
X148683390Y-110985713D01*
X148683390Y-110985713D02*
X148492914Y-110938094D01*
X148492914Y-110938094D02*
X148397676Y-110890475D01*
X148397676Y-110890475D02*
X148302438Y-110795237D01*
X148302438Y-110795237D02*
X148254819Y-110652380D01*
X148254819Y-110652380D02*
X148254819Y-110557142D01*
X148254819Y-110557142D02*
X148302438Y-110414285D01*
X148302438Y-110414285D02*
X148350057Y-110366666D01*
X149207200Y-109985713D02*
X149254819Y-109842856D01*
X149254819Y-109842856D02*
X149254819Y-109604761D01*
X149254819Y-109604761D02*
X149207200Y-109509523D01*
X149207200Y-109509523D02*
X149159580Y-109461904D01*
X149159580Y-109461904D02*
X149064342Y-109414285D01*
X149064342Y-109414285D02*
X148969104Y-109414285D01*
X148969104Y-109414285D02*
X148873866Y-109461904D01*
X148873866Y-109461904D02*
X148826247Y-109509523D01*
X148826247Y-109509523D02*
X148778628Y-109604761D01*
X148778628Y-109604761D02*
X148731009Y-109795237D01*
X148731009Y-109795237D02*
X148683390Y-109890475D01*
X148683390Y-109890475D02*
X148635771Y-109938094D01*
X148635771Y-109938094D02*
X148540533Y-109985713D01*
X148540533Y-109985713D02*
X148445295Y-109985713D01*
X148445295Y-109985713D02*
X148350057Y-109938094D01*
X148350057Y-109938094D02*
X148302438Y-109890475D01*
X148302438Y-109890475D02*
X148254819Y-109795237D01*
X148254819Y-109795237D02*
X148254819Y-109557142D01*
X148254819Y-109557142D02*
X148302438Y-109414285D01*
X167861905Y-92754819D02*
X168433333Y-92754819D01*
X168147619Y-93754819D02*
X168147619Y-92754819D01*
X168719048Y-92850057D02*
X168766667Y-92802438D01*
X168766667Y-92802438D02*
X168861905Y-92754819D01*
X168861905Y-92754819D02*
X169100000Y-92754819D01*
X169100000Y-92754819D02*
X169195238Y-92802438D01*
X169195238Y-92802438D02*
X169242857Y-92850057D01*
X169242857Y-92850057D02*
X169290476Y-92945295D01*
X169290476Y-92945295D02*
X169290476Y-93040533D01*
X169290476Y-93040533D02*
X169242857Y-93183390D01*
X169242857Y-93183390D02*
X168671429Y-93754819D01*
X168671429Y-93754819D02*
X169290476Y-93754819D01*
X170290476Y-93659580D02*
X170242857Y-93707200D01*
X170242857Y-93707200D02*
X170100000Y-93754819D01*
X170100000Y-93754819D02*
X170004762Y-93754819D01*
X170004762Y-93754819D02*
X169861905Y-93707200D01*
X169861905Y-93707200D02*
X169766667Y-93611961D01*
X169766667Y-93611961D02*
X169719048Y-93516723D01*
X169719048Y-93516723D02*
X169671429Y-93326247D01*
X169671429Y-93326247D02*
X169671429Y-93183390D01*
X169671429Y-93183390D02*
X169719048Y-92992914D01*
X169719048Y-92992914D02*
X169766667Y-92897676D01*
X169766667Y-92897676D02*
X169861905Y-92802438D01*
X169861905Y-92802438D02*
X170004762Y-92754819D01*
X170004762Y-92754819D02*
X170100000Y-92754819D01*
X170100000Y-92754819D02*
X170242857Y-92802438D01*
X170242857Y-92802438D02*
X170290476Y-92850057D01*
X171147619Y-93088152D02*
X171147619Y-93754819D01*
X170909524Y-92707200D02*
X170671429Y-93421485D01*
X170671429Y-93421485D02*
X171290476Y-93421485D01*
X148761905Y-98054819D02*
X148761905Y-97054819D01*
X148761905Y-97054819D02*
X149000000Y-97054819D01*
X149000000Y-97054819D02*
X149142857Y-97102438D01*
X149142857Y-97102438D02*
X149238095Y-97197676D01*
X149238095Y-97197676D02*
X149285714Y-97292914D01*
X149285714Y-97292914D02*
X149333333Y-97483390D01*
X149333333Y-97483390D02*
X149333333Y-97626247D01*
X149333333Y-97626247D02*
X149285714Y-97816723D01*
X149285714Y-97816723D02*
X149238095Y-97911961D01*
X149238095Y-97911961D02*
X149142857Y-98007200D01*
X149142857Y-98007200D02*
X149000000Y-98054819D01*
X149000000Y-98054819D02*
X148761905Y-98054819D01*
X150285714Y-98054819D02*
X149714286Y-98054819D01*
X150000000Y-98054819D02*
X150000000Y-97054819D01*
X150000000Y-97054819D02*
X149904762Y-97197676D01*
X149904762Y-97197676D02*
X149809524Y-97292914D01*
X149809524Y-97292914D02*
X149714286Y-97340533D01*
X148459580Y-88180357D02*
X148507200Y-88227976D01*
X148507200Y-88227976D02*
X148554819Y-88370833D01*
X148554819Y-88370833D02*
X148554819Y-88466071D01*
X148554819Y-88466071D02*
X148507200Y-88608928D01*
X148507200Y-88608928D02*
X148411961Y-88704166D01*
X148411961Y-88704166D02*
X148316723Y-88751785D01*
X148316723Y-88751785D02*
X148126247Y-88799404D01*
X148126247Y-88799404D02*
X147983390Y-88799404D01*
X147983390Y-88799404D02*
X147792914Y-88751785D01*
X147792914Y-88751785D02*
X147697676Y-88704166D01*
X147697676Y-88704166D02*
X147602438Y-88608928D01*
X147602438Y-88608928D02*
X147554819Y-88466071D01*
X147554819Y-88466071D02*
X147554819Y-88370833D01*
X147554819Y-88370833D02*
X147602438Y-88227976D01*
X147602438Y-88227976D02*
X147650057Y-88180357D01*
X148554819Y-87227976D02*
X148554819Y-87799404D01*
X148554819Y-87513690D02*
X147554819Y-87513690D01*
X147554819Y-87513690D02*
X147697676Y-87608928D01*
X147697676Y-87608928D02*
X147792914Y-87704166D01*
X147792914Y-87704166D02*
X147840533Y-87799404D01*
X148554819Y-86275595D02*
X148554819Y-86847023D01*
X148554819Y-86561309D02*
X147554819Y-86561309D01*
X147554819Y-86561309D02*
X147697676Y-86656547D01*
X147697676Y-86656547D02*
X147792914Y-86751785D01*
X147792914Y-86751785D02*
X147840533Y-86847023D01*
X130957142Y-94659580D02*
X130909523Y-94707200D01*
X130909523Y-94707200D02*
X130766666Y-94754819D01*
X130766666Y-94754819D02*
X130671428Y-94754819D01*
X130671428Y-94754819D02*
X130528571Y-94707200D01*
X130528571Y-94707200D02*
X130433333Y-94611961D01*
X130433333Y-94611961D02*
X130385714Y-94516723D01*
X130385714Y-94516723D02*
X130338095Y-94326247D01*
X130338095Y-94326247D02*
X130338095Y-94183390D01*
X130338095Y-94183390D02*
X130385714Y-93992914D01*
X130385714Y-93992914D02*
X130433333Y-93897676D01*
X130433333Y-93897676D02*
X130528571Y-93802438D01*
X130528571Y-93802438D02*
X130671428Y-93754819D01*
X130671428Y-93754819D02*
X130766666Y-93754819D01*
X130766666Y-93754819D02*
X130909523Y-93802438D01*
X130909523Y-93802438D02*
X130957142Y-93850057D01*
X131909523Y-94754819D02*
X131338095Y-94754819D01*
X131623809Y-94754819D02*
X131623809Y-93754819D01*
X131623809Y-93754819D02*
X131528571Y-93897676D01*
X131528571Y-93897676D02*
X131433333Y-93992914D01*
X131433333Y-93992914D02*
X131338095Y-94040533D01*
X132290476Y-93850057D02*
X132338095Y-93802438D01*
X132338095Y-93802438D02*
X132433333Y-93754819D01*
X132433333Y-93754819D02*
X132671428Y-93754819D01*
X132671428Y-93754819D02*
X132766666Y-93802438D01*
X132766666Y-93802438D02*
X132814285Y-93850057D01*
X132814285Y-93850057D02*
X132861904Y-93945295D01*
X132861904Y-93945295D02*
X132861904Y-94040533D01*
X132861904Y-94040533D02*
X132814285Y-94183390D01*
X132814285Y-94183390D02*
X132242857Y-94754819D01*
X132242857Y-94754819D02*
X132861904Y-94754819D01*
D12*
X150683990Y-91948938D02*
X150683990Y-92758461D01*
X150683990Y-92758461D02*
X150731609Y-92853699D01*
X150731609Y-92853699D02*
X150779228Y-92901319D01*
X150779228Y-92901319D02*
X150874466Y-92948938D01*
X150874466Y-92948938D02*
X151064942Y-92948938D01*
X151064942Y-92948938D02*
X151160180Y-92901319D01*
X151160180Y-92901319D02*
X151207799Y-92853699D01*
X151207799Y-92853699D02*
X151255418Y-92758461D01*
X151255418Y-92758461D02*
X151255418Y-91948938D01*
X152207799Y-91948938D02*
X151731609Y-91948938D01*
X151731609Y-91948938D02*
X151683990Y-92425128D01*
X151683990Y-92425128D02*
X151731609Y-92377509D01*
X151731609Y-92377509D02*
X151826847Y-92329890D01*
X151826847Y-92329890D02*
X152064942Y-92329890D01*
X152064942Y-92329890D02*
X152160180Y-92377509D01*
X152160180Y-92377509D02*
X152207799Y-92425128D01*
X152207799Y-92425128D02*
X152255418Y-92520366D01*
X152255418Y-92520366D02*
X152255418Y-92758461D01*
X152255418Y-92758461D02*
X152207799Y-92853699D01*
X152207799Y-92853699D02*
X152160180Y-92901319D01*
X152160180Y-92901319D02*
X152064942Y-92948938D01*
X152064942Y-92948938D02*
X151826847Y-92948938D01*
X151826847Y-92948938D02*
X151731609Y-92901319D01*
X151731609Y-92901319D02*
X151683990Y-92853699D01*
D11*
X145624819Y-90779166D02*
X145148628Y-91112499D01*
X145624819Y-91350594D02*
X144624819Y-91350594D01*
X144624819Y-91350594D02*
X144624819Y-90969642D01*
X144624819Y-90969642D02*
X144672438Y-90874404D01*
X144672438Y-90874404D02*
X144720057Y-90826785D01*
X144720057Y-90826785D02*
X144815295Y-90779166D01*
X144815295Y-90779166D02*
X144958152Y-90779166D01*
X144958152Y-90779166D02*
X145053390Y-90826785D01*
X145053390Y-90826785D02*
X145101009Y-90874404D01*
X145101009Y-90874404D02*
X145148628Y-90969642D01*
X145148628Y-90969642D02*
X145148628Y-91350594D01*
X144624819Y-90445832D02*
X144624819Y-89779166D01*
X144624819Y-89779166D02*
X145624819Y-90207737D01*
X151113095Y-103404819D02*
X151113095Y-104214342D01*
X151113095Y-104214342D02*
X151160714Y-104309580D01*
X151160714Y-104309580D02*
X151208333Y-104357200D01*
X151208333Y-104357200D02*
X151303571Y-104404819D01*
X151303571Y-104404819D02*
X151494047Y-104404819D01*
X151494047Y-104404819D02*
X151589285Y-104357200D01*
X151589285Y-104357200D02*
X151636904Y-104309580D01*
X151636904Y-104309580D02*
X151684523Y-104214342D01*
X151684523Y-104214342D02*
X151684523Y-103404819D01*
X152589285Y-103738152D02*
X152589285Y-104404819D01*
X152351190Y-103357200D02*
X152113095Y-104071485D01*
X152113095Y-104071485D02*
X152732142Y-104071485D01*
X128954819Y-94638094D02*
X127954819Y-94638094D01*
X127954819Y-94638094D02*
X127954819Y-94399999D01*
X127954819Y-94399999D02*
X128002438Y-94257142D01*
X128002438Y-94257142D02*
X128097676Y-94161904D01*
X128097676Y-94161904D02*
X128192914Y-94114285D01*
X128192914Y-94114285D02*
X128383390Y-94066666D01*
X128383390Y-94066666D02*
X128526247Y-94066666D01*
X128526247Y-94066666D02*
X128716723Y-94114285D01*
X128716723Y-94114285D02*
X128811961Y-94161904D01*
X128811961Y-94161904D02*
X128907200Y-94257142D01*
X128907200Y-94257142D02*
X128954819Y-94399999D01*
X128954819Y-94399999D02*
X128954819Y-94638094D01*
X128050057Y-93685713D02*
X128002438Y-93638094D01*
X128002438Y-93638094D02*
X127954819Y-93542856D01*
X127954819Y-93542856D02*
X127954819Y-93304761D01*
X127954819Y-93304761D02*
X128002438Y-93209523D01*
X128002438Y-93209523D02*
X128050057Y-93161904D01*
X128050057Y-93161904D02*
X128145295Y-93114285D01*
X128145295Y-93114285D02*
X128240533Y-93114285D01*
X128240533Y-93114285D02*
X128383390Y-93161904D01*
X128383390Y-93161904D02*
X128954819Y-93733332D01*
X128954819Y-93733332D02*
X128954819Y-93114285D01*
X147754819Y-99866666D02*
X147278628Y-100199999D01*
X147754819Y-100438094D02*
X146754819Y-100438094D01*
X146754819Y-100438094D02*
X146754819Y-100057142D01*
X146754819Y-100057142D02*
X146802438Y-99961904D01*
X146802438Y-99961904D02*
X146850057Y-99914285D01*
X146850057Y-99914285D02*
X146945295Y-99866666D01*
X146945295Y-99866666D02*
X147088152Y-99866666D01*
X147088152Y-99866666D02*
X147183390Y-99914285D01*
X147183390Y-99914285D02*
X147231009Y-99961904D01*
X147231009Y-99961904D02*
X147278628Y-100057142D01*
X147278628Y-100057142D02*
X147278628Y-100438094D01*
X146754819Y-99009523D02*
X146754819Y-99199999D01*
X146754819Y-99199999D02*
X146802438Y-99295237D01*
X146802438Y-99295237D02*
X146850057Y-99342856D01*
X146850057Y-99342856D02*
X146992914Y-99438094D01*
X146992914Y-99438094D02*
X147183390Y-99485713D01*
X147183390Y-99485713D02*
X147564342Y-99485713D01*
X147564342Y-99485713D02*
X147659580Y-99438094D01*
X147659580Y-99438094D02*
X147707200Y-99390475D01*
X147707200Y-99390475D02*
X147754819Y-99295237D01*
X147754819Y-99295237D02*
X147754819Y-99104761D01*
X147754819Y-99104761D02*
X147707200Y-99009523D01*
X147707200Y-99009523D02*
X147659580Y-98961904D01*
X147659580Y-98961904D02*
X147564342Y-98914285D01*
X147564342Y-98914285D02*
X147326247Y-98914285D01*
X147326247Y-98914285D02*
X147231009Y-98961904D01*
X147231009Y-98961904D02*
X147183390Y-99009523D01*
X147183390Y-99009523D02*
X147135771Y-99104761D01*
X147135771Y-99104761D02*
X147135771Y-99295237D01*
X147135771Y-99295237D02*
X147183390Y-99390475D01*
X147183390Y-99390475D02*
X147231009Y-99438094D01*
X147231009Y-99438094D02*
X147326247Y-99485713D01*
X160033333Y-106559580D02*
X159985714Y-106607200D01*
X159985714Y-106607200D02*
X159842857Y-106654819D01*
X159842857Y-106654819D02*
X159747619Y-106654819D01*
X159747619Y-106654819D02*
X159604762Y-106607200D01*
X159604762Y-106607200D02*
X159509524Y-106511961D01*
X159509524Y-106511961D02*
X159461905Y-106416723D01*
X159461905Y-106416723D02*
X159414286Y-106226247D01*
X159414286Y-106226247D02*
X159414286Y-106083390D01*
X159414286Y-106083390D02*
X159461905Y-105892914D01*
X159461905Y-105892914D02*
X159509524Y-105797676D01*
X159509524Y-105797676D02*
X159604762Y-105702438D01*
X159604762Y-105702438D02*
X159747619Y-105654819D01*
X159747619Y-105654819D02*
X159842857Y-105654819D01*
X159842857Y-105654819D02*
X159985714Y-105702438D01*
X159985714Y-105702438D02*
X160033333Y-105750057D01*
X160366667Y-105654819D02*
X160985714Y-105654819D01*
X160985714Y-105654819D02*
X160652381Y-106035771D01*
X160652381Y-106035771D02*
X160795238Y-106035771D01*
X160795238Y-106035771D02*
X160890476Y-106083390D01*
X160890476Y-106083390D02*
X160938095Y-106131009D01*
X160938095Y-106131009D02*
X160985714Y-106226247D01*
X160985714Y-106226247D02*
X160985714Y-106464342D01*
X160985714Y-106464342D02*
X160938095Y-106559580D01*
X160938095Y-106559580D02*
X160890476Y-106607200D01*
X160890476Y-106607200D02*
X160795238Y-106654819D01*
X160795238Y-106654819D02*
X160509524Y-106654819D01*
X160509524Y-106654819D02*
X160414286Y-106607200D01*
X160414286Y-106607200D02*
X160366667Y-106559580D01*
X128754819Y-90466666D02*
X128278628Y-90799999D01*
X128754819Y-91038094D02*
X127754819Y-91038094D01*
X127754819Y-91038094D02*
X127754819Y-90657142D01*
X127754819Y-90657142D02*
X127802438Y-90561904D01*
X127802438Y-90561904D02*
X127850057Y-90514285D01*
X127850057Y-90514285D02*
X127945295Y-90466666D01*
X127945295Y-90466666D02*
X128088152Y-90466666D01*
X128088152Y-90466666D02*
X128183390Y-90514285D01*
X128183390Y-90514285D02*
X128231009Y-90561904D01*
X128231009Y-90561904D02*
X128278628Y-90657142D01*
X128278628Y-90657142D02*
X128278628Y-91038094D01*
X127850057Y-90085713D02*
X127802438Y-90038094D01*
X127802438Y-90038094D02*
X127754819Y-89942856D01*
X127754819Y-89942856D02*
X127754819Y-89704761D01*
X127754819Y-89704761D02*
X127802438Y-89609523D01*
X127802438Y-89609523D02*
X127850057Y-89561904D01*
X127850057Y-89561904D02*
X127945295Y-89514285D01*
X127945295Y-89514285D02*
X128040533Y-89514285D01*
X128040533Y-89514285D02*
X128183390Y-89561904D01*
X128183390Y-89561904D02*
X128754819Y-90133332D01*
X128754819Y-90133332D02*
X128754819Y-89514285D01*
X134838095Y-87854819D02*
X134838095Y-88664342D01*
X134838095Y-88664342D02*
X134885714Y-88759580D01*
X134885714Y-88759580D02*
X134933333Y-88807200D01*
X134933333Y-88807200D02*
X135028571Y-88854819D01*
X135028571Y-88854819D02*
X135219047Y-88854819D01*
X135219047Y-88854819D02*
X135314285Y-88807200D01*
X135314285Y-88807200D02*
X135361904Y-88759580D01*
X135361904Y-88759580D02*
X135409523Y-88664342D01*
X135409523Y-88664342D02*
X135409523Y-87854819D01*
X135838095Y-87950057D02*
X135885714Y-87902438D01*
X135885714Y-87902438D02*
X135980952Y-87854819D01*
X135980952Y-87854819D02*
X136219047Y-87854819D01*
X136219047Y-87854819D02*
X136314285Y-87902438D01*
X136314285Y-87902438D02*
X136361904Y-87950057D01*
X136361904Y-87950057D02*
X136409523Y-88045295D01*
X136409523Y-88045295D02*
X136409523Y-88140533D01*
X136409523Y-88140533D02*
X136361904Y-88283390D01*
X136361904Y-88283390D02*
X135790476Y-88854819D01*
X135790476Y-88854819D02*
X136409523Y-88854819D01*
X143461905Y-93354819D02*
X143461905Y-92354819D01*
X143461905Y-92354819D02*
X143700000Y-92354819D01*
X143700000Y-92354819D02*
X143842857Y-92402438D01*
X143842857Y-92402438D02*
X143938095Y-92497676D01*
X143938095Y-92497676D02*
X143985714Y-92592914D01*
X143985714Y-92592914D02*
X144033333Y-92783390D01*
X144033333Y-92783390D02*
X144033333Y-92926247D01*
X144033333Y-92926247D02*
X143985714Y-93116723D01*
X143985714Y-93116723D02*
X143938095Y-93211961D01*
X143938095Y-93211961D02*
X143842857Y-93307200D01*
X143842857Y-93307200D02*
X143700000Y-93354819D01*
X143700000Y-93354819D02*
X143461905Y-93354819D01*
X144366667Y-92354819D02*
X144985714Y-92354819D01*
X144985714Y-92354819D02*
X144652381Y-92735771D01*
X144652381Y-92735771D02*
X144795238Y-92735771D01*
X144795238Y-92735771D02*
X144890476Y-92783390D01*
X144890476Y-92783390D02*
X144938095Y-92831009D01*
X144938095Y-92831009D02*
X144985714Y-92926247D01*
X144985714Y-92926247D02*
X144985714Y-93164342D01*
X144985714Y-93164342D02*
X144938095Y-93259580D01*
X144938095Y-93259580D02*
X144890476Y-93307200D01*
X144890476Y-93307200D02*
X144795238Y-93354819D01*
X144795238Y-93354819D02*
X144509524Y-93354819D01*
X144509524Y-93354819D02*
X144414286Y-93307200D01*
X144414286Y-93307200D02*
X144366667Y-93259580D01*
X139929580Y-88142857D02*
X139977200Y-88190476D01*
X139977200Y-88190476D02*
X140024819Y-88333333D01*
X140024819Y-88333333D02*
X140024819Y-88428571D01*
X140024819Y-88428571D02*
X139977200Y-88571428D01*
X139977200Y-88571428D02*
X139881961Y-88666666D01*
X139881961Y-88666666D02*
X139786723Y-88714285D01*
X139786723Y-88714285D02*
X139596247Y-88761904D01*
X139596247Y-88761904D02*
X139453390Y-88761904D01*
X139453390Y-88761904D02*
X139262914Y-88714285D01*
X139262914Y-88714285D02*
X139167676Y-88666666D01*
X139167676Y-88666666D02*
X139072438Y-88571428D01*
X139072438Y-88571428D02*
X139024819Y-88428571D01*
X139024819Y-88428571D02*
X139024819Y-88333333D01*
X139024819Y-88333333D02*
X139072438Y-88190476D01*
X139072438Y-88190476D02*
X139120057Y-88142857D01*
X140024819Y-87190476D02*
X140024819Y-87761904D01*
X140024819Y-87476190D02*
X139024819Y-87476190D01*
X139024819Y-87476190D02*
X139167676Y-87571428D01*
X139167676Y-87571428D02*
X139262914Y-87666666D01*
X139262914Y-87666666D02*
X139310533Y-87761904D01*
X139024819Y-86857142D02*
X139024819Y-86238095D01*
X139024819Y-86238095D02*
X139405771Y-86571428D01*
X139405771Y-86571428D02*
X139405771Y-86428571D01*
X139405771Y-86428571D02*
X139453390Y-86333333D01*
X139453390Y-86333333D02*
X139501009Y-86285714D01*
X139501009Y-86285714D02*
X139596247Y-86238095D01*
X139596247Y-86238095D02*
X139834342Y-86238095D01*
X139834342Y-86238095D02*
X139929580Y-86285714D01*
X139929580Y-86285714D02*
X139977200Y-86333333D01*
X139977200Y-86333333D02*
X140024819Y-86428571D01*
X140024819Y-86428571D02*
X140024819Y-86714285D01*
X140024819Y-86714285D02*
X139977200Y-86809523D01*
X139977200Y-86809523D02*
X139929580Y-86857142D01*
X153933333Y-88454819D02*
X153600000Y-87978628D01*
X153361905Y-88454819D02*
X153361905Y-87454819D01*
X153361905Y-87454819D02*
X153742857Y-87454819D01*
X153742857Y-87454819D02*
X153838095Y-87502438D01*
X153838095Y-87502438D02*
X153885714Y-87550057D01*
X153885714Y-87550057D02*
X153933333Y-87645295D01*
X153933333Y-87645295D02*
X153933333Y-87788152D01*
X153933333Y-87788152D02*
X153885714Y-87883390D01*
X153885714Y-87883390D02*
X153838095Y-87931009D01*
X153838095Y-87931009D02*
X153742857Y-87978628D01*
X153742857Y-87978628D02*
X153361905Y-87978628D01*
X154266667Y-87454819D02*
X154885714Y-87454819D01*
X154885714Y-87454819D02*
X154552381Y-87835771D01*
X154552381Y-87835771D02*
X154695238Y-87835771D01*
X154695238Y-87835771D02*
X154790476Y-87883390D01*
X154790476Y-87883390D02*
X154838095Y-87931009D01*
X154838095Y-87931009D02*
X154885714Y-88026247D01*
X154885714Y-88026247D02*
X154885714Y-88264342D01*
X154885714Y-88264342D02*
X154838095Y-88359580D01*
X154838095Y-88359580D02*
X154790476Y-88407200D01*
X154790476Y-88407200D02*
X154695238Y-88454819D01*
X154695238Y-88454819D02*
X154409524Y-88454819D01*
X154409524Y-88454819D02*
X154314286Y-88407200D01*
X154314286Y-88407200D02*
X154266667Y-88359580D01*
X158554819Y-110066666D02*
X158078628Y-110399999D01*
X158554819Y-110638094D02*
X157554819Y-110638094D01*
X157554819Y-110638094D02*
X157554819Y-110257142D01*
X157554819Y-110257142D02*
X157602438Y-110161904D01*
X157602438Y-110161904D02*
X157650057Y-110114285D01*
X157650057Y-110114285D02*
X157745295Y-110066666D01*
X157745295Y-110066666D02*
X157888152Y-110066666D01*
X157888152Y-110066666D02*
X157983390Y-110114285D01*
X157983390Y-110114285D02*
X158031009Y-110161904D01*
X158031009Y-110161904D02*
X158078628Y-110257142D01*
X158078628Y-110257142D02*
X158078628Y-110638094D01*
X157554819Y-109161904D02*
X157554819Y-109638094D01*
X157554819Y-109638094D02*
X158031009Y-109685713D01*
X158031009Y-109685713D02*
X157983390Y-109638094D01*
X157983390Y-109638094D02*
X157935771Y-109542856D01*
X157935771Y-109542856D02*
X157935771Y-109304761D01*
X157935771Y-109304761D02*
X157983390Y-109209523D01*
X157983390Y-109209523D02*
X158031009Y-109161904D01*
X158031009Y-109161904D02*
X158126247Y-109114285D01*
X158126247Y-109114285D02*
X158364342Y-109114285D01*
X158364342Y-109114285D02*
X158459580Y-109161904D01*
X158459580Y-109161904D02*
X158507200Y-109209523D01*
X158507200Y-109209523D02*
X158554819Y-109304761D01*
X158554819Y-109304761D02*
X158554819Y-109542856D01*
X158554819Y-109542856D02*
X158507200Y-109638094D01*
X158507200Y-109638094D02*
X158459580Y-109685713D01*
D13*
%TO.C,J9*%
X158995000Y-114030000D02*
X158995000Y-112700000D01*
X160325000Y-114030000D02*
X158995000Y-114030000D01*
X161595000Y-111370000D02*
X164195000Y-111370000D01*
X161595000Y-114030000D02*
X161595000Y-111370000D01*
X161595000Y-114030000D02*
X164195000Y-114030000D01*
X164195000Y-114030000D02*
X164195000Y-111370000D01*
%TO.C,J5*%
X147550000Y-111370000D02*
X147550000Y-114030000D01*
X155230000Y-111370000D02*
X147550000Y-111370000D01*
X155230000Y-111370000D02*
X155230000Y-114030000D01*
X155230000Y-114030000D02*
X147550000Y-114030000D01*
X156500000Y-111370000D02*
X157830000Y-111370000D01*
X157830000Y-111370000D02*
X157830000Y-112700000D01*
%TO.C,D1*%
X145700000Y-98560000D02*
X148560000Y-98560000D01*
X148560000Y-96640000D02*
X145700000Y-96640000D01*
X148560000Y-98560000D02*
X148560000Y-96640000D01*
%TO.C,C11*%
X147690000Y-90453733D02*
X147690000Y-90746267D01*
X148710000Y-90453733D02*
X148710000Y-90746267D01*
%TO.C,J10*%
X126070000Y-99630000D02*
X126070000Y-97030000D01*
X128730000Y-97030000D02*
X126070000Y-97030000D01*
X128730000Y-99630000D02*
X126070000Y-99630000D01*
X128730000Y-99630000D02*
X128730000Y-97030000D01*
X128730000Y-100900000D02*
X128730000Y-102230000D01*
X128730000Y-102230000D02*
X127400000Y-102230000D01*
%TO.C,J4*%
X125630000Y-105410000D02*
X146210000Y-105410000D01*
X125630000Y-114530000D02*
X125630000Y-105410000D01*
X126930000Y-106720000D02*
X144910000Y-106720000D01*
X126930000Y-113220000D02*
X126930000Y-106720000D01*
X130340000Y-115920000D02*
X131340000Y-115920000D01*
X130840000Y-114920000D02*
X130340000Y-115920000D01*
X131340000Y-115920000D02*
X130840000Y-114920000D01*
X133870000Y-113220000D02*
X126930000Y-113220000D01*
X133870000Y-114530000D02*
X133870000Y-113220000D01*
X137970000Y-113220000D02*
X137970000Y-113220000D01*
X137970000Y-113220000D02*
X137970000Y-114530000D01*
X144910000Y-106720000D02*
X144910000Y-113220000D01*
X144910000Y-113220000D02*
X137970000Y-113220000D01*
X146210000Y-105410000D02*
X146210000Y-114530000D01*
X146210000Y-114530000D02*
X125630000Y-114530000D01*
%TO.C,C12*%
X131683767Y-92290000D02*
X131391233Y-92290000D01*
X131683767Y-93310000D02*
X131391233Y-93310000D01*
D14*
%TO.C,U5*%
X150040200Y-93690600D02*
G75*
G02*
X149753000Y-93690600I-143600J0D01*
G01*
X149753000Y-93690600D02*
G75*
G02*
X150040200Y-93690600I143600J0D01*
G01*
D13*
%TO.C,R7*%
X146077500Y-90867224D02*
X146077500Y-90357776D01*
X147122500Y-90867224D02*
X147122500Y-90357776D01*
%TO.C,U4*%
X148265000Y-100340000D02*
X148265000Y-100790000D01*
X148265000Y-107560000D02*
X148265000Y-107110000D01*
X148715000Y-100340000D02*
X148265000Y-100340000D01*
X148715000Y-107560000D02*
X148265000Y-107560000D01*
X155035000Y-100340000D02*
X155485000Y-100340000D01*
X155035000Y-107560000D02*
X155485000Y-107560000D01*
X155485000Y-100340000D02*
X155485000Y-100790000D01*
X155485000Y-107560000D02*
X155485000Y-107110000D01*
X156415000Y-107580000D02*
X155735000Y-107580000D01*
X156075000Y-107110000D01*
X156415000Y-107580000D01*
G36*
X156415000Y-107580000D02*
G01*
X155735000Y-107580000D01*
X156075000Y-107110000D01*
X156415000Y-107580000D01*
G37*
%TO.C,J11*%
X171370000Y-94505000D02*
X171370000Y-91905000D01*
X174030000Y-91905000D02*
X171370000Y-91905000D01*
X174030000Y-94505000D02*
X171370000Y-94505000D01*
X174030000Y-94505000D02*
X174030000Y-91905000D01*
X174030000Y-95775000D02*
X174030000Y-97105000D01*
X174030000Y-97105000D02*
X172700000Y-97105000D01*
%TO.C,TP2*%
X147450000Y-84600000D02*
G75*
G02*
X142950000Y-84600000I-2250000J0D01*
G01*
X142950000Y-84600000D02*
G75*
G02*
X147450000Y-84600000I2250000J0D01*
G01*
%TO.C,D2*%
X125640000Y-92800000D02*
X125640000Y-95660000D01*
X125640000Y-95660000D02*
X127560000Y-95660000D01*
X127560000Y-95660000D02*
X127560000Y-92800000D01*
%TO.C,R6*%
X145277500Y-100145276D02*
X145277500Y-100654724D01*
X146322500Y-100145276D02*
X146322500Y-100654724D01*
D15*
%TO.C,J1*%
X134800200Y-92578600D02*
X134800200Y-104821400D01*
X134800200Y-104821400D02*
X140058000Y-104821400D01*
X140058000Y-92578600D02*
X134800200Y-92578600D01*
X140058000Y-104821400D02*
X140058000Y-92578600D01*
X162271101Y-92578600D02*
X162271101Y-104821400D01*
X162271101Y-104821400D02*
X167528901Y-104821400D01*
X167528901Y-92578600D02*
X162271101Y-92578600D01*
X167528901Y-104821400D02*
X167528901Y-92578600D01*
D16*
X138810100Y-91943600D02*
G75*
G02*
X138048100Y-91943600I-381000J0D01*
G01*
X138048100Y-91943600D02*
G75*
G02*
X138810100Y-91943600I381000J0D01*
G01*
X166281001Y-91943600D02*
G75*
G02*
X165519001Y-91943600I-381000J0D01*
G01*
X165519001Y-91943600D02*
G75*
G02*
X166281001Y-91943600I381000J0D01*
G01*
D15*
%TO.C,SW1*%
X158257900Y-98664750D02*
X158257900Y-104913150D01*
X158257900Y-104913150D02*
X159309460Y-104913150D01*
X159309460Y-98664750D02*
X158257900Y-98664750D01*
X160965540Y-104913150D02*
X162017100Y-104913150D01*
X162017100Y-98664750D02*
X160965540Y-98664750D01*
X162017100Y-104913150D02*
X162017100Y-98664750D01*
X160213700Y-97229650D02*
G75*
G02*
X160061300Y-97229650I-76200J0D01*
G01*
X160061300Y-97229650D02*
G75*
G02*
X160213700Y-97229650I76200J0D01*
G01*
D13*
%TO.C,J3*%
X171370000Y-98195000D02*
X172700000Y-98195000D01*
X171370000Y-99525000D02*
X171370000Y-98195000D01*
X171370000Y-100795000D02*
X171370000Y-103395000D01*
X171370000Y-100795000D02*
X174030000Y-100795000D01*
X171370000Y-103395000D02*
X174030000Y-103395000D01*
X174030000Y-100795000D02*
X174030000Y-103395000D01*
%TO.C,C3*%
X160328733Y-107190000D02*
X160621267Y-107190000D01*
X160328733Y-108210000D02*
X160621267Y-108210000D01*
%TO.C,J6*%
X141470000Y-94170000D02*
X142800000Y-94170000D01*
X141470000Y-95500000D02*
X141470000Y-94170000D01*
X141470000Y-96770000D02*
X141470000Y-104450000D01*
X141470000Y-96770000D02*
X144130000Y-96770000D01*
X141470000Y-104450000D02*
X144130000Y-104450000D01*
X144130000Y-96770000D02*
X144130000Y-104450000D01*
%TO.C,R2*%
X126277500Y-90454724D02*
X126277500Y-89945276D01*
X127322500Y-90454724D02*
X127322500Y-89945276D01*
%TO.C,U2*%
X133750000Y-84990000D02*
X137510000Y-84990000D01*
X133750000Y-91810000D02*
X137510000Y-91810000D01*
X137510000Y-84990000D02*
X137510000Y-86250000D01*
X137510000Y-91810000D02*
X137510000Y-90550000D01*
X132470000Y-85090000D02*
X132230000Y-84760000D01*
X132710000Y-84760000D01*
X132470000Y-85090000D01*
G36*
X132470000Y-85090000D02*
G01*
X132230000Y-84760000D01*
X132710000Y-84760000D01*
X132470000Y-85090000D01*
G37*
%TO.C,D3*%
X146075000Y-94460000D02*
X148935000Y-94460000D01*
X148935000Y-92540000D02*
X146075000Y-92540000D01*
X148935000Y-94460000D02*
X148935000Y-92540000D01*
%TO.C,C13*%
X140490000Y-87646267D02*
X140490000Y-87353733D01*
X141510000Y-87646267D02*
X141510000Y-87353733D01*
%TO.C,R3*%
X151232776Y-87377500D02*
X151742224Y-87377500D01*
X151232776Y-88422500D02*
X151742224Y-88422500D01*
%TO.C,R5*%
X157515000Y-107057776D02*
X157515000Y-107567224D01*
X158560000Y-107057776D02*
X158560000Y-107567224D01*
%TO.C,J8*%
X149170000Y-85230000D02*
X149170000Y-83900000D01*
X150500000Y-85230000D02*
X149170000Y-85230000D01*
X151770000Y-82570000D02*
X154370000Y-82570000D01*
X151770000Y-85230000D02*
X151770000Y-82570000D01*
X151770000Y-85230000D02*
X154370000Y-85230000D01*
X154370000Y-85230000D02*
X154370000Y-82570000D01*
%TO.C,TP1*%
X173950000Y-111800000D02*
G75*
G02*
X169450000Y-111800000I-2250000J0D01*
G01*
X169450000Y-111800000D02*
G75*
G02*
X173950000Y-111800000I2250000J0D01*
G01*
%TO.C,TP3*%
X130650000Y-85300000D02*
G75*
G02*
X126150000Y-85300000I-2250000J0D01*
G01*
X126150000Y-85300000D02*
G75*
G02*
X130650000Y-85300000I2250000J0D01*
G01*
%TO.C,J7*%
X155970000Y-89670000D02*
X157300000Y-89670000D01*
X155970000Y-91000000D02*
X155970000Y-89670000D01*
X155970000Y-92270000D02*
X155970000Y-97410000D01*
X155970000Y-92270000D02*
X158630000Y-92270000D01*
X155970000Y-97410000D02*
X158630000Y-97410000D01*
X158630000Y-92270000D02*
X158630000Y-97410000D01*
%TD*%
%LPC*%
D17*
%TO.C,J9*%
X160325000Y-112700000D03*
D18*
X162865000Y-112700000D03*
%TD*%
D17*
%TO.C,J5*%
X156500000Y-112700000D03*
D18*
X153960000Y-112700000D03*
X151420000Y-112700000D03*
X148880000Y-112700000D03*
%TD*%
D19*
%TO.C,D1*%
X147725000Y-97600000D03*
X145675000Y-97600000D03*
%TD*%
D20*
%TO.C,C11*%
X148200000Y-89737500D03*
X148200000Y-91462500D03*
%TD*%
D17*
%TO.C,J10*%
X127400000Y-100900000D03*
D18*
X127400000Y-98360000D03*
%TD*%
D21*
%TO.C,J4*%
X130840000Y-111240000D03*
D22*
X130840000Y-108700000D03*
X133380000Y-111240000D03*
X133380000Y-108700000D03*
X135920000Y-111240000D03*
X135920000Y-108700000D03*
X138460000Y-111240000D03*
X138460000Y-108700000D03*
X141000000Y-111240000D03*
X141000000Y-108700000D03*
%TD*%
D23*
%TO.C,C12*%
X132400000Y-92800000D03*
X130675000Y-92800000D03*
%TD*%
D24*
%TO.C,U5*%
X149795000Y-95316200D03*
X151065000Y-95316200D03*
X152335000Y-95316200D03*
X153605000Y-95316200D03*
X153605000Y-90083800D03*
X152335000Y-90083800D03*
X151065000Y-90083800D03*
X149795000Y-90083800D03*
%TD*%
D25*
%TO.C,R7*%
X146600000Y-91525000D03*
X146600000Y-89700000D03*
%TD*%
D26*
%TO.C,U4*%
X156037500Y-106700000D03*
X156037500Y-106200000D03*
X156037500Y-105700000D03*
X156037500Y-105200000D03*
X156037500Y-104700000D03*
X156037500Y-104200000D03*
X156037500Y-103700000D03*
X156037500Y-103200000D03*
X156037500Y-102700000D03*
X156037500Y-102200000D03*
X156037500Y-101700000D03*
X156037500Y-101200000D03*
D27*
X154625000Y-99787500D03*
X154125000Y-99787500D03*
X153625000Y-99787500D03*
X153125000Y-99787500D03*
X152625000Y-99787500D03*
X152125000Y-99787500D03*
X151625000Y-99787500D03*
X151125000Y-99787500D03*
X150625000Y-99787500D03*
X150125000Y-99787500D03*
X149625000Y-99787500D03*
X149125000Y-99787500D03*
D26*
X147712500Y-101200000D03*
X147712500Y-101700000D03*
X147712500Y-102200000D03*
X147712500Y-102700000D03*
X147712500Y-103200000D03*
X147712500Y-103700000D03*
X147712500Y-104200000D03*
X147712500Y-104700000D03*
X147712500Y-105200000D03*
X147712500Y-105700000D03*
X147712500Y-106200000D03*
X147712500Y-106700000D03*
D27*
X149125000Y-108112500D03*
X149625000Y-108112500D03*
X150125000Y-108112500D03*
X150625000Y-108112500D03*
X151125000Y-108112500D03*
X151625000Y-108112500D03*
X152125000Y-108112500D03*
X152625000Y-108112500D03*
X153125000Y-108112500D03*
X153625000Y-108112500D03*
X154125000Y-108112500D03*
X154625000Y-108112500D03*
%TD*%
D17*
%TO.C,J11*%
X172700000Y-95775000D03*
D18*
X172700000Y-93235000D03*
%TD*%
D28*
%TO.C,TP2*%
X145200000Y-84600000D03*
%TD*%
D29*
%TO.C,D2*%
X126600000Y-94825000D03*
X126600000Y-92775000D03*
%TD*%
D30*
%TO.C,R6*%
X145800000Y-99487500D03*
X145800000Y-101312500D03*
%TD*%
D31*
%TO.C,J1*%
X138429100Y-94700000D03*
X136429099Y-94700000D03*
X138429100Y-96699999D03*
X136429099Y-96699999D03*
X138429100Y-98700000D03*
X136429099Y-98700000D03*
X138429100Y-100700001D03*
X136429099Y-100700001D03*
X138429100Y-102699999D03*
X136429099Y-102699999D03*
X165900001Y-94700000D03*
X163900000Y-94700000D03*
X165900001Y-96699999D03*
X163900000Y-96699999D03*
X165900001Y-98700000D03*
X163900000Y-98700000D03*
X165900001Y-100700001D03*
X163900000Y-100700001D03*
X165900001Y-102699999D03*
X163900000Y-102699999D03*
%TD*%
D32*
%TO.C,SW1*%
X160137500Y-99439450D03*
X160137500Y-104138450D03*
%TD*%
D17*
%TO.C,J3*%
X172700000Y-99525000D03*
D18*
X172700000Y-102065000D03*
%TD*%
D33*
%TO.C,C3*%
X159612500Y-107700000D03*
X161337500Y-107700000D03*
%TD*%
D17*
%TO.C,J6*%
X142800000Y-95500000D03*
D18*
X142800000Y-98040000D03*
X142800000Y-100580000D03*
X142800000Y-103120000D03*
%TD*%
D25*
%TO.C,R2*%
X126800000Y-91112500D03*
X126800000Y-89287500D03*
%TD*%
D34*
%TO.C,U2*%
X132450000Y-86100000D03*
X132450000Y-88400000D03*
D35*
X138750000Y-88400000D03*
D34*
X132450000Y-90700000D03*
%TD*%
D19*
%TO.C,D3*%
X148100000Y-93500000D03*
X146050000Y-93500000D03*
%TD*%
D36*
%TO.C,C13*%
X141000000Y-88362500D03*
X141000000Y-86637500D03*
%TD*%
D37*
%TO.C,R3*%
X150575000Y-87900000D03*
X152400000Y-87900000D03*
%TD*%
D30*
%TO.C,R5*%
X158037500Y-106400000D03*
X158037500Y-108225000D03*
%TD*%
D17*
%TO.C,J8*%
X150500000Y-83900000D03*
D18*
X153040000Y-83900000D03*
%TD*%
D28*
%TO.C,TP1*%
X171700000Y-111800000D03*
%TD*%
%TO.C,TP3*%
X128400000Y-85300000D03*
%TD*%
D17*
%TO.C,J7*%
X157300000Y-91000000D03*
D18*
X157300000Y-93540000D03*
X157300000Y-96080000D03*
%TD*%
%LPD*%
M02*
