%TF.GenerationSoftware,KiCad,Pcbnew,8.0.4*%
%TF.CreationDate,2025-01-10T13:20:37-08:00*%
%TF.ProjectId,X17-ESC-Controller,5831372d-4553-4432-9d43-6f6e74726f6c,rev?*%
%TF.SameCoordinates,Original*%
%TF.FileFunction,Legend,Bot*%
%TF.FilePolarity,Positive*%
%FSLAX46Y46*%
G04 Gerber Fmt 4.6, Leading zero omitted, Abs format (unit mm)*
G04 Created by KiCad (PCBNEW 8.0.4) date 2025-01-10 13:20:37*
%MOMM*%
%LPD*%
G01*
G04 APERTURE LIST*
G04 Aperture macros list*
%AMRoundRect*
0 Rectangle with rounded corners*
0 $1 Rounding radius*
0 $2 $3 $4 $5 $6 $7 $8 $9 X,Y pos of 4 corners*
0 Add a 4 corners polygon primitive as box body*
4,1,4,$2,$3,$4,$5,$6,$7,$8,$9,$2,$3,0*
0 Add four circle primitives for the rounded corners*
1,1,$1+$1,$2,$3*
1,1,$1+$1,$4,$5*
1,1,$1+$1,$6,$7*
1,1,$1+$1,$8,$9*
0 Add four rect primitives between the rounded corners*
20,1,$1+$1,$2,$3,$4,$5,0*
20,1,$1+$1,$4,$5,$6,$7,0*
20,1,$1+$1,$6,$7,$8,$9,0*
20,1,$1+$1,$8,$9,$2,$3,0*%
G04 Aperture macros list end*
%ADD10C,0.100000*%
%ADD11C,0.150000*%
%ADD12C,0.508000*%
%ADD13C,0.120000*%
%ADD14R,1.700000X1.700000*%
%ADD15O,1.700000X1.700000*%
%ADD16RoundRect,0.250000X0.600000X-0.600000X0.600000X0.600000X-0.600000X0.600000X-0.600000X-0.600000X0*%
%ADD17C,1.700000*%
%ADD18C,1.270000*%
%ADD19RoundRect,0.237500X0.250000X0.237500X-0.250000X0.237500X-0.250000X-0.237500X0.250000X-0.237500X0*%
%ADD20RoundRect,0.112500X0.637500X-0.112500X0.637500X0.112500X-0.637500X0.112500X-0.637500X-0.112500X0*%
%ADD21RoundRect,0.237500X-0.237500X0.300000X-0.237500X-0.300000X0.237500X-0.300000X0.237500X0.300000X0*%
%ADD22RoundRect,0.237500X0.237500X-0.300000X0.237500X0.300000X-0.237500X0.300000X-0.237500X-0.300000X0*%
%ADD23RoundRect,0.237500X-0.300000X-0.237500X0.300000X-0.237500X0.300000X0.237500X-0.300000X0.237500X0*%
%ADD24RoundRect,0.237500X0.300000X0.237500X-0.300000X0.237500X-0.300000X-0.237500X0.300000X-0.237500X0*%
%ADD25RoundRect,0.237500X-0.250000X-0.237500X0.250000X-0.237500X0.250000X0.237500X-0.250000X0.237500X0*%
G04 APERTURE END LIST*
D10*
X156300000Y-82600000D02*
X174400000Y-82600000D01*
X174400000Y-87700000D01*
X156300000Y-87700000D01*
X156300000Y-82600000D01*
G36*
X156300000Y-82600000D02*
G01*
X174400000Y-82600000D01*
X174400000Y-87700000D01*
X156300000Y-87700000D01*
X156300000Y-82600000D01*
G37*
D11*
X146266666Y-86954819D02*
X146599999Y-86478628D01*
X146838094Y-86954819D02*
X146838094Y-85954819D01*
X146838094Y-85954819D02*
X146457142Y-85954819D01*
X146457142Y-85954819D02*
X146361904Y-86002438D01*
X146361904Y-86002438D02*
X146314285Y-86050057D01*
X146314285Y-86050057D02*
X146266666Y-86145295D01*
X146266666Y-86145295D02*
X146266666Y-86288152D01*
X146266666Y-86288152D02*
X146314285Y-86383390D01*
X146314285Y-86383390D02*
X146361904Y-86431009D01*
X146361904Y-86431009D02*
X146457142Y-86478628D01*
X146457142Y-86478628D02*
X146838094Y-86478628D01*
X145314285Y-86954819D02*
X145885713Y-86954819D01*
X145599999Y-86954819D02*
X145599999Y-85954819D01*
X145599999Y-85954819D02*
X145695237Y-86097676D01*
X145695237Y-86097676D02*
X145790475Y-86192914D01*
X145790475Y-86192914D02*
X145885713Y-86240533D01*
X160161904Y-106454819D02*
X160161904Y-107264342D01*
X160161904Y-107264342D02*
X160114285Y-107359580D01*
X160114285Y-107359580D02*
X160066666Y-107407200D01*
X160066666Y-107407200D02*
X159971428Y-107454819D01*
X159971428Y-107454819D02*
X159780952Y-107454819D01*
X159780952Y-107454819D02*
X159685714Y-107407200D01*
X159685714Y-107407200D02*
X159638095Y-107359580D01*
X159638095Y-107359580D02*
X159590476Y-107264342D01*
X159590476Y-107264342D02*
X159590476Y-106454819D01*
X159209523Y-106454819D02*
X158590476Y-106454819D01*
X158590476Y-106454819D02*
X158923809Y-106835771D01*
X158923809Y-106835771D02*
X158780952Y-106835771D01*
X158780952Y-106835771D02*
X158685714Y-106883390D01*
X158685714Y-106883390D02*
X158638095Y-106931009D01*
X158638095Y-106931009D02*
X158590476Y-107026247D01*
X158590476Y-107026247D02*
X158590476Y-107264342D01*
X158590476Y-107264342D02*
X158638095Y-107359580D01*
X158638095Y-107359580D02*
X158685714Y-107407200D01*
X158685714Y-107407200D02*
X158780952Y-107454819D01*
X158780952Y-107454819D02*
X159066666Y-107454819D01*
X159066666Y-107454819D02*
X159161904Y-107407200D01*
X159161904Y-107407200D02*
X159209523Y-107359580D01*
X158097080Y-100870833D02*
X158144700Y-100823214D01*
X158144700Y-100823214D02*
X158192319Y-100680357D01*
X158192319Y-100680357D02*
X158192319Y-100585119D01*
X158192319Y-100585119D02*
X158144700Y-100442262D01*
X158144700Y-100442262D02*
X158049461Y-100347024D01*
X158049461Y-100347024D02*
X157954223Y-100299405D01*
X157954223Y-100299405D02*
X157763747Y-100251786D01*
X157763747Y-100251786D02*
X157620890Y-100251786D01*
X157620890Y-100251786D02*
X157430414Y-100299405D01*
X157430414Y-100299405D02*
X157335176Y-100347024D01*
X157335176Y-100347024D02*
X157239938Y-100442262D01*
X157239938Y-100442262D02*
X157192319Y-100585119D01*
X157192319Y-100585119D02*
X157192319Y-100680357D01*
X157192319Y-100680357D02*
X157239938Y-100823214D01*
X157239938Y-100823214D02*
X157287557Y-100870833D01*
X158192319Y-101823214D02*
X158192319Y-101251786D01*
X158192319Y-101537500D02*
X157192319Y-101537500D01*
X157192319Y-101537500D02*
X157335176Y-101442262D01*
X157335176Y-101442262D02*
X157430414Y-101347024D01*
X157430414Y-101347024D02*
X157478033Y-101251786D01*
X147959580Y-100083333D02*
X148007200Y-100035714D01*
X148007200Y-100035714D02*
X148054819Y-99892857D01*
X148054819Y-99892857D02*
X148054819Y-99797619D01*
X148054819Y-99797619D02*
X148007200Y-99654762D01*
X148007200Y-99654762D02*
X147911961Y-99559524D01*
X147911961Y-99559524D02*
X147816723Y-99511905D01*
X147816723Y-99511905D02*
X147626247Y-99464286D01*
X147626247Y-99464286D02*
X147483390Y-99464286D01*
X147483390Y-99464286D02*
X147292914Y-99511905D01*
X147292914Y-99511905D02*
X147197676Y-99559524D01*
X147197676Y-99559524D02*
X147102438Y-99654762D01*
X147102438Y-99654762D02*
X147054819Y-99797619D01*
X147054819Y-99797619D02*
X147054819Y-99892857D01*
X147054819Y-99892857D02*
X147102438Y-100035714D01*
X147102438Y-100035714D02*
X147150057Y-100083333D01*
X147150057Y-100464286D02*
X147102438Y-100511905D01*
X147102438Y-100511905D02*
X147054819Y-100607143D01*
X147054819Y-100607143D02*
X147054819Y-100845238D01*
X147054819Y-100845238D02*
X147102438Y-100940476D01*
X147102438Y-100940476D02*
X147150057Y-100988095D01*
X147150057Y-100988095D02*
X147245295Y-101035714D01*
X147245295Y-101035714D02*
X147340533Y-101035714D01*
X147340533Y-101035714D02*
X147483390Y-100988095D01*
X147483390Y-100988095D02*
X148054819Y-100416667D01*
X148054819Y-100416667D02*
X148054819Y-101035714D01*
X159774166Y-110927080D02*
X159821785Y-110974700D01*
X159821785Y-110974700D02*
X159964642Y-111022319D01*
X159964642Y-111022319D02*
X160059880Y-111022319D01*
X160059880Y-111022319D02*
X160202737Y-110974700D01*
X160202737Y-110974700D02*
X160297975Y-110879461D01*
X160297975Y-110879461D02*
X160345594Y-110784223D01*
X160345594Y-110784223D02*
X160393213Y-110593747D01*
X160393213Y-110593747D02*
X160393213Y-110450890D01*
X160393213Y-110450890D02*
X160345594Y-110260414D01*
X160345594Y-110260414D02*
X160297975Y-110165176D01*
X160297975Y-110165176D02*
X160202737Y-110069938D01*
X160202737Y-110069938D02*
X160059880Y-110022319D01*
X160059880Y-110022319D02*
X159964642Y-110022319D01*
X159964642Y-110022319D02*
X159821785Y-110069938D01*
X159821785Y-110069938D02*
X159774166Y-110117557D01*
X158869404Y-110022319D02*
X159345594Y-110022319D01*
X159345594Y-110022319D02*
X159393213Y-110498509D01*
X159393213Y-110498509D02*
X159345594Y-110450890D01*
X159345594Y-110450890D02*
X159250356Y-110403271D01*
X159250356Y-110403271D02*
X159012261Y-110403271D01*
X159012261Y-110403271D02*
X158917023Y-110450890D01*
X158917023Y-110450890D02*
X158869404Y-110498509D01*
X158869404Y-110498509D02*
X158821785Y-110593747D01*
X158821785Y-110593747D02*
X158821785Y-110831842D01*
X158821785Y-110831842D02*
X158869404Y-110927080D01*
X158869404Y-110927080D02*
X158917023Y-110974700D01*
X158917023Y-110974700D02*
X159012261Y-111022319D01*
X159012261Y-111022319D02*
X159250356Y-111022319D01*
X159250356Y-111022319D02*
X159345594Y-110974700D01*
X159345594Y-110974700D02*
X159393213Y-110927080D01*
X146259580Y-109633333D02*
X146307200Y-109585714D01*
X146307200Y-109585714D02*
X146354819Y-109442857D01*
X146354819Y-109442857D02*
X146354819Y-109347619D01*
X146354819Y-109347619D02*
X146307200Y-109204762D01*
X146307200Y-109204762D02*
X146211961Y-109109524D01*
X146211961Y-109109524D02*
X146116723Y-109061905D01*
X146116723Y-109061905D02*
X145926247Y-109014286D01*
X145926247Y-109014286D02*
X145783390Y-109014286D01*
X145783390Y-109014286D02*
X145592914Y-109061905D01*
X145592914Y-109061905D02*
X145497676Y-109109524D01*
X145497676Y-109109524D02*
X145402438Y-109204762D01*
X145402438Y-109204762D02*
X145354819Y-109347619D01*
X145354819Y-109347619D02*
X145354819Y-109442857D01*
X145354819Y-109442857D02*
X145402438Y-109585714D01*
X145402438Y-109585714D02*
X145450057Y-109633333D01*
X146354819Y-110109524D02*
X146354819Y-110300000D01*
X146354819Y-110300000D02*
X146307200Y-110395238D01*
X146307200Y-110395238D02*
X146259580Y-110442857D01*
X146259580Y-110442857D02*
X146116723Y-110538095D01*
X146116723Y-110538095D02*
X145926247Y-110585714D01*
X145926247Y-110585714D02*
X145545295Y-110585714D01*
X145545295Y-110585714D02*
X145450057Y-110538095D01*
X145450057Y-110538095D02*
X145402438Y-110490476D01*
X145402438Y-110490476D02*
X145354819Y-110395238D01*
X145354819Y-110395238D02*
X145354819Y-110204762D01*
X145354819Y-110204762D02*
X145402438Y-110109524D01*
X145402438Y-110109524D02*
X145450057Y-110061905D01*
X145450057Y-110061905D02*
X145545295Y-110014286D01*
X145545295Y-110014286D02*
X145783390Y-110014286D01*
X145783390Y-110014286D02*
X145878628Y-110061905D01*
X145878628Y-110061905D02*
X145926247Y-110109524D01*
X145926247Y-110109524D02*
X145973866Y-110204762D01*
X145973866Y-110204762D02*
X145973866Y-110395238D01*
X145973866Y-110395238D02*
X145926247Y-110490476D01*
X145926247Y-110490476D02*
X145878628Y-110538095D01*
X145878628Y-110538095D02*
X145783390Y-110585714D01*
X151466666Y-109259580D02*
X151514285Y-109307200D01*
X151514285Y-109307200D02*
X151657142Y-109354819D01*
X151657142Y-109354819D02*
X151752380Y-109354819D01*
X151752380Y-109354819D02*
X151895237Y-109307200D01*
X151895237Y-109307200D02*
X151990475Y-109211961D01*
X151990475Y-109211961D02*
X152038094Y-109116723D01*
X152038094Y-109116723D02*
X152085713Y-108926247D01*
X152085713Y-108926247D02*
X152085713Y-108783390D01*
X152085713Y-108783390D02*
X152038094Y-108592914D01*
X152038094Y-108592914D02*
X151990475Y-108497676D01*
X151990475Y-108497676D02*
X151895237Y-108402438D01*
X151895237Y-108402438D02*
X151752380Y-108354819D01*
X151752380Y-108354819D02*
X151657142Y-108354819D01*
X151657142Y-108354819D02*
X151514285Y-108402438D01*
X151514285Y-108402438D02*
X151466666Y-108450057D01*
X150895237Y-108783390D02*
X150990475Y-108735771D01*
X150990475Y-108735771D02*
X151038094Y-108688152D01*
X151038094Y-108688152D02*
X151085713Y-108592914D01*
X151085713Y-108592914D02*
X151085713Y-108545295D01*
X151085713Y-108545295D02*
X151038094Y-108450057D01*
X151038094Y-108450057D02*
X150990475Y-108402438D01*
X150990475Y-108402438D02*
X150895237Y-108354819D01*
X150895237Y-108354819D02*
X150704761Y-108354819D01*
X150704761Y-108354819D02*
X150609523Y-108402438D01*
X150609523Y-108402438D02*
X150561904Y-108450057D01*
X150561904Y-108450057D02*
X150514285Y-108545295D01*
X150514285Y-108545295D02*
X150514285Y-108592914D01*
X150514285Y-108592914D02*
X150561904Y-108688152D01*
X150561904Y-108688152D02*
X150609523Y-108735771D01*
X150609523Y-108735771D02*
X150704761Y-108783390D01*
X150704761Y-108783390D02*
X150895237Y-108783390D01*
X150895237Y-108783390D02*
X150990475Y-108831009D01*
X150990475Y-108831009D02*
X151038094Y-108878628D01*
X151038094Y-108878628D02*
X151085713Y-108973866D01*
X151085713Y-108973866D02*
X151085713Y-109164342D01*
X151085713Y-109164342D02*
X151038094Y-109259580D01*
X151038094Y-109259580D02*
X150990475Y-109307200D01*
X150990475Y-109307200D02*
X150895237Y-109354819D01*
X150895237Y-109354819D02*
X150704761Y-109354819D01*
X150704761Y-109354819D02*
X150609523Y-109307200D01*
X150609523Y-109307200D02*
X150561904Y-109259580D01*
X150561904Y-109259580D02*
X150514285Y-109164342D01*
X150514285Y-109164342D02*
X150514285Y-108973866D01*
X150514285Y-108973866D02*
X150561904Y-108878628D01*
X150561904Y-108878628D02*
X150609523Y-108831009D01*
X150609523Y-108831009D02*
X150704761Y-108783390D01*
X156597080Y-100870833D02*
X156644700Y-100823214D01*
X156644700Y-100823214D02*
X156692319Y-100680357D01*
X156692319Y-100680357D02*
X156692319Y-100585119D01*
X156692319Y-100585119D02*
X156644700Y-100442262D01*
X156644700Y-100442262D02*
X156549461Y-100347024D01*
X156549461Y-100347024D02*
X156454223Y-100299405D01*
X156454223Y-100299405D02*
X156263747Y-100251786D01*
X156263747Y-100251786D02*
X156120890Y-100251786D01*
X156120890Y-100251786D02*
X155930414Y-100299405D01*
X155930414Y-100299405D02*
X155835176Y-100347024D01*
X155835176Y-100347024D02*
X155739938Y-100442262D01*
X155739938Y-100442262D02*
X155692319Y-100585119D01*
X155692319Y-100585119D02*
X155692319Y-100680357D01*
X155692319Y-100680357D02*
X155739938Y-100823214D01*
X155739938Y-100823214D02*
X155787557Y-100870833D01*
X155692319Y-101727976D02*
X155692319Y-101537500D01*
X155692319Y-101537500D02*
X155739938Y-101442262D01*
X155739938Y-101442262D02*
X155787557Y-101394643D01*
X155787557Y-101394643D02*
X155930414Y-101299405D01*
X155930414Y-101299405D02*
X156120890Y-101251786D01*
X156120890Y-101251786D02*
X156501842Y-101251786D01*
X156501842Y-101251786D02*
X156597080Y-101299405D01*
X156597080Y-101299405D02*
X156644700Y-101347024D01*
X156644700Y-101347024D02*
X156692319Y-101442262D01*
X156692319Y-101442262D02*
X156692319Y-101632738D01*
X156692319Y-101632738D02*
X156644700Y-101727976D01*
X156644700Y-101727976D02*
X156597080Y-101775595D01*
X156597080Y-101775595D02*
X156501842Y-101823214D01*
X156501842Y-101823214D02*
X156263747Y-101823214D01*
X156263747Y-101823214D02*
X156168509Y-101775595D01*
X156168509Y-101775595D02*
X156120890Y-101727976D01*
X156120890Y-101727976D02*
X156073271Y-101632738D01*
X156073271Y-101632738D02*
X156073271Y-101442262D01*
X156073271Y-101442262D02*
X156120890Y-101347024D01*
X156120890Y-101347024D02*
X156168509Y-101299405D01*
X156168509Y-101299405D02*
X156263747Y-101251786D01*
X156759580Y-110333333D02*
X156807200Y-110285714D01*
X156807200Y-110285714D02*
X156854819Y-110142857D01*
X156854819Y-110142857D02*
X156854819Y-110047619D01*
X156854819Y-110047619D02*
X156807200Y-109904762D01*
X156807200Y-109904762D02*
X156711961Y-109809524D01*
X156711961Y-109809524D02*
X156616723Y-109761905D01*
X156616723Y-109761905D02*
X156426247Y-109714286D01*
X156426247Y-109714286D02*
X156283390Y-109714286D01*
X156283390Y-109714286D02*
X156092914Y-109761905D01*
X156092914Y-109761905D02*
X155997676Y-109809524D01*
X155997676Y-109809524D02*
X155902438Y-109904762D01*
X155902438Y-109904762D02*
X155854819Y-110047619D01*
X155854819Y-110047619D02*
X155854819Y-110142857D01*
X155854819Y-110142857D02*
X155902438Y-110285714D01*
X155902438Y-110285714D02*
X155950057Y-110333333D01*
X155854819Y-110666667D02*
X155854819Y-111333333D01*
X155854819Y-111333333D02*
X156854819Y-110904762D01*
X147859580Y-109633333D02*
X147907200Y-109585714D01*
X147907200Y-109585714D02*
X147954819Y-109442857D01*
X147954819Y-109442857D02*
X147954819Y-109347619D01*
X147954819Y-109347619D02*
X147907200Y-109204762D01*
X147907200Y-109204762D02*
X147811961Y-109109524D01*
X147811961Y-109109524D02*
X147716723Y-109061905D01*
X147716723Y-109061905D02*
X147526247Y-109014286D01*
X147526247Y-109014286D02*
X147383390Y-109014286D01*
X147383390Y-109014286D02*
X147192914Y-109061905D01*
X147192914Y-109061905D02*
X147097676Y-109109524D01*
X147097676Y-109109524D02*
X147002438Y-109204762D01*
X147002438Y-109204762D02*
X146954819Y-109347619D01*
X146954819Y-109347619D02*
X146954819Y-109442857D01*
X146954819Y-109442857D02*
X147002438Y-109585714D01*
X147002438Y-109585714D02*
X147050057Y-109633333D01*
X147288152Y-110490476D02*
X147954819Y-110490476D01*
X146907200Y-110252381D02*
X147621485Y-110014286D01*
X147621485Y-110014286D02*
X147621485Y-110633333D01*
X148266666Y-88554819D02*
X148599999Y-88078628D01*
X148838094Y-88554819D02*
X148838094Y-87554819D01*
X148838094Y-87554819D02*
X148457142Y-87554819D01*
X148457142Y-87554819D02*
X148361904Y-87602438D01*
X148361904Y-87602438D02*
X148314285Y-87650057D01*
X148314285Y-87650057D02*
X148266666Y-87745295D01*
X148266666Y-87745295D02*
X148266666Y-87888152D01*
X148266666Y-87888152D02*
X148314285Y-87983390D01*
X148314285Y-87983390D02*
X148361904Y-88031009D01*
X148361904Y-88031009D02*
X148457142Y-88078628D01*
X148457142Y-88078628D02*
X148838094Y-88078628D01*
X147409523Y-87888152D02*
X147409523Y-88554819D01*
X147647618Y-87507200D02*
X147885713Y-88221485D01*
X147885713Y-88221485D02*
X147266666Y-88221485D01*
X149559580Y-99857142D02*
X149607200Y-99809523D01*
X149607200Y-99809523D02*
X149654819Y-99666666D01*
X149654819Y-99666666D02*
X149654819Y-99571428D01*
X149654819Y-99571428D02*
X149607200Y-99428571D01*
X149607200Y-99428571D02*
X149511961Y-99333333D01*
X149511961Y-99333333D02*
X149416723Y-99285714D01*
X149416723Y-99285714D02*
X149226247Y-99238095D01*
X149226247Y-99238095D02*
X149083390Y-99238095D01*
X149083390Y-99238095D02*
X148892914Y-99285714D01*
X148892914Y-99285714D02*
X148797676Y-99333333D01*
X148797676Y-99333333D02*
X148702438Y-99428571D01*
X148702438Y-99428571D02*
X148654819Y-99571428D01*
X148654819Y-99571428D02*
X148654819Y-99666666D01*
X148654819Y-99666666D02*
X148702438Y-99809523D01*
X148702438Y-99809523D02*
X148750057Y-99857142D01*
X149654819Y-100809523D02*
X149654819Y-100238095D01*
X149654819Y-100523809D02*
X148654819Y-100523809D01*
X148654819Y-100523809D02*
X148797676Y-100428571D01*
X148797676Y-100428571D02*
X148892914Y-100333333D01*
X148892914Y-100333333D02*
X148940533Y-100238095D01*
X148654819Y-101428571D02*
X148654819Y-101523809D01*
X148654819Y-101523809D02*
X148702438Y-101619047D01*
X148702438Y-101619047D02*
X148750057Y-101666666D01*
X148750057Y-101666666D02*
X148845295Y-101714285D01*
X148845295Y-101714285D02*
X149035771Y-101761904D01*
X149035771Y-101761904D02*
X149273866Y-101761904D01*
X149273866Y-101761904D02*
X149464342Y-101714285D01*
X149464342Y-101714285D02*
X149559580Y-101666666D01*
X149559580Y-101666666D02*
X149607200Y-101619047D01*
X149607200Y-101619047D02*
X149654819Y-101523809D01*
X149654819Y-101523809D02*
X149654819Y-101428571D01*
X149654819Y-101428571D02*
X149607200Y-101333333D01*
X149607200Y-101333333D02*
X149559580Y-101285714D01*
X149559580Y-101285714D02*
X149464342Y-101238095D01*
X149464342Y-101238095D02*
X149273866Y-101190476D01*
X149273866Y-101190476D02*
X149035771Y-101190476D01*
X149035771Y-101190476D02*
X148845295Y-101238095D01*
X148845295Y-101238095D02*
X148750057Y-101285714D01*
X148750057Y-101285714D02*
X148702438Y-101333333D01*
X148702438Y-101333333D02*
X148654819Y-101428571D01*
D12*
%TO.C,J1*%
X138810100Y-91943600D02*
G75*
G02*
X138048100Y-91943600I-381000J0D01*
G01*
X138048100Y-91943600D02*
G75*
G02*
X138810100Y-91943600I381000J0D01*
G01*
X166281001Y-91943600D02*
G75*
G02*
X165519001Y-91943600I-381000J0D01*
G01*
X165519001Y-91943600D02*
G75*
G02*
X166281001Y-91943600I381000J0D01*
G01*
D13*
%TO.C,R1*%
X150457776Y-87577500D02*
X150967224Y-87577500D01*
X150457776Y-88622500D02*
X150967224Y-88622500D01*
%TO.C,U3*%
X160672500Y-105840000D02*
X159262500Y-105840000D01*
X160672500Y-105840000D02*
X160672500Y-106500000D01*
X160672500Y-107500000D02*
X160672500Y-108170000D01*
X160672500Y-108170000D02*
X159262500Y-108170000D01*
X159132500Y-108480000D02*
X158652500Y-108480000D01*
X158892500Y-108150000D01*
X159132500Y-108480000D01*
G36*
X159132500Y-108480000D02*
G01*
X158652500Y-108480000D01*
X158892500Y-108150000D01*
X159132500Y-108480000D01*
G37*
%TO.C,C1*%
X157327500Y-103883767D02*
X157327500Y-103591233D01*
X158347500Y-103883767D02*
X158347500Y-103591233D01*
%TO.C,C2*%
X147127500Y-97291233D02*
X147127500Y-97583767D01*
X148147500Y-97291233D02*
X148147500Y-97583767D01*
%TO.C,C5*%
X159783767Y-108590000D02*
X159491233Y-108590000D01*
X159783767Y-109610000D02*
X159491233Y-109610000D01*
%TO.C,C9*%
X145327500Y-107346267D02*
X145327500Y-107053733D01*
X146347500Y-107346267D02*
X146347500Y-107053733D01*
%TO.C,C8*%
X153728733Y-108390000D02*
X154021267Y-108390000D01*
X153728733Y-109410000D02*
X154021267Y-109410000D01*
%TO.C,C6*%
X155727500Y-103883767D02*
X155727500Y-103591233D01*
X156747500Y-103883767D02*
X156747500Y-103591233D01*
%TO.C,C7*%
X155827500Y-108208767D02*
X155827500Y-107916233D01*
X156847500Y-108208767D02*
X156847500Y-107916233D01*
%TO.C,C4*%
X146927500Y-107346267D02*
X146927500Y-107053733D01*
X147947500Y-107346267D02*
X147947500Y-107053733D01*
%TO.C,R4*%
X148942224Y-85877500D02*
X148432776Y-85877500D01*
X148942224Y-86922500D02*
X148432776Y-86922500D01*
%TO.C,C10*%
X148727500Y-97291233D02*
X148727500Y-97583767D01*
X149747500Y-97291233D02*
X149747500Y-97583767D01*
%TD*%
%LPC*%
D14*
%TO.C,J9*%
X160325000Y-112700000D03*
D15*
X162865000Y-112700000D03*
%TD*%
D14*
%TO.C,J5*%
X156500000Y-112700000D03*
D15*
X153960000Y-112700000D03*
X151420000Y-112700000D03*
X148880000Y-112700000D03*
%TD*%
D14*
%TO.C,J10*%
X127400000Y-100900000D03*
D15*
X127400000Y-98360000D03*
%TD*%
D16*
%TO.C,J4*%
X130840000Y-111240000D03*
D17*
X130840000Y-108700000D03*
X133380000Y-111240000D03*
X133380000Y-108700000D03*
X135920000Y-111240000D03*
X135920000Y-108700000D03*
X138460000Y-111240000D03*
X138460000Y-108700000D03*
X141000000Y-111240000D03*
X141000000Y-108700000D03*
%TD*%
D14*
%TO.C,J11*%
X172700000Y-95775000D03*
D15*
X172700000Y-93235000D03*
%TD*%
D18*
%TO.C,J1*%
X138429100Y-94700000D03*
X136429099Y-94700000D03*
X138429100Y-96699999D03*
X136429099Y-96699999D03*
X138429100Y-98700000D03*
X136429099Y-98700000D03*
X138429100Y-100700001D03*
X136429099Y-100700001D03*
X138429100Y-102699999D03*
X136429099Y-102699999D03*
X165900001Y-94700000D03*
X163900000Y-94700000D03*
X165900001Y-96699999D03*
X163900000Y-96699999D03*
X165900001Y-98700000D03*
X163900000Y-98700000D03*
X165900001Y-100700001D03*
X163900000Y-100700001D03*
X165900001Y-102699999D03*
X163900000Y-102699999D03*
%TD*%
D14*
%TO.C,J3*%
X172700000Y-99525000D03*
D15*
X172700000Y-102065000D03*
%TD*%
D14*
%TO.C,J6*%
X142800000Y-95500000D03*
D15*
X142800000Y-98040000D03*
X142800000Y-100580000D03*
X142800000Y-103120000D03*
%TD*%
D14*
%TO.C,J8*%
X150500000Y-83900000D03*
D15*
X153040000Y-83900000D03*
%TD*%
D14*
%TO.C,J7*%
X157300000Y-91000000D03*
D15*
X157300000Y-93540000D03*
X157300000Y-96080000D03*
%TD*%
D19*
%TO.C,R1*%
X151625000Y-88100000D03*
X149800000Y-88100000D03*
%TD*%
D20*
%TO.C,U3*%
X158607500Y-107650000D03*
X158607500Y-106350000D03*
X161267500Y-107000000D03*
%TD*%
D21*
%TO.C,C1*%
X157837500Y-102875000D03*
X157837500Y-104600000D03*
%TD*%
D22*
%TO.C,C2*%
X147637500Y-98300000D03*
X147637500Y-96575000D03*
%TD*%
D23*
%TO.C,C5*%
X158775000Y-109100000D03*
X160500000Y-109100000D03*
%TD*%
D21*
%TO.C,C9*%
X145837500Y-106337500D03*
X145837500Y-108062500D03*
%TD*%
D24*
%TO.C,C8*%
X154737500Y-108900000D03*
X153012500Y-108900000D03*
%TD*%
D21*
%TO.C,C6*%
X156237500Y-102875000D03*
X156237500Y-104600000D03*
%TD*%
%TO.C,C7*%
X156337500Y-107200000D03*
X156337500Y-108925000D03*
%TD*%
%TO.C,C4*%
X147437500Y-106337500D03*
X147437500Y-108062500D03*
%TD*%
D25*
%TO.C,R4*%
X147775000Y-86400000D03*
X149600000Y-86400000D03*
%TD*%
D22*
%TO.C,C10*%
X149237500Y-98300000D03*
X149237500Y-96575000D03*
%TD*%
%LPD*%
M02*
