%TF.GenerationSoftware,KiCad,Pcbnew,8.0.4*%
%TF.CreationDate,2025-01-10T13:20:48-08:00*%
%TF.ProjectId,X17-ESC-Controller,5831372d-4553-4432-9d43-6f6e74726f6c,rev?*%
%TF.SameCoordinates,Original*%
%TF.FileFunction,Drillmap*%
%TF.FilePolarity,Positive*%
%FSLAX45Y45*%
G04 Gerber Fmt 4.5, Leading zero omitted, Abs format (unit mm)*
G04 Created by KiCad (PCBNEW 8.0.4) date 2025-01-10 13:20:48*
%MOMM*%
%LPD*%
G01*
G04 APERTURE LIST*
%ADD10C,0.050000*%
%ADD11C,0.200000*%
%ADD12C,0.100000*%
G04 APERTURE END LIST*
D10*
X17500000Y-11530000D02*
X17500000Y-8200000D01*
X17500000Y-8200000D02*
X12500000Y-8200000D01*
X12490000Y-11530000D02*
X17500000Y-11530000D01*
X12500000Y-8200000D02*
X12490000Y-11530000D01*
D11*
D12*
X12645000Y-10725000D02*
X12675000Y-10755000D01*
X12675000Y-10725000D02*
X12645000Y-10755000D01*
X12645000Y-11245000D02*
X12675000Y-11275000D01*
X12675000Y-11245000D02*
X12645000Y-11275000D01*
X12825000Y-11265000D02*
X12855000Y-11295000D01*
X12855000Y-11265000D02*
X12825000Y-11295000D01*
X12855000Y-10725000D02*
X12885000Y-10755000D01*
X12885000Y-10725000D02*
X12855000Y-10755000D01*
X13035000Y-9575000D02*
X13065000Y-9605000D01*
X13065000Y-9575000D02*
X13035000Y-9605000D01*
X13045000Y-9825000D02*
X13075000Y-9855000D01*
X13075000Y-9825000D02*
X13045000Y-9855000D01*
X13265000Y-10045000D02*
X13295000Y-10075000D01*
X13295000Y-10045000D02*
X13265000Y-10075000D01*
X13315000Y-9575000D02*
X13345000Y-9605000D01*
X13345000Y-9575000D02*
X13315000Y-9605000D01*
X13325000Y-9835000D02*
X13355000Y-9865000D01*
X13355000Y-9835000D02*
X13325000Y-9865000D01*
X14385000Y-11005000D02*
X14415000Y-11035000D01*
X14415000Y-11005000D02*
X14385000Y-11035000D01*
X14435000Y-11225000D02*
X14465000Y-11255000D01*
X14465000Y-11225000D02*
X14435000Y-11255000D01*
X14615000Y-11235000D02*
X14645000Y-11265000D01*
X14645000Y-11235000D02*
X14615000Y-11265000D01*
X14645000Y-11025000D02*
X14675000Y-11055000D01*
X14675000Y-11025000D02*
X14645000Y-11055000D01*
X14883486Y-10291468D02*
X14913486Y-10321468D01*
X14913486Y-10291468D02*
X14883486Y-10321468D01*
X14915000Y-10365000D02*
X14945000Y-10395000D01*
X14945000Y-10365000D02*
X14915000Y-10395000D01*
X15045000Y-8545000D02*
X15075000Y-8575000D01*
X15075000Y-8545000D02*
X15045000Y-8575000D01*
X15045000Y-8685000D02*
X15075000Y-8715000D01*
X15075000Y-8685000D02*
X15045000Y-8715000D01*
X15085000Y-10625000D02*
X15115000Y-10655000D01*
X15115000Y-10625000D02*
X15085000Y-10655000D01*
X15095000Y-10105000D02*
X15125000Y-10135000D01*
X15125000Y-10105000D02*
X15095000Y-10135000D01*
X15175000Y-10135000D02*
X15205000Y-10165000D01*
X15205000Y-10135000D02*
X15175000Y-10165000D01*
X15185000Y-10655000D02*
X15215000Y-10685000D01*
X15215000Y-10655000D02*
X15185000Y-10685000D01*
X15225000Y-8625000D02*
X15255000Y-8655000D01*
X15255000Y-8625000D02*
X15225000Y-8655000D01*
X15245000Y-10626741D02*
X15275000Y-10656741D01*
X15275000Y-10626741D02*
X15245000Y-10656741D01*
X15355000Y-10415000D02*
X15385000Y-10445000D01*
X15385000Y-10415000D02*
X15355000Y-10445000D01*
X15445000Y-8775000D02*
X15475000Y-8805000D01*
X15475000Y-8775000D02*
X15445000Y-8805000D01*
X15445000Y-10465000D02*
X15475000Y-10495000D01*
X15475000Y-10465000D02*
X15445000Y-10495000D01*
X15565000Y-8345000D02*
X15595000Y-8375000D01*
X15595000Y-8345000D02*
X15565000Y-8375000D01*
X15675000Y-8805000D02*
X15705000Y-8835000D01*
X15705000Y-8805000D02*
X15675000Y-8835000D01*
X15845000Y-8345000D02*
X15875000Y-8375000D01*
X15875000Y-8345000D02*
X15845000Y-8375000D01*
X15855000Y-10105000D02*
X15885000Y-10135000D01*
X15885000Y-10105000D02*
X15855000Y-10135000D01*
X15885000Y-10215000D02*
X15915000Y-10245000D01*
X15915000Y-10215000D02*
X15885000Y-10245000D01*
X15965000Y-10115000D02*
X15995000Y-10145000D01*
X15995000Y-10115000D02*
X15965000Y-10145000D01*
X15985000Y-9295000D02*
X16015000Y-9325000D01*
X16015000Y-9295000D02*
X15985000Y-9325000D01*
X15995000Y-8795000D02*
X16025000Y-8825000D01*
X16025000Y-8795000D02*
X15995000Y-8825000D01*
X16015000Y-9065000D02*
X16045000Y-9095000D01*
X16045000Y-9065000D02*
X16015000Y-9095000D01*
X16145000Y-9735000D02*
X16175000Y-9765000D01*
X16175000Y-9735000D02*
X16145000Y-9765000D01*
X16175000Y-10305000D02*
X16205000Y-10335000D01*
X16205000Y-10305000D02*
X16175000Y-10335000D01*
X16195000Y-9845000D02*
X16225000Y-9875000D01*
X16225000Y-9845000D02*
X16195000Y-9875000D01*
X16255000Y-9085000D02*
X16285000Y-9115000D01*
X16285000Y-9085000D02*
X16255000Y-9115000D01*
X16285000Y-8335000D02*
X16315000Y-8365000D01*
X16315000Y-8335000D02*
X16285000Y-8365000D01*
X16285000Y-8545000D02*
X16315000Y-8575000D01*
X16315000Y-8545000D02*
X16285000Y-8575000D01*
X16295000Y-10485000D02*
X16325000Y-10515000D01*
X16325000Y-10485000D02*
X16295000Y-10515000D01*
X16315000Y-10675000D02*
X16345000Y-10705000D01*
X16345000Y-10675000D02*
X16315000Y-10705000D01*
X16555000Y-11345000D02*
X16585000Y-11375000D01*
X16585000Y-11345000D02*
X16555000Y-11375000D01*
X16665000Y-8335000D02*
X16695000Y-8365000D01*
X16695000Y-8335000D02*
X16665000Y-8365000D01*
X16695000Y-8545000D02*
X16725000Y-8575000D01*
X16725000Y-8545000D02*
X16695000Y-8575000D01*
X16745000Y-10865000D02*
X16775000Y-10895000D01*
X16775000Y-10865000D02*
X16745000Y-10895000D01*
X16755000Y-8765000D02*
X16785000Y-8795000D01*
X16785000Y-8765000D02*
X16755000Y-8795000D01*
X16785000Y-8995000D02*
X16815000Y-9025000D01*
X16815000Y-8995000D02*
X16785000Y-9025000D01*
X16875000Y-10385000D02*
X16905000Y-10415000D01*
X16905000Y-10385000D02*
X16875000Y-10415000D01*
X16885000Y-10655000D02*
X16915000Y-10685000D01*
X16915000Y-10655000D02*
X16885000Y-10685000D01*
X16965000Y-9200000D02*
X16995000Y-9230000D01*
X16995000Y-9200000D02*
X16965000Y-9230000D01*
X17015000Y-8335000D02*
X17045000Y-8365000D01*
X17045000Y-8335000D02*
X17015000Y-8365000D01*
X17015000Y-10865000D02*
X17045000Y-10895000D01*
X17045000Y-10865000D02*
X17015000Y-10895000D01*
X17025000Y-8555000D02*
X17055000Y-8585000D01*
X17055000Y-8555000D02*
X17025000Y-8585000D01*
X17045000Y-8755000D02*
X17075000Y-8785000D01*
X17075000Y-8755000D02*
X17045000Y-8785000D01*
X17045000Y-8985000D02*
X17075000Y-9015000D01*
X17075000Y-8985000D02*
X17045000Y-9015000D01*
X17195000Y-10445000D02*
X17225000Y-10475000D01*
X17225000Y-10445000D02*
X17195000Y-10475000D01*
X17205000Y-10675000D02*
X17235000Y-10705000D01*
X17235000Y-10675000D02*
X17205000Y-10705000D01*
X17275000Y-8335000D02*
X17305000Y-8365000D01*
X17305000Y-8335000D02*
X17275000Y-8365000D01*
X17275000Y-8735000D02*
X17305000Y-8765000D01*
X17305000Y-8735000D02*
X17275000Y-8765000D01*
X17275000Y-8975000D02*
X17305000Y-9005000D01*
X17305000Y-8975000D02*
X17275000Y-9005000D01*
X17285000Y-8525000D02*
X17315000Y-8555000D01*
X17315000Y-8525000D02*
X17285000Y-8555000D01*
X13096670Y-9400000D02*
G75*
G02*
X13043330Y-9400000I-26670J0D01*
G01*
X13043330Y-9400000D02*
G75*
G02*
X13096670Y-9400000I26670J0D01*
G01*
X13266670Y-8390000D02*
G75*
G02*
X13213330Y-8390000I-26670J0D01*
G01*
X13213330Y-8390000D02*
G75*
G02*
X13266670Y-8390000I26670J0D01*
G01*
X13466670Y-9080000D02*
G75*
G02*
X13413330Y-9080000I-26670J0D01*
G01*
X13413330Y-9080000D02*
G75*
G02*
X13466670Y-9080000I26670J0D01*
G01*
X14126670Y-8510000D02*
G75*
G02*
X14073330Y-8510000I-26670J0D01*
G01*
X14073330Y-8510000D02*
G75*
G02*
X14126670Y-8510000I26670J0D01*
G01*
X14126670Y-8970000D02*
G75*
G02*
X14073330Y-8970000I-26670J0D01*
G01*
X14073330Y-8970000D02*
G75*
G02*
X14126670Y-8970000I26670J0D01*
G01*
X14388218Y-8951548D02*
G75*
G02*
X14334878Y-8951548I-26670J0D01*
G01*
X14334878Y-8951548D02*
G75*
G02*
X14388218Y-8951548I26670J0D01*
G01*
X14536670Y-9100000D02*
G75*
G02*
X14483330Y-9100000I-26670J0D01*
G01*
X14483330Y-9100000D02*
G75*
G02*
X14536670Y-9100000I26670J0D01*
G01*
X14836670Y-9510000D02*
G75*
G02*
X14783330Y-9510000I-26670J0D01*
G01*
X14783330Y-9510000D02*
G75*
G02*
X14836670Y-9510000I26670J0D01*
G01*
X14956670Y-10630000D02*
G75*
G02*
X14903330Y-10630000I-26670J0D01*
G01*
X14903330Y-10630000D02*
G75*
G02*
X14956670Y-10630000I26670J0D01*
G01*
X14979346Y-10174910D02*
G75*
G02*
X14926006Y-10174910I-26670J0D01*
G01*
X14926006Y-10174910D02*
G75*
G02*
X14979346Y-10174910I26670J0D01*
G01*
X15326670Y-10340000D02*
G75*
G02*
X15273330Y-10340000I-26670J0D01*
G01*
X15273330Y-10340000D02*
G75*
G02*
X15326670Y-10340000I26670J0D01*
G01*
X15423550Y-10553641D02*
G75*
G02*
X15370210Y-10553641I-26670J0D01*
G01*
X15370210Y-10553641D02*
G75*
G02*
X15423550Y-10553641I26670J0D01*
G01*
X15916670Y-10974910D02*
G75*
G02*
X15863330Y-10974910I-26670J0D01*
G01*
X15863330Y-10974910D02*
G75*
G02*
X15916670Y-10974910I26670J0D01*
G01*
X16316670Y-10910000D02*
G75*
G02*
X16263330Y-10910000I-26670J0D01*
G01*
X16263330Y-10910000D02*
G75*
G02*
X16316670Y-10910000I26670J0D01*
G01*
X16836670Y-11180000D02*
G75*
G02*
X16783330Y-11180000I-26670J0D01*
G01*
X16783330Y-11180000D02*
G75*
G02*
X16836670Y-11180000I26670J0D01*
G01*
X13642910Y-9431900D02*
X13642910Y-9508100D01*
X13604810Y-9470000D02*
X13681010Y-9470000D01*
X13642910Y-9631900D02*
X13642910Y-9708100D01*
X13604810Y-9670000D02*
X13681010Y-9670000D01*
X13642910Y-9831900D02*
X13642910Y-9908100D01*
X13604810Y-9870000D02*
X13681010Y-9870000D01*
X13642910Y-10031900D02*
X13642910Y-10108100D01*
X13604810Y-10070000D02*
X13681010Y-10070000D01*
X13642910Y-10231900D02*
X13642910Y-10308100D01*
X13604810Y-10270000D02*
X13681010Y-10270000D01*
X13842910Y-9431900D02*
X13842910Y-9508100D01*
X13804810Y-9470000D02*
X13881010Y-9470000D01*
X13842910Y-9631900D02*
X13842910Y-9708100D01*
X13804810Y-9670000D02*
X13881010Y-9670000D01*
X13842910Y-9831900D02*
X13842910Y-9908100D01*
X13804810Y-9870000D02*
X13881010Y-9870000D01*
X13842910Y-10031900D02*
X13842910Y-10108100D01*
X13804810Y-10070000D02*
X13881010Y-10070000D01*
X13842910Y-10231900D02*
X13842910Y-10308100D01*
X13804810Y-10270000D02*
X13881010Y-10270000D01*
X16390000Y-9431900D02*
X16390000Y-9508100D01*
X16351900Y-9470000D02*
X16428100Y-9470000D01*
X16390000Y-9631900D02*
X16390000Y-9708100D01*
X16351900Y-9670000D02*
X16428100Y-9670000D01*
X16390000Y-9831900D02*
X16390000Y-9908100D01*
X16351900Y-9870000D02*
X16428100Y-9870000D01*
X16390000Y-10031900D02*
X16390000Y-10108100D01*
X16351900Y-10070000D02*
X16428100Y-10070000D01*
X16390000Y-10231900D02*
X16390000Y-10308100D01*
X16351900Y-10270000D02*
X16428100Y-10270000D01*
X16590000Y-9431900D02*
X16590000Y-9508100D01*
X16551900Y-9470000D02*
X16628100Y-9470000D01*
X16590000Y-9631900D02*
X16590000Y-9708100D01*
X16551900Y-9670000D02*
X16628100Y-9670000D01*
X16590000Y-9831900D02*
X16590000Y-9908100D01*
X16551900Y-9870000D02*
X16628100Y-9870000D01*
X16590000Y-10031900D02*
X16590000Y-10108100D01*
X16551900Y-10070000D02*
X16628100Y-10070000D01*
X16590000Y-10231900D02*
X16590000Y-10308100D01*
X16551900Y-10270000D02*
X16628100Y-10270000D01*
X12775356Y-9871356D02*
X12775356Y-9800644D01*
X12704644Y-9800644D01*
X12704644Y-9871356D01*
X12775356Y-9871356D01*
X12775356Y-10125356D02*
X12775356Y-10054644D01*
X12704644Y-10054644D01*
X12704644Y-10125356D01*
X12775356Y-10125356D01*
X13119356Y-10905356D02*
X13119356Y-10834644D01*
X13048644Y-10834644D01*
X13048644Y-10905356D01*
X13119356Y-10905356D01*
X13119356Y-11159356D02*
X13119356Y-11088644D01*
X13048644Y-11088644D01*
X13048644Y-11159356D01*
X13119356Y-11159356D01*
X13373356Y-10905356D02*
X13373356Y-10834644D01*
X13302644Y-10834644D01*
X13302644Y-10905356D01*
X13373356Y-10905356D01*
X13373356Y-11159356D02*
X13373356Y-11088644D01*
X13302644Y-11088644D01*
X13302644Y-11159356D01*
X13373356Y-11159356D01*
X13627356Y-10905356D02*
X13627356Y-10834644D01*
X13556644Y-10834644D01*
X13556644Y-10905356D01*
X13627356Y-10905356D01*
X13627356Y-11159356D02*
X13627356Y-11088644D01*
X13556644Y-11088644D01*
X13556644Y-11159356D01*
X13627356Y-11159356D01*
X13881356Y-10905356D02*
X13881356Y-10834644D01*
X13810644Y-10834644D01*
X13810644Y-10905356D01*
X13881356Y-10905356D01*
X13881356Y-11159356D02*
X13881356Y-11088644D01*
X13810644Y-11088644D01*
X13810644Y-11159356D01*
X13881356Y-11159356D01*
X14135356Y-10905356D02*
X14135356Y-10834644D01*
X14064644Y-10834644D01*
X14064644Y-10905356D01*
X14135356Y-10905356D01*
X14135356Y-11159356D02*
X14135356Y-11088644D01*
X14064644Y-11088644D01*
X14064644Y-11159356D01*
X14135356Y-11159356D01*
X14315356Y-9585356D02*
X14315356Y-9514644D01*
X14244644Y-9514644D01*
X14244644Y-9585356D01*
X14315356Y-9585356D01*
X14315356Y-9839356D02*
X14315356Y-9768644D01*
X14244644Y-9768644D01*
X14244644Y-9839356D01*
X14315356Y-9839356D01*
X14315356Y-10093356D02*
X14315356Y-10022644D01*
X14244644Y-10022644D01*
X14244644Y-10093356D01*
X14315356Y-10093356D01*
X14315356Y-10347356D02*
X14315356Y-10276644D01*
X14244644Y-10276644D01*
X14244644Y-10347356D01*
X14315356Y-10347356D01*
X14923356Y-11305356D02*
X14923356Y-11234644D01*
X14852644Y-11234644D01*
X14852644Y-11305356D01*
X14923356Y-11305356D01*
X15085356Y-8425356D02*
X15085356Y-8354644D01*
X15014644Y-8354644D01*
X15014644Y-8425356D01*
X15085356Y-8425356D01*
X15177356Y-11305356D02*
X15177356Y-11234644D01*
X15106644Y-11234644D01*
X15106644Y-11305356D01*
X15177356Y-11305356D01*
X15339356Y-8425356D02*
X15339356Y-8354644D01*
X15268644Y-8354644D01*
X15268644Y-8425356D01*
X15339356Y-8425356D01*
X15431356Y-11305356D02*
X15431356Y-11234644D01*
X15360644Y-11234644D01*
X15360644Y-11305356D01*
X15431356Y-11305356D01*
X15685356Y-11305356D02*
X15685356Y-11234644D01*
X15614644Y-11234644D01*
X15614644Y-11305356D01*
X15685356Y-11305356D01*
X15765356Y-9135356D02*
X15765356Y-9064644D01*
X15694644Y-9064644D01*
X15694644Y-9135356D01*
X15765356Y-9135356D01*
X15765356Y-9389356D02*
X15765356Y-9318644D01*
X15694644Y-9318644D01*
X15694644Y-9389356D01*
X15765356Y-9389356D01*
X15765356Y-9643356D02*
X15765356Y-9572644D01*
X15694644Y-9572644D01*
X15694644Y-9643356D01*
X15765356Y-9643356D01*
X16067856Y-11305356D02*
X16067856Y-11234644D01*
X15997144Y-11234644D01*
X15997144Y-11305356D01*
X16067856Y-11305356D01*
X16321856Y-11305356D02*
X16321856Y-11234644D01*
X16251144Y-11234644D01*
X16251144Y-11305356D01*
X16321856Y-11305356D01*
X17305356Y-9358856D02*
X17305356Y-9288144D01*
X17234644Y-9288144D01*
X17234644Y-9358856D01*
X17305356Y-9358856D01*
X17305356Y-9612856D02*
X17305356Y-9542144D01*
X17234644Y-9542144D01*
X17234644Y-9612856D01*
X17305356Y-9612856D01*
X17305356Y-9987856D02*
X17305356Y-9917144D01*
X17234644Y-9917144D01*
X17234644Y-9987856D01*
X17305356Y-9987856D01*
X17305356Y-10241856D02*
X17305356Y-10171144D01*
X17234644Y-10171144D01*
X17234644Y-10241856D01*
X17305356Y-10241856D01*
D11*
X12748277Y-11843984D02*
X12748277Y-11643984D01*
X12748277Y-11643984D02*
X12795896Y-11643984D01*
X12795896Y-11643984D02*
X12824467Y-11653508D01*
X12824467Y-11653508D02*
X12843515Y-11672555D01*
X12843515Y-11672555D02*
X12853039Y-11691603D01*
X12853039Y-11691603D02*
X12862562Y-11729698D01*
X12862562Y-11729698D02*
X12862562Y-11758269D01*
X12862562Y-11758269D02*
X12853039Y-11796365D01*
X12853039Y-11796365D02*
X12843515Y-11815412D01*
X12843515Y-11815412D02*
X12824467Y-11834460D01*
X12824467Y-11834460D02*
X12795896Y-11843984D01*
X12795896Y-11843984D02*
X12748277Y-11843984D01*
X12948277Y-11843984D02*
X12948277Y-11710650D01*
X12948277Y-11748746D02*
X12957801Y-11729698D01*
X12957801Y-11729698D02*
X12967324Y-11720174D01*
X12967324Y-11720174D02*
X12986372Y-11710650D01*
X12986372Y-11710650D02*
X13005420Y-11710650D01*
X13072086Y-11843984D02*
X13072086Y-11710650D01*
X13072086Y-11643984D02*
X13062562Y-11653508D01*
X13062562Y-11653508D02*
X13072086Y-11663031D01*
X13072086Y-11663031D02*
X13081610Y-11653508D01*
X13081610Y-11653508D02*
X13072086Y-11643984D01*
X13072086Y-11643984D02*
X13072086Y-11663031D01*
X13195896Y-11843984D02*
X13176848Y-11834460D01*
X13176848Y-11834460D02*
X13167324Y-11815412D01*
X13167324Y-11815412D02*
X13167324Y-11643984D01*
X13300658Y-11843984D02*
X13281610Y-11834460D01*
X13281610Y-11834460D02*
X13272086Y-11815412D01*
X13272086Y-11815412D02*
X13272086Y-11643984D01*
X13529229Y-11843984D02*
X13529229Y-11643984D01*
X13529229Y-11643984D02*
X13595896Y-11786841D01*
X13595896Y-11786841D02*
X13662562Y-11643984D01*
X13662562Y-11643984D02*
X13662562Y-11843984D01*
X13843515Y-11843984D02*
X13843515Y-11739222D01*
X13843515Y-11739222D02*
X13833991Y-11720174D01*
X13833991Y-11720174D02*
X13814943Y-11710650D01*
X13814943Y-11710650D02*
X13776848Y-11710650D01*
X13776848Y-11710650D02*
X13757801Y-11720174D01*
X13843515Y-11834460D02*
X13824467Y-11843984D01*
X13824467Y-11843984D02*
X13776848Y-11843984D01*
X13776848Y-11843984D02*
X13757801Y-11834460D01*
X13757801Y-11834460D02*
X13748277Y-11815412D01*
X13748277Y-11815412D02*
X13748277Y-11796365D01*
X13748277Y-11796365D02*
X13757801Y-11777317D01*
X13757801Y-11777317D02*
X13776848Y-11767793D01*
X13776848Y-11767793D02*
X13824467Y-11767793D01*
X13824467Y-11767793D02*
X13843515Y-11758269D01*
X13938753Y-11710650D02*
X13938753Y-11910650D01*
X13938753Y-11720174D02*
X13957801Y-11710650D01*
X13957801Y-11710650D02*
X13995896Y-11710650D01*
X13995896Y-11710650D02*
X14014943Y-11720174D01*
X14014943Y-11720174D02*
X14024467Y-11729698D01*
X14024467Y-11729698D02*
X14033991Y-11748746D01*
X14033991Y-11748746D02*
X14033991Y-11805888D01*
X14033991Y-11805888D02*
X14024467Y-11824936D01*
X14024467Y-11824936D02*
X14014943Y-11834460D01*
X14014943Y-11834460D02*
X13995896Y-11843984D01*
X13995896Y-11843984D02*
X13957801Y-11843984D01*
X13957801Y-11843984D02*
X13938753Y-11834460D01*
X14119705Y-11824936D02*
X14129229Y-11834460D01*
X14129229Y-11834460D02*
X14119705Y-11843984D01*
X14119705Y-11843984D02*
X14110182Y-11834460D01*
X14110182Y-11834460D02*
X14119705Y-11824936D01*
X14119705Y-11824936D02*
X14119705Y-11843984D01*
X14119705Y-11720174D02*
X14129229Y-11729698D01*
X14129229Y-11729698D02*
X14119705Y-11739222D01*
X14119705Y-11739222D02*
X14110182Y-11729698D01*
X14110182Y-11729698D02*
X14119705Y-11720174D01*
X14119705Y-11720174D02*
X14119705Y-11739222D01*
D12*
X12457500Y-12157500D02*
X12487500Y-12187500D01*
X12487500Y-12157500D02*
X12457500Y-12187500D01*
D11*
X12786372Y-12063984D02*
X12805420Y-12063984D01*
X12805420Y-12063984D02*
X12824467Y-12073508D01*
X12824467Y-12073508D02*
X12833991Y-12083031D01*
X12833991Y-12083031D02*
X12843515Y-12102079D01*
X12843515Y-12102079D02*
X12853039Y-12140174D01*
X12853039Y-12140174D02*
X12853039Y-12187793D01*
X12853039Y-12187793D02*
X12843515Y-12225888D01*
X12843515Y-12225888D02*
X12833991Y-12244936D01*
X12833991Y-12244936D02*
X12824467Y-12254460D01*
X12824467Y-12254460D02*
X12805420Y-12263984D01*
X12805420Y-12263984D02*
X12786372Y-12263984D01*
X12786372Y-12263984D02*
X12767324Y-12254460D01*
X12767324Y-12254460D02*
X12757801Y-12244936D01*
X12757801Y-12244936D02*
X12748277Y-12225888D01*
X12748277Y-12225888D02*
X12738753Y-12187793D01*
X12738753Y-12187793D02*
X12738753Y-12140174D01*
X12738753Y-12140174D02*
X12748277Y-12102079D01*
X12748277Y-12102079D02*
X12757801Y-12083031D01*
X12757801Y-12083031D02*
X12767324Y-12073508D01*
X12767324Y-12073508D02*
X12786372Y-12063984D01*
X12938753Y-12244936D02*
X12948277Y-12254460D01*
X12948277Y-12254460D02*
X12938753Y-12263984D01*
X12938753Y-12263984D02*
X12929229Y-12254460D01*
X12929229Y-12254460D02*
X12938753Y-12244936D01*
X12938753Y-12244936D02*
X12938753Y-12263984D01*
X13014943Y-12063984D02*
X13138753Y-12063984D01*
X13138753Y-12063984D02*
X13072086Y-12140174D01*
X13072086Y-12140174D02*
X13100658Y-12140174D01*
X13100658Y-12140174D02*
X13119705Y-12149698D01*
X13119705Y-12149698D02*
X13129229Y-12159222D01*
X13129229Y-12159222D02*
X13138753Y-12178269D01*
X13138753Y-12178269D02*
X13138753Y-12225888D01*
X13138753Y-12225888D02*
X13129229Y-12244936D01*
X13129229Y-12244936D02*
X13119705Y-12254460D01*
X13119705Y-12254460D02*
X13100658Y-12263984D01*
X13100658Y-12263984D02*
X13043515Y-12263984D01*
X13043515Y-12263984D02*
X13024467Y-12254460D01*
X13024467Y-12254460D02*
X13014943Y-12244936D01*
X13262562Y-12063984D02*
X13281610Y-12063984D01*
X13281610Y-12063984D02*
X13300658Y-12073508D01*
X13300658Y-12073508D02*
X13310182Y-12083031D01*
X13310182Y-12083031D02*
X13319705Y-12102079D01*
X13319705Y-12102079D02*
X13329229Y-12140174D01*
X13329229Y-12140174D02*
X13329229Y-12187793D01*
X13329229Y-12187793D02*
X13319705Y-12225888D01*
X13319705Y-12225888D02*
X13310182Y-12244936D01*
X13310182Y-12244936D02*
X13300658Y-12254460D01*
X13300658Y-12254460D02*
X13281610Y-12263984D01*
X13281610Y-12263984D02*
X13262562Y-12263984D01*
X13262562Y-12263984D02*
X13243515Y-12254460D01*
X13243515Y-12254460D02*
X13233991Y-12244936D01*
X13233991Y-12244936D02*
X13224467Y-12225888D01*
X13224467Y-12225888D02*
X13214943Y-12187793D01*
X13214943Y-12187793D02*
X13214943Y-12140174D01*
X13214943Y-12140174D02*
X13224467Y-12102079D01*
X13224467Y-12102079D02*
X13233991Y-12083031D01*
X13233991Y-12083031D02*
X13243515Y-12073508D01*
X13243515Y-12073508D02*
X13262562Y-12063984D01*
X13453039Y-12063984D02*
X13472086Y-12063984D01*
X13472086Y-12063984D02*
X13491134Y-12073508D01*
X13491134Y-12073508D02*
X13500658Y-12083031D01*
X13500658Y-12083031D02*
X13510182Y-12102079D01*
X13510182Y-12102079D02*
X13519705Y-12140174D01*
X13519705Y-12140174D02*
X13519705Y-12187793D01*
X13519705Y-12187793D02*
X13510182Y-12225888D01*
X13510182Y-12225888D02*
X13500658Y-12244936D01*
X13500658Y-12244936D02*
X13491134Y-12254460D01*
X13491134Y-12254460D02*
X13472086Y-12263984D01*
X13472086Y-12263984D02*
X13453039Y-12263984D01*
X13453039Y-12263984D02*
X13433991Y-12254460D01*
X13433991Y-12254460D02*
X13424467Y-12244936D01*
X13424467Y-12244936D02*
X13414943Y-12225888D01*
X13414943Y-12225888D02*
X13405420Y-12187793D01*
X13405420Y-12187793D02*
X13405420Y-12140174D01*
X13405420Y-12140174D02*
X13414943Y-12102079D01*
X13414943Y-12102079D02*
X13424467Y-12083031D01*
X13424467Y-12083031D02*
X13433991Y-12073508D01*
X13433991Y-12073508D02*
X13453039Y-12063984D01*
X13605420Y-12263984D02*
X13605420Y-12130650D01*
X13605420Y-12149698D02*
X13614943Y-12140174D01*
X13614943Y-12140174D02*
X13633991Y-12130650D01*
X13633991Y-12130650D02*
X13662563Y-12130650D01*
X13662563Y-12130650D02*
X13681610Y-12140174D01*
X13681610Y-12140174D02*
X13691134Y-12159222D01*
X13691134Y-12159222D02*
X13691134Y-12263984D01*
X13691134Y-12159222D02*
X13700658Y-12140174D01*
X13700658Y-12140174D02*
X13719705Y-12130650D01*
X13719705Y-12130650D02*
X13748277Y-12130650D01*
X13748277Y-12130650D02*
X13767324Y-12140174D01*
X13767324Y-12140174D02*
X13776848Y-12159222D01*
X13776848Y-12159222D02*
X13776848Y-12263984D01*
X13872086Y-12263984D02*
X13872086Y-12130650D01*
X13872086Y-12149698D02*
X13881610Y-12140174D01*
X13881610Y-12140174D02*
X13900658Y-12130650D01*
X13900658Y-12130650D02*
X13929229Y-12130650D01*
X13929229Y-12130650D02*
X13948277Y-12140174D01*
X13948277Y-12140174D02*
X13957801Y-12159222D01*
X13957801Y-12159222D02*
X13957801Y-12263984D01*
X13957801Y-12159222D02*
X13967324Y-12140174D01*
X13967324Y-12140174D02*
X13986372Y-12130650D01*
X13986372Y-12130650D02*
X14014943Y-12130650D01*
X14014943Y-12130650D02*
X14033991Y-12140174D01*
X14033991Y-12140174D02*
X14043515Y-12159222D01*
X14043515Y-12159222D02*
X14043515Y-12263984D01*
X14433991Y-12054460D02*
X14262563Y-12311603D01*
X14691134Y-12063984D02*
X14710182Y-12063984D01*
X14710182Y-12063984D02*
X14729229Y-12073508D01*
X14729229Y-12073508D02*
X14738753Y-12083031D01*
X14738753Y-12083031D02*
X14748277Y-12102079D01*
X14748277Y-12102079D02*
X14757801Y-12140174D01*
X14757801Y-12140174D02*
X14757801Y-12187793D01*
X14757801Y-12187793D02*
X14748277Y-12225888D01*
X14748277Y-12225888D02*
X14738753Y-12244936D01*
X14738753Y-12244936D02*
X14729229Y-12254460D01*
X14729229Y-12254460D02*
X14710182Y-12263984D01*
X14710182Y-12263984D02*
X14691134Y-12263984D01*
X14691134Y-12263984D02*
X14672086Y-12254460D01*
X14672086Y-12254460D02*
X14662563Y-12244936D01*
X14662563Y-12244936D02*
X14653039Y-12225888D01*
X14653039Y-12225888D02*
X14643515Y-12187793D01*
X14643515Y-12187793D02*
X14643515Y-12140174D01*
X14643515Y-12140174D02*
X14653039Y-12102079D01*
X14653039Y-12102079D02*
X14662563Y-12083031D01*
X14662563Y-12083031D02*
X14672086Y-12073508D01*
X14672086Y-12073508D02*
X14691134Y-12063984D01*
X14843515Y-12244936D02*
X14853039Y-12254460D01*
X14853039Y-12254460D02*
X14843515Y-12263984D01*
X14843515Y-12263984D02*
X14833991Y-12254460D01*
X14833991Y-12254460D02*
X14843515Y-12244936D01*
X14843515Y-12244936D02*
X14843515Y-12263984D01*
X14976848Y-12063984D02*
X14995896Y-12063984D01*
X14995896Y-12063984D02*
X15014944Y-12073508D01*
X15014944Y-12073508D02*
X15024467Y-12083031D01*
X15024467Y-12083031D02*
X15033991Y-12102079D01*
X15033991Y-12102079D02*
X15043515Y-12140174D01*
X15043515Y-12140174D02*
X15043515Y-12187793D01*
X15043515Y-12187793D02*
X15033991Y-12225888D01*
X15033991Y-12225888D02*
X15024467Y-12244936D01*
X15024467Y-12244936D02*
X15014944Y-12254460D01*
X15014944Y-12254460D02*
X14995896Y-12263984D01*
X14995896Y-12263984D02*
X14976848Y-12263984D01*
X14976848Y-12263984D02*
X14957801Y-12254460D01*
X14957801Y-12254460D02*
X14948277Y-12244936D01*
X14948277Y-12244936D02*
X14938753Y-12225888D01*
X14938753Y-12225888D02*
X14929229Y-12187793D01*
X14929229Y-12187793D02*
X14929229Y-12140174D01*
X14929229Y-12140174D02*
X14938753Y-12102079D01*
X14938753Y-12102079D02*
X14948277Y-12083031D01*
X14948277Y-12083031D02*
X14957801Y-12073508D01*
X14957801Y-12073508D02*
X14976848Y-12063984D01*
X15233991Y-12263984D02*
X15119706Y-12263984D01*
X15176848Y-12263984D02*
X15176848Y-12063984D01*
X15176848Y-12063984D02*
X15157801Y-12092555D01*
X15157801Y-12092555D02*
X15138753Y-12111603D01*
X15138753Y-12111603D02*
X15119706Y-12121127D01*
X15424467Y-12263984D02*
X15310182Y-12263984D01*
X15367325Y-12263984D02*
X15367325Y-12063984D01*
X15367325Y-12063984D02*
X15348277Y-12092555D01*
X15348277Y-12092555D02*
X15329229Y-12111603D01*
X15329229Y-12111603D02*
X15310182Y-12121127D01*
X15538753Y-12149698D02*
X15519706Y-12140174D01*
X15519706Y-12140174D02*
X15510182Y-12130650D01*
X15510182Y-12130650D02*
X15500658Y-12111603D01*
X15500658Y-12111603D02*
X15500658Y-12102079D01*
X15500658Y-12102079D02*
X15510182Y-12083031D01*
X15510182Y-12083031D02*
X15519706Y-12073508D01*
X15519706Y-12073508D02*
X15538753Y-12063984D01*
X15538753Y-12063984D02*
X15576848Y-12063984D01*
X15576848Y-12063984D02*
X15595896Y-12073508D01*
X15595896Y-12073508D02*
X15605420Y-12083031D01*
X15605420Y-12083031D02*
X15614944Y-12102079D01*
X15614944Y-12102079D02*
X15614944Y-12111603D01*
X15614944Y-12111603D02*
X15605420Y-12130650D01*
X15605420Y-12130650D02*
X15595896Y-12140174D01*
X15595896Y-12140174D02*
X15576848Y-12149698D01*
X15576848Y-12149698D02*
X15538753Y-12149698D01*
X15538753Y-12149698D02*
X15519706Y-12159222D01*
X15519706Y-12159222D02*
X15510182Y-12168746D01*
X15510182Y-12168746D02*
X15500658Y-12187793D01*
X15500658Y-12187793D02*
X15500658Y-12225888D01*
X15500658Y-12225888D02*
X15510182Y-12244936D01*
X15510182Y-12244936D02*
X15519706Y-12254460D01*
X15519706Y-12254460D02*
X15538753Y-12263984D01*
X15538753Y-12263984D02*
X15576848Y-12263984D01*
X15576848Y-12263984D02*
X15595896Y-12254460D01*
X15595896Y-12254460D02*
X15605420Y-12244936D01*
X15605420Y-12244936D02*
X15614944Y-12225888D01*
X15614944Y-12225888D02*
X15614944Y-12187793D01*
X15614944Y-12187793D02*
X15605420Y-12168746D01*
X15605420Y-12168746D02*
X15595896Y-12159222D01*
X15595896Y-12159222D02*
X15576848Y-12149698D01*
X15691134Y-12063984D02*
X15691134Y-12102079D01*
X15767325Y-12063984D02*
X15767325Y-12102079D01*
X16062563Y-12340174D02*
X16053039Y-12330650D01*
X16053039Y-12330650D02*
X16033991Y-12302079D01*
X16033991Y-12302079D02*
X16024468Y-12283031D01*
X16024468Y-12283031D02*
X16014944Y-12254460D01*
X16014944Y-12254460D02*
X16005420Y-12206841D01*
X16005420Y-12206841D02*
X16005420Y-12168746D01*
X16005420Y-12168746D02*
X16014944Y-12121127D01*
X16014944Y-12121127D02*
X16024468Y-12092555D01*
X16024468Y-12092555D02*
X16033991Y-12073508D01*
X16033991Y-12073508D02*
X16053039Y-12044936D01*
X16053039Y-12044936D02*
X16062563Y-12035412D01*
X16224468Y-12063984D02*
X16186372Y-12063984D01*
X16186372Y-12063984D02*
X16167325Y-12073508D01*
X16167325Y-12073508D02*
X16157801Y-12083031D01*
X16157801Y-12083031D02*
X16138753Y-12111603D01*
X16138753Y-12111603D02*
X16129229Y-12149698D01*
X16129229Y-12149698D02*
X16129229Y-12225888D01*
X16129229Y-12225888D02*
X16138753Y-12244936D01*
X16138753Y-12244936D02*
X16148277Y-12254460D01*
X16148277Y-12254460D02*
X16167325Y-12263984D01*
X16167325Y-12263984D02*
X16205420Y-12263984D01*
X16205420Y-12263984D02*
X16224468Y-12254460D01*
X16224468Y-12254460D02*
X16233991Y-12244936D01*
X16233991Y-12244936D02*
X16243515Y-12225888D01*
X16243515Y-12225888D02*
X16243515Y-12178269D01*
X16243515Y-12178269D02*
X16233991Y-12159222D01*
X16233991Y-12159222D02*
X16224468Y-12149698D01*
X16224468Y-12149698D02*
X16205420Y-12140174D01*
X16205420Y-12140174D02*
X16167325Y-12140174D01*
X16167325Y-12140174D02*
X16148277Y-12149698D01*
X16148277Y-12149698D02*
X16138753Y-12159222D01*
X16138753Y-12159222D02*
X16129229Y-12178269D01*
X16310182Y-12063984D02*
X16433991Y-12063984D01*
X16433991Y-12063984D02*
X16367325Y-12140174D01*
X16367325Y-12140174D02*
X16395896Y-12140174D01*
X16395896Y-12140174D02*
X16414944Y-12149698D01*
X16414944Y-12149698D02*
X16424468Y-12159222D01*
X16424468Y-12159222D02*
X16433991Y-12178269D01*
X16433991Y-12178269D02*
X16433991Y-12225888D01*
X16433991Y-12225888D02*
X16424468Y-12244936D01*
X16424468Y-12244936D02*
X16414944Y-12254460D01*
X16414944Y-12254460D02*
X16395896Y-12263984D01*
X16395896Y-12263984D02*
X16338753Y-12263984D01*
X16338753Y-12263984D02*
X16319706Y-12254460D01*
X16319706Y-12254460D02*
X16310182Y-12244936D01*
X16672087Y-12263984D02*
X16672087Y-12063984D01*
X16757801Y-12263984D02*
X16757801Y-12159222D01*
X16757801Y-12159222D02*
X16748277Y-12140174D01*
X16748277Y-12140174D02*
X16729230Y-12130650D01*
X16729230Y-12130650D02*
X16700658Y-12130650D01*
X16700658Y-12130650D02*
X16681610Y-12140174D01*
X16681610Y-12140174D02*
X16672087Y-12149698D01*
X16881611Y-12263984D02*
X16862563Y-12254460D01*
X16862563Y-12254460D02*
X16853039Y-12244936D01*
X16853039Y-12244936D02*
X16843515Y-12225888D01*
X16843515Y-12225888D02*
X16843515Y-12168746D01*
X16843515Y-12168746D02*
X16853039Y-12149698D01*
X16853039Y-12149698D02*
X16862563Y-12140174D01*
X16862563Y-12140174D02*
X16881611Y-12130650D01*
X16881611Y-12130650D02*
X16910182Y-12130650D01*
X16910182Y-12130650D02*
X16929230Y-12140174D01*
X16929230Y-12140174D02*
X16938753Y-12149698D01*
X16938753Y-12149698D02*
X16948277Y-12168746D01*
X16948277Y-12168746D02*
X16948277Y-12225888D01*
X16948277Y-12225888D02*
X16938753Y-12244936D01*
X16938753Y-12244936D02*
X16929230Y-12254460D01*
X16929230Y-12254460D02*
X16910182Y-12263984D01*
X16910182Y-12263984D02*
X16881611Y-12263984D01*
X17062563Y-12263984D02*
X17043515Y-12254460D01*
X17043515Y-12254460D02*
X17033992Y-12235412D01*
X17033992Y-12235412D02*
X17033992Y-12063984D01*
X17214944Y-12254460D02*
X17195896Y-12263984D01*
X17195896Y-12263984D02*
X17157801Y-12263984D01*
X17157801Y-12263984D02*
X17138753Y-12254460D01*
X17138753Y-12254460D02*
X17129230Y-12235412D01*
X17129230Y-12235412D02*
X17129230Y-12159222D01*
X17129230Y-12159222D02*
X17138753Y-12140174D01*
X17138753Y-12140174D02*
X17157801Y-12130650D01*
X17157801Y-12130650D02*
X17195896Y-12130650D01*
X17195896Y-12130650D02*
X17214944Y-12140174D01*
X17214944Y-12140174D02*
X17224468Y-12159222D01*
X17224468Y-12159222D02*
X17224468Y-12178269D01*
X17224468Y-12178269D02*
X17129230Y-12197317D01*
X17300658Y-12254460D02*
X17319706Y-12263984D01*
X17319706Y-12263984D02*
X17357801Y-12263984D01*
X17357801Y-12263984D02*
X17376849Y-12254460D01*
X17376849Y-12254460D02*
X17386373Y-12235412D01*
X17386373Y-12235412D02*
X17386373Y-12225888D01*
X17386373Y-12225888D02*
X17376849Y-12206841D01*
X17376849Y-12206841D02*
X17357801Y-12197317D01*
X17357801Y-12197317D02*
X17329230Y-12197317D01*
X17329230Y-12197317D02*
X17310182Y-12187793D01*
X17310182Y-12187793D02*
X17300658Y-12168746D01*
X17300658Y-12168746D02*
X17300658Y-12159222D01*
X17300658Y-12159222D02*
X17310182Y-12140174D01*
X17310182Y-12140174D02*
X17329230Y-12130650D01*
X17329230Y-12130650D02*
X17357801Y-12130650D01*
X17357801Y-12130650D02*
X17376849Y-12140174D01*
X17453039Y-12340174D02*
X17462563Y-12330650D01*
X17462563Y-12330650D02*
X17481611Y-12302079D01*
X17481611Y-12302079D02*
X17491134Y-12283031D01*
X17491134Y-12283031D02*
X17500658Y-12254460D01*
X17500658Y-12254460D02*
X17510182Y-12206841D01*
X17510182Y-12206841D02*
X17510182Y-12168746D01*
X17510182Y-12168746D02*
X17500658Y-12121127D01*
X17500658Y-12121127D02*
X17491134Y-12092555D01*
X17491134Y-12092555D02*
X17481611Y-12073508D01*
X17481611Y-12073508D02*
X17462563Y-12044936D01*
X17462563Y-12044936D02*
X17453039Y-12035412D01*
D12*
X12487500Y-12436500D02*
G75*
G02*
X12434160Y-12436500I-26670J0D01*
G01*
X12434160Y-12436500D02*
G75*
G02*
X12487500Y-12436500I26670J0D01*
G01*
D11*
X12786372Y-12327984D02*
X12805420Y-12327984D01*
X12805420Y-12327984D02*
X12824467Y-12337508D01*
X12824467Y-12337508D02*
X12833991Y-12347031D01*
X12833991Y-12347031D02*
X12843515Y-12366079D01*
X12843515Y-12366079D02*
X12853039Y-12404174D01*
X12853039Y-12404174D02*
X12853039Y-12451793D01*
X12853039Y-12451793D02*
X12843515Y-12489888D01*
X12843515Y-12489888D02*
X12833991Y-12508936D01*
X12833991Y-12508936D02*
X12824467Y-12518460D01*
X12824467Y-12518460D02*
X12805420Y-12527984D01*
X12805420Y-12527984D02*
X12786372Y-12527984D01*
X12786372Y-12527984D02*
X12767324Y-12518460D01*
X12767324Y-12518460D02*
X12757801Y-12508936D01*
X12757801Y-12508936D02*
X12748277Y-12489888D01*
X12748277Y-12489888D02*
X12738753Y-12451793D01*
X12738753Y-12451793D02*
X12738753Y-12404174D01*
X12738753Y-12404174D02*
X12748277Y-12366079D01*
X12748277Y-12366079D02*
X12757801Y-12347031D01*
X12757801Y-12347031D02*
X12767324Y-12337508D01*
X12767324Y-12337508D02*
X12786372Y-12327984D01*
X12938753Y-12508936D02*
X12948277Y-12518460D01*
X12948277Y-12518460D02*
X12938753Y-12527984D01*
X12938753Y-12527984D02*
X12929229Y-12518460D01*
X12929229Y-12518460D02*
X12938753Y-12508936D01*
X12938753Y-12508936D02*
X12938753Y-12527984D01*
X13129229Y-12327984D02*
X13033991Y-12327984D01*
X13033991Y-12327984D02*
X13024467Y-12423222D01*
X13024467Y-12423222D02*
X13033991Y-12413698D01*
X13033991Y-12413698D02*
X13053039Y-12404174D01*
X13053039Y-12404174D02*
X13100658Y-12404174D01*
X13100658Y-12404174D02*
X13119705Y-12413698D01*
X13119705Y-12413698D02*
X13129229Y-12423222D01*
X13129229Y-12423222D02*
X13138753Y-12442269D01*
X13138753Y-12442269D02*
X13138753Y-12489888D01*
X13138753Y-12489888D02*
X13129229Y-12508936D01*
X13129229Y-12508936D02*
X13119705Y-12518460D01*
X13119705Y-12518460D02*
X13100658Y-12527984D01*
X13100658Y-12527984D02*
X13053039Y-12527984D01*
X13053039Y-12527984D02*
X13033991Y-12518460D01*
X13033991Y-12518460D02*
X13024467Y-12508936D01*
X13205420Y-12327984D02*
X13329229Y-12327984D01*
X13329229Y-12327984D02*
X13262562Y-12404174D01*
X13262562Y-12404174D02*
X13291134Y-12404174D01*
X13291134Y-12404174D02*
X13310182Y-12413698D01*
X13310182Y-12413698D02*
X13319705Y-12423222D01*
X13319705Y-12423222D02*
X13329229Y-12442269D01*
X13329229Y-12442269D02*
X13329229Y-12489888D01*
X13329229Y-12489888D02*
X13319705Y-12508936D01*
X13319705Y-12508936D02*
X13310182Y-12518460D01*
X13310182Y-12518460D02*
X13291134Y-12527984D01*
X13291134Y-12527984D02*
X13233991Y-12527984D01*
X13233991Y-12527984D02*
X13214943Y-12518460D01*
X13214943Y-12518460D02*
X13205420Y-12508936D01*
X13395896Y-12327984D02*
X13519705Y-12327984D01*
X13519705Y-12327984D02*
X13453039Y-12404174D01*
X13453039Y-12404174D02*
X13481610Y-12404174D01*
X13481610Y-12404174D02*
X13500658Y-12413698D01*
X13500658Y-12413698D02*
X13510182Y-12423222D01*
X13510182Y-12423222D02*
X13519705Y-12442269D01*
X13519705Y-12442269D02*
X13519705Y-12489888D01*
X13519705Y-12489888D02*
X13510182Y-12508936D01*
X13510182Y-12508936D02*
X13500658Y-12518460D01*
X13500658Y-12518460D02*
X13481610Y-12527984D01*
X13481610Y-12527984D02*
X13424467Y-12527984D01*
X13424467Y-12527984D02*
X13405420Y-12518460D01*
X13405420Y-12518460D02*
X13395896Y-12508936D01*
X13605420Y-12527984D02*
X13605420Y-12394650D01*
X13605420Y-12413698D02*
X13614943Y-12404174D01*
X13614943Y-12404174D02*
X13633991Y-12394650D01*
X13633991Y-12394650D02*
X13662563Y-12394650D01*
X13662563Y-12394650D02*
X13681610Y-12404174D01*
X13681610Y-12404174D02*
X13691134Y-12423222D01*
X13691134Y-12423222D02*
X13691134Y-12527984D01*
X13691134Y-12423222D02*
X13700658Y-12404174D01*
X13700658Y-12404174D02*
X13719705Y-12394650D01*
X13719705Y-12394650D02*
X13748277Y-12394650D01*
X13748277Y-12394650D02*
X13767324Y-12404174D01*
X13767324Y-12404174D02*
X13776848Y-12423222D01*
X13776848Y-12423222D02*
X13776848Y-12527984D01*
X13872086Y-12527984D02*
X13872086Y-12394650D01*
X13872086Y-12413698D02*
X13881610Y-12404174D01*
X13881610Y-12404174D02*
X13900658Y-12394650D01*
X13900658Y-12394650D02*
X13929229Y-12394650D01*
X13929229Y-12394650D02*
X13948277Y-12404174D01*
X13948277Y-12404174D02*
X13957801Y-12423222D01*
X13957801Y-12423222D02*
X13957801Y-12527984D01*
X13957801Y-12423222D02*
X13967324Y-12404174D01*
X13967324Y-12404174D02*
X13986372Y-12394650D01*
X13986372Y-12394650D02*
X14014943Y-12394650D01*
X14014943Y-12394650D02*
X14033991Y-12404174D01*
X14033991Y-12404174D02*
X14043515Y-12423222D01*
X14043515Y-12423222D02*
X14043515Y-12527984D01*
X14433991Y-12318460D02*
X14262563Y-12575603D01*
X14691134Y-12327984D02*
X14710182Y-12327984D01*
X14710182Y-12327984D02*
X14729229Y-12337508D01*
X14729229Y-12337508D02*
X14738753Y-12347031D01*
X14738753Y-12347031D02*
X14748277Y-12366079D01*
X14748277Y-12366079D02*
X14757801Y-12404174D01*
X14757801Y-12404174D02*
X14757801Y-12451793D01*
X14757801Y-12451793D02*
X14748277Y-12489888D01*
X14748277Y-12489888D02*
X14738753Y-12508936D01*
X14738753Y-12508936D02*
X14729229Y-12518460D01*
X14729229Y-12518460D02*
X14710182Y-12527984D01*
X14710182Y-12527984D02*
X14691134Y-12527984D01*
X14691134Y-12527984D02*
X14672086Y-12518460D01*
X14672086Y-12518460D02*
X14662563Y-12508936D01*
X14662563Y-12508936D02*
X14653039Y-12489888D01*
X14653039Y-12489888D02*
X14643515Y-12451793D01*
X14643515Y-12451793D02*
X14643515Y-12404174D01*
X14643515Y-12404174D02*
X14653039Y-12366079D01*
X14653039Y-12366079D02*
X14662563Y-12347031D01*
X14662563Y-12347031D02*
X14672086Y-12337508D01*
X14672086Y-12337508D02*
X14691134Y-12327984D01*
X14843515Y-12508936D02*
X14853039Y-12518460D01*
X14853039Y-12518460D02*
X14843515Y-12527984D01*
X14843515Y-12527984D02*
X14833991Y-12518460D01*
X14833991Y-12518460D02*
X14843515Y-12508936D01*
X14843515Y-12508936D02*
X14843515Y-12527984D01*
X14976848Y-12327984D02*
X14995896Y-12327984D01*
X14995896Y-12327984D02*
X15014944Y-12337508D01*
X15014944Y-12337508D02*
X15024467Y-12347031D01*
X15024467Y-12347031D02*
X15033991Y-12366079D01*
X15033991Y-12366079D02*
X15043515Y-12404174D01*
X15043515Y-12404174D02*
X15043515Y-12451793D01*
X15043515Y-12451793D02*
X15033991Y-12489888D01*
X15033991Y-12489888D02*
X15024467Y-12508936D01*
X15024467Y-12508936D02*
X15014944Y-12518460D01*
X15014944Y-12518460D02*
X14995896Y-12527984D01*
X14995896Y-12527984D02*
X14976848Y-12527984D01*
X14976848Y-12527984D02*
X14957801Y-12518460D01*
X14957801Y-12518460D02*
X14948277Y-12508936D01*
X14948277Y-12508936D02*
X14938753Y-12489888D01*
X14938753Y-12489888D02*
X14929229Y-12451793D01*
X14929229Y-12451793D02*
X14929229Y-12404174D01*
X14929229Y-12404174D02*
X14938753Y-12366079D01*
X14938753Y-12366079D02*
X14948277Y-12347031D01*
X14948277Y-12347031D02*
X14957801Y-12337508D01*
X14957801Y-12337508D02*
X14976848Y-12327984D01*
X15119706Y-12347031D02*
X15129229Y-12337508D01*
X15129229Y-12337508D02*
X15148277Y-12327984D01*
X15148277Y-12327984D02*
X15195896Y-12327984D01*
X15195896Y-12327984D02*
X15214944Y-12337508D01*
X15214944Y-12337508D02*
X15224467Y-12347031D01*
X15224467Y-12347031D02*
X15233991Y-12366079D01*
X15233991Y-12366079D02*
X15233991Y-12385127D01*
X15233991Y-12385127D02*
X15224467Y-12413698D01*
X15224467Y-12413698D02*
X15110182Y-12527984D01*
X15110182Y-12527984D02*
X15233991Y-12527984D01*
X15424467Y-12527984D02*
X15310182Y-12527984D01*
X15367325Y-12527984D02*
X15367325Y-12327984D01*
X15367325Y-12327984D02*
X15348277Y-12356555D01*
X15348277Y-12356555D02*
X15329229Y-12375603D01*
X15329229Y-12375603D02*
X15310182Y-12385127D01*
X15548277Y-12327984D02*
X15567325Y-12327984D01*
X15567325Y-12327984D02*
X15586372Y-12337508D01*
X15586372Y-12337508D02*
X15595896Y-12347031D01*
X15595896Y-12347031D02*
X15605420Y-12366079D01*
X15605420Y-12366079D02*
X15614944Y-12404174D01*
X15614944Y-12404174D02*
X15614944Y-12451793D01*
X15614944Y-12451793D02*
X15605420Y-12489888D01*
X15605420Y-12489888D02*
X15595896Y-12508936D01*
X15595896Y-12508936D02*
X15586372Y-12518460D01*
X15586372Y-12518460D02*
X15567325Y-12527984D01*
X15567325Y-12527984D02*
X15548277Y-12527984D01*
X15548277Y-12527984D02*
X15529229Y-12518460D01*
X15529229Y-12518460D02*
X15519706Y-12508936D01*
X15519706Y-12508936D02*
X15510182Y-12489888D01*
X15510182Y-12489888D02*
X15500658Y-12451793D01*
X15500658Y-12451793D02*
X15500658Y-12404174D01*
X15500658Y-12404174D02*
X15510182Y-12366079D01*
X15510182Y-12366079D02*
X15519706Y-12347031D01*
X15519706Y-12347031D02*
X15529229Y-12337508D01*
X15529229Y-12337508D02*
X15548277Y-12327984D01*
X15691134Y-12327984D02*
X15691134Y-12366079D01*
X15767325Y-12327984D02*
X15767325Y-12366079D01*
X16062563Y-12604174D02*
X16053039Y-12594650D01*
X16053039Y-12594650D02*
X16033991Y-12566079D01*
X16033991Y-12566079D02*
X16024468Y-12547031D01*
X16024468Y-12547031D02*
X16014944Y-12518460D01*
X16014944Y-12518460D02*
X16005420Y-12470841D01*
X16005420Y-12470841D02*
X16005420Y-12432746D01*
X16005420Y-12432746D02*
X16014944Y-12385127D01*
X16014944Y-12385127D02*
X16024468Y-12356555D01*
X16024468Y-12356555D02*
X16033991Y-12337508D01*
X16033991Y-12337508D02*
X16053039Y-12308936D01*
X16053039Y-12308936D02*
X16062563Y-12299412D01*
X16243515Y-12527984D02*
X16129229Y-12527984D01*
X16186372Y-12527984D02*
X16186372Y-12327984D01*
X16186372Y-12327984D02*
X16167325Y-12356555D01*
X16167325Y-12356555D02*
X16148277Y-12375603D01*
X16148277Y-12375603D02*
X16129229Y-12385127D01*
X16424468Y-12327984D02*
X16329229Y-12327984D01*
X16329229Y-12327984D02*
X16319706Y-12423222D01*
X16319706Y-12423222D02*
X16329229Y-12413698D01*
X16329229Y-12413698D02*
X16348277Y-12404174D01*
X16348277Y-12404174D02*
X16395896Y-12404174D01*
X16395896Y-12404174D02*
X16414944Y-12413698D01*
X16414944Y-12413698D02*
X16424468Y-12423222D01*
X16424468Y-12423222D02*
X16433991Y-12442269D01*
X16433991Y-12442269D02*
X16433991Y-12489888D01*
X16433991Y-12489888D02*
X16424468Y-12508936D01*
X16424468Y-12508936D02*
X16414944Y-12518460D01*
X16414944Y-12518460D02*
X16395896Y-12527984D01*
X16395896Y-12527984D02*
X16348277Y-12527984D01*
X16348277Y-12527984D02*
X16329229Y-12518460D01*
X16329229Y-12518460D02*
X16319706Y-12508936D01*
X16672087Y-12527984D02*
X16672087Y-12327984D01*
X16757801Y-12527984D02*
X16757801Y-12423222D01*
X16757801Y-12423222D02*
X16748277Y-12404174D01*
X16748277Y-12404174D02*
X16729230Y-12394650D01*
X16729230Y-12394650D02*
X16700658Y-12394650D01*
X16700658Y-12394650D02*
X16681610Y-12404174D01*
X16681610Y-12404174D02*
X16672087Y-12413698D01*
X16881611Y-12527984D02*
X16862563Y-12518460D01*
X16862563Y-12518460D02*
X16853039Y-12508936D01*
X16853039Y-12508936D02*
X16843515Y-12489888D01*
X16843515Y-12489888D02*
X16843515Y-12432746D01*
X16843515Y-12432746D02*
X16853039Y-12413698D01*
X16853039Y-12413698D02*
X16862563Y-12404174D01*
X16862563Y-12404174D02*
X16881611Y-12394650D01*
X16881611Y-12394650D02*
X16910182Y-12394650D01*
X16910182Y-12394650D02*
X16929230Y-12404174D01*
X16929230Y-12404174D02*
X16938753Y-12413698D01*
X16938753Y-12413698D02*
X16948277Y-12432746D01*
X16948277Y-12432746D02*
X16948277Y-12489888D01*
X16948277Y-12489888D02*
X16938753Y-12508936D01*
X16938753Y-12508936D02*
X16929230Y-12518460D01*
X16929230Y-12518460D02*
X16910182Y-12527984D01*
X16910182Y-12527984D02*
X16881611Y-12527984D01*
X17062563Y-12527984D02*
X17043515Y-12518460D01*
X17043515Y-12518460D02*
X17033992Y-12499412D01*
X17033992Y-12499412D02*
X17033992Y-12327984D01*
X17214944Y-12518460D02*
X17195896Y-12527984D01*
X17195896Y-12527984D02*
X17157801Y-12527984D01*
X17157801Y-12527984D02*
X17138753Y-12518460D01*
X17138753Y-12518460D02*
X17129230Y-12499412D01*
X17129230Y-12499412D02*
X17129230Y-12423222D01*
X17129230Y-12423222D02*
X17138753Y-12404174D01*
X17138753Y-12404174D02*
X17157801Y-12394650D01*
X17157801Y-12394650D02*
X17195896Y-12394650D01*
X17195896Y-12394650D02*
X17214944Y-12404174D01*
X17214944Y-12404174D02*
X17224468Y-12423222D01*
X17224468Y-12423222D02*
X17224468Y-12442269D01*
X17224468Y-12442269D02*
X17129230Y-12461317D01*
X17300658Y-12518460D02*
X17319706Y-12527984D01*
X17319706Y-12527984D02*
X17357801Y-12527984D01*
X17357801Y-12527984D02*
X17376849Y-12518460D01*
X17376849Y-12518460D02*
X17386373Y-12499412D01*
X17386373Y-12499412D02*
X17386373Y-12489888D01*
X17386373Y-12489888D02*
X17376849Y-12470841D01*
X17376849Y-12470841D02*
X17357801Y-12461317D01*
X17357801Y-12461317D02*
X17329230Y-12461317D01*
X17329230Y-12461317D02*
X17310182Y-12451793D01*
X17310182Y-12451793D02*
X17300658Y-12432746D01*
X17300658Y-12432746D02*
X17300658Y-12423222D01*
X17300658Y-12423222D02*
X17310182Y-12404174D01*
X17310182Y-12404174D02*
X17329230Y-12394650D01*
X17329230Y-12394650D02*
X17357801Y-12394650D01*
X17357801Y-12394650D02*
X17376849Y-12404174D01*
X17453039Y-12604174D02*
X17462563Y-12594650D01*
X17462563Y-12594650D02*
X17481611Y-12566079D01*
X17481611Y-12566079D02*
X17491134Y-12547031D01*
X17491134Y-12547031D02*
X17500658Y-12518460D01*
X17500658Y-12518460D02*
X17510182Y-12470841D01*
X17510182Y-12470841D02*
X17510182Y-12432746D01*
X17510182Y-12432746D02*
X17500658Y-12385127D01*
X17500658Y-12385127D02*
X17491134Y-12356555D01*
X17491134Y-12356555D02*
X17481611Y-12337508D01*
X17481611Y-12337508D02*
X17462563Y-12308936D01*
X17462563Y-12308936D02*
X17453039Y-12299412D01*
D12*
X12449400Y-12662400D02*
X12449400Y-12738600D01*
X12411300Y-12700500D02*
X12487500Y-12700500D01*
D11*
X12786372Y-12591984D02*
X12805420Y-12591984D01*
X12805420Y-12591984D02*
X12824467Y-12601508D01*
X12824467Y-12601508D02*
X12833991Y-12611031D01*
X12833991Y-12611031D02*
X12843515Y-12630079D01*
X12843515Y-12630079D02*
X12853039Y-12668174D01*
X12853039Y-12668174D02*
X12853039Y-12715793D01*
X12853039Y-12715793D02*
X12843515Y-12753888D01*
X12843515Y-12753888D02*
X12833991Y-12772936D01*
X12833991Y-12772936D02*
X12824467Y-12782460D01*
X12824467Y-12782460D02*
X12805420Y-12791984D01*
X12805420Y-12791984D02*
X12786372Y-12791984D01*
X12786372Y-12791984D02*
X12767324Y-12782460D01*
X12767324Y-12782460D02*
X12757801Y-12772936D01*
X12757801Y-12772936D02*
X12748277Y-12753888D01*
X12748277Y-12753888D02*
X12738753Y-12715793D01*
X12738753Y-12715793D02*
X12738753Y-12668174D01*
X12738753Y-12668174D02*
X12748277Y-12630079D01*
X12748277Y-12630079D02*
X12757801Y-12611031D01*
X12757801Y-12611031D02*
X12767324Y-12601508D01*
X12767324Y-12601508D02*
X12786372Y-12591984D01*
X12938753Y-12772936D02*
X12948277Y-12782460D01*
X12948277Y-12782460D02*
X12938753Y-12791984D01*
X12938753Y-12791984D02*
X12929229Y-12782460D01*
X12929229Y-12782460D02*
X12938753Y-12772936D01*
X12938753Y-12772936D02*
X12938753Y-12791984D01*
X13014943Y-12591984D02*
X13148277Y-12591984D01*
X13148277Y-12591984D02*
X13062562Y-12791984D01*
X13310182Y-12591984D02*
X13272086Y-12591984D01*
X13272086Y-12591984D02*
X13253039Y-12601508D01*
X13253039Y-12601508D02*
X13243515Y-12611031D01*
X13243515Y-12611031D02*
X13224467Y-12639603D01*
X13224467Y-12639603D02*
X13214943Y-12677698D01*
X13214943Y-12677698D02*
X13214943Y-12753888D01*
X13214943Y-12753888D02*
X13224467Y-12772936D01*
X13224467Y-12772936D02*
X13233991Y-12782460D01*
X13233991Y-12782460D02*
X13253039Y-12791984D01*
X13253039Y-12791984D02*
X13291134Y-12791984D01*
X13291134Y-12791984D02*
X13310182Y-12782460D01*
X13310182Y-12782460D02*
X13319705Y-12772936D01*
X13319705Y-12772936D02*
X13329229Y-12753888D01*
X13329229Y-12753888D02*
X13329229Y-12706269D01*
X13329229Y-12706269D02*
X13319705Y-12687222D01*
X13319705Y-12687222D02*
X13310182Y-12677698D01*
X13310182Y-12677698D02*
X13291134Y-12668174D01*
X13291134Y-12668174D02*
X13253039Y-12668174D01*
X13253039Y-12668174D02*
X13233991Y-12677698D01*
X13233991Y-12677698D02*
X13224467Y-12687222D01*
X13224467Y-12687222D02*
X13214943Y-12706269D01*
X13405420Y-12611031D02*
X13414943Y-12601508D01*
X13414943Y-12601508D02*
X13433991Y-12591984D01*
X13433991Y-12591984D02*
X13481610Y-12591984D01*
X13481610Y-12591984D02*
X13500658Y-12601508D01*
X13500658Y-12601508D02*
X13510182Y-12611031D01*
X13510182Y-12611031D02*
X13519705Y-12630079D01*
X13519705Y-12630079D02*
X13519705Y-12649127D01*
X13519705Y-12649127D02*
X13510182Y-12677698D01*
X13510182Y-12677698D02*
X13395896Y-12791984D01*
X13395896Y-12791984D02*
X13519705Y-12791984D01*
X13605420Y-12791984D02*
X13605420Y-12658650D01*
X13605420Y-12677698D02*
X13614943Y-12668174D01*
X13614943Y-12668174D02*
X13633991Y-12658650D01*
X13633991Y-12658650D02*
X13662563Y-12658650D01*
X13662563Y-12658650D02*
X13681610Y-12668174D01*
X13681610Y-12668174D02*
X13691134Y-12687222D01*
X13691134Y-12687222D02*
X13691134Y-12791984D01*
X13691134Y-12687222D02*
X13700658Y-12668174D01*
X13700658Y-12668174D02*
X13719705Y-12658650D01*
X13719705Y-12658650D02*
X13748277Y-12658650D01*
X13748277Y-12658650D02*
X13767324Y-12668174D01*
X13767324Y-12668174D02*
X13776848Y-12687222D01*
X13776848Y-12687222D02*
X13776848Y-12791984D01*
X13872086Y-12791984D02*
X13872086Y-12658650D01*
X13872086Y-12677698D02*
X13881610Y-12668174D01*
X13881610Y-12668174D02*
X13900658Y-12658650D01*
X13900658Y-12658650D02*
X13929229Y-12658650D01*
X13929229Y-12658650D02*
X13948277Y-12668174D01*
X13948277Y-12668174D02*
X13957801Y-12687222D01*
X13957801Y-12687222D02*
X13957801Y-12791984D01*
X13957801Y-12687222D02*
X13967324Y-12668174D01*
X13967324Y-12668174D02*
X13986372Y-12658650D01*
X13986372Y-12658650D02*
X14014943Y-12658650D01*
X14014943Y-12658650D02*
X14033991Y-12668174D01*
X14033991Y-12668174D02*
X14043515Y-12687222D01*
X14043515Y-12687222D02*
X14043515Y-12791984D01*
X14433991Y-12582460D02*
X14262563Y-12839603D01*
X14691134Y-12591984D02*
X14710182Y-12591984D01*
X14710182Y-12591984D02*
X14729229Y-12601508D01*
X14729229Y-12601508D02*
X14738753Y-12611031D01*
X14738753Y-12611031D02*
X14748277Y-12630079D01*
X14748277Y-12630079D02*
X14757801Y-12668174D01*
X14757801Y-12668174D02*
X14757801Y-12715793D01*
X14757801Y-12715793D02*
X14748277Y-12753888D01*
X14748277Y-12753888D02*
X14738753Y-12772936D01*
X14738753Y-12772936D02*
X14729229Y-12782460D01*
X14729229Y-12782460D02*
X14710182Y-12791984D01*
X14710182Y-12791984D02*
X14691134Y-12791984D01*
X14691134Y-12791984D02*
X14672086Y-12782460D01*
X14672086Y-12782460D02*
X14662563Y-12772936D01*
X14662563Y-12772936D02*
X14653039Y-12753888D01*
X14653039Y-12753888D02*
X14643515Y-12715793D01*
X14643515Y-12715793D02*
X14643515Y-12668174D01*
X14643515Y-12668174D02*
X14653039Y-12630079D01*
X14653039Y-12630079D02*
X14662563Y-12611031D01*
X14662563Y-12611031D02*
X14672086Y-12601508D01*
X14672086Y-12601508D02*
X14691134Y-12591984D01*
X14843515Y-12772936D02*
X14853039Y-12782460D01*
X14853039Y-12782460D02*
X14843515Y-12791984D01*
X14843515Y-12791984D02*
X14833991Y-12782460D01*
X14833991Y-12782460D02*
X14843515Y-12772936D01*
X14843515Y-12772936D02*
X14843515Y-12791984D01*
X14976848Y-12591984D02*
X14995896Y-12591984D01*
X14995896Y-12591984D02*
X15014944Y-12601508D01*
X15014944Y-12601508D02*
X15024467Y-12611031D01*
X15024467Y-12611031D02*
X15033991Y-12630079D01*
X15033991Y-12630079D02*
X15043515Y-12668174D01*
X15043515Y-12668174D02*
X15043515Y-12715793D01*
X15043515Y-12715793D02*
X15033991Y-12753888D01*
X15033991Y-12753888D02*
X15024467Y-12772936D01*
X15024467Y-12772936D02*
X15014944Y-12782460D01*
X15014944Y-12782460D02*
X14995896Y-12791984D01*
X14995896Y-12791984D02*
X14976848Y-12791984D01*
X14976848Y-12791984D02*
X14957801Y-12782460D01*
X14957801Y-12782460D02*
X14948277Y-12772936D01*
X14948277Y-12772936D02*
X14938753Y-12753888D01*
X14938753Y-12753888D02*
X14929229Y-12715793D01*
X14929229Y-12715793D02*
X14929229Y-12668174D01*
X14929229Y-12668174D02*
X14938753Y-12630079D01*
X14938753Y-12630079D02*
X14948277Y-12611031D01*
X14948277Y-12611031D02*
X14957801Y-12601508D01*
X14957801Y-12601508D02*
X14976848Y-12591984D01*
X15110182Y-12591984D02*
X15233991Y-12591984D01*
X15233991Y-12591984D02*
X15167325Y-12668174D01*
X15167325Y-12668174D02*
X15195896Y-12668174D01*
X15195896Y-12668174D02*
X15214944Y-12677698D01*
X15214944Y-12677698D02*
X15224467Y-12687222D01*
X15224467Y-12687222D02*
X15233991Y-12706269D01*
X15233991Y-12706269D02*
X15233991Y-12753888D01*
X15233991Y-12753888D02*
X15224467Y-12772936D01*
X15224467Y-12772936D02*
X15214944Y-12782460D01*
X15214944Y-12782460D02*
X15195896Y-12791984D01*
X15195896Y-12791984D02*
X15138753Y-12791984D01*
X15138753Y-12791984D02*
X15119706Y-12782460D01*
X15119706Y-12782460D02*
X15110182Y-12772936D01*
X15357801Y-12591984D02*
X15376848Y-12591984D01*
X15376848Y-12591984D02*
X15395896Y-12601508D01*
X15395896Y-12601508D02*
X15405420Y-12611031D01*
X15405420Y-12611031D02*
X15414944Y-12630079D01*
X15414944Y-12630079D02*
X15424467Y-12668174D01*
X15424467Y-12668174D02*
X15424467Y-12715793D01*
X15424467Y-12715793D02*
X15414944Y-12753888D01*
X15414944Y-12753888D02*
X15405420Y-12772936D01*
X15405420Y-12772936D02*
X15395896Y-12782460D01*
X15395896Y-12782460D02*
X15376848Y-12791984D01*
X15376848Y-12791984D02*
X15357801Y-12791984D01*
X15357801Y-12791984D02*
X15338753Y-12782460D01*
X15338753Y-12782460D02*
X15329229Y-12772936D01*
X15329229Y-12772936D02*
X15319706Y-12753888D01*
X15319706Y-12753888D02*
X15310182Y-12715793D01*
X15310182Y-12715793D02*
X15310182Y-12668174D01*
X15310182Y-12668174D02*
X15319706Y-12630079D01*
X15319706Y-12630079D02*
X15329229Y-12611031D01*
X15329229Y-12611031D02*
X15338753Y-12601508D01*
X15338753Y-12601508D02*
X15357801Y-12591984D01*
X15548277Y-12591984D02*
X15567325Y-12591984D01*
X15567325Y-12591984D02*
X15586372Y-12601508D01*
X15586372Y-12601508D02*
X15595896Y-12611031D01*
X15595896Y-12611031D02*
X15605420Y-12630079D01*
X15605420Y-12630079D02*
X15614944Y-12668174D01*
X15614944Y-12668174D02*
X15614944Y-12715793D01*
X15614944Y-12715793D02*
X15605420Y-12753888D01*
X15605420Y-12753888D02*
X15595896Y-12772936D01*
X15595896Y-12772936D02*
X15586372Y-12782460D01*
X15586372Y-12782460D02*
X15567325Y-12791984D01*
X15567325Y-12791984D02*
X15548277Y-12791984D01*
X15548277Y-12791984D02*
X15529229Y-12782460D01*
X15529229Y-12782460D02*
X15519706Y-12772936D01*
X15519706Y-12772936D02*
X15510182Y-12753888D01*
X15510182Y-12753888D02*
X15500658Y-12715793D01*
X15500658Y-12715793D02*
X15500658Y-12668174D01*
X15500658Y-12668174D02*
X15510182Y-12630079D01*
X15510182Y-12630079D02*
X15519706Y-12611031D01*
X15519706Y-12611031D02*
X15529229Y-12601508D01*
X15529229Y-12601508D02*
X15548277Y-12591984D01*
X15691134Y-12591984D02*
X15691134Y-12630079D01*
X15767325Y-12591984D02*
X15767325Y-12630079D01*
X16062563Y-12868174D02*
X16053039Y-12858650D01*
X16053039Y-12858650D02*
X16033991Y-12830079D01*
X16033991Y-12830079D02*
X16024468Y-12811031D01*
X16024468Y-12811031D02*
X16014944Y-12782460D01*
X16014944Y-12782460D02*
X16005420Y-12734841D01*
X16005420Y-12734841D02*
X16005420Y-12696746D01*
X16005420Y-12696746D02*
X16014944Y-12649127D01*
X16014944Y-12649127D02*
X16024468Y-12620555D01*
X16024468Y-12620555D02*
X16033991Y-12601508D01*
X16033991Y-12601508D02*
X16053039Y-12572936D01*
X16053039Y-12572936D02*
X16062563Y-12563412D01*
X16129229Y-12611031D02*
X16138753Y-12601508D01*
X16138753Y-12601508D02*
X16157801Y-12591984D01*
X16157801Y-12591984D02*
X16205420Y-12591984D01*
X16205420Y-12591984D02*
X16224468Y-12601508D01*
X16224468Y-12601508D02*
X16233991Y-12611031D01*
X16233991Y-12611031D02*
X16243515Y-12630079D01*
X16243515Y-12630079D02*
X16243515Y-12649127D01*
X16243515Y-12649127D02*
X16233991Y-12677698D01*
X16233991Y-12677698D02*
X16119706Y-12791984D01*
X16119706Y-12791984D02*
X16243515Y-12791984D01*
X16367325Y-12591984D02*
X16386372Y-12591984D01*
X16386372Y-12591984D02*
X16405420Y-12601508D01*
X16405420Y-12601508D02*
X16414944Y-12611031D01*
X16414944Y-12611031D02*
X16424468Y-12630079D01*
X16424468Y-12630079D02*
X16433991Y-12668174D01*
X16433991Y-12668174D02*
X16433991Y-12715793D01*
X16433991Y-12715793D02*
X16424468Y-12753888D01*
X16424468Y-12753888D02*
X16414944Y-12772936D01*
X16414944Y-12772936D02*
X16405420Y-12782460D01*
X16405420Y-12782460D02*
X16386372Y-12791984D01*
X16386372Y-12791984D02*
X16367325Y-12791984D01*
X16367325Y-12791984D02*
X16348277Y-12782460D01*
X16348277Y-12782460D02*
X16338753Y-12772936D01*
X16338753Y-12772936D02*
X16329229Y-12753888D01*
X16329229Y-12753888D02*
X16319706Y-12715793D01*
X16319706Y-12715793D02*
X16319706Y-12668174D01*
X16319706Y-12668174D02*
X16329229Y-12630079D01*
X16329229Y-12630079D02*
X16338753Y-12611031D01*
X16338753Y-12611031D02*
X16348277Y-12601508D01*
X16348277Y-12601508D02*
X16367325Y-12591984D01*
X16672087Y-12791984D02*
X16672087Y-12591984D01*
X16757801Y-12791984D02*
X16757801Y-12687222D01*
X16757801Y-12687222D02*
X16748277Y-12668174D01*
X16748277Y-12668174D02*
X16729230Y-12658650D01*
X16729230Y-12658650D02*
X16700658Y-12658650D01*
X16700658Y-12658650D02*
X16681610Y-12668174D01*
X16681610Y-12668174D02*
X16672087Y-12677698D01*
X16881611Y-12791984D02*
X16862563Y-12782460D01*
X16862563Y-12782460D02*
X16853039Y-12772936D01*
X16853039Y-12772936D02*
X16843515Y-12753888D01*
X16843515Y-12753888D02*
X16843515Y-12696746D01*
X16843515Y-12696746D02*
X16853039Y-12677698D01*
X16853039Y-12677698D02*
X16862563Y-12668174D01*
X16862563Y-12668174D02*
X16881611Y-12658650D01*
X16881611Y-12658650D02*
X16910182Y-12658650D01*
X16910182Y-12658650D02*
X16929230Y-12668174D01*
X16929230Y-12668174D02*
X16938753Y-12677698D01*
X16938753Y-12677698D02*
X16948277Y-12696746D01*
X16948277Y-12696746D02*
X16948277Y-12753888D01*
X16948277Y-12753888D02*
X16938753Y-12772936D01*
X16938753Y-12772936D02*
X16929230Y-12782460D01*
X16929230Y-12782460D02*
X16910182Y-12791984D01*
X16910182Y-12791984D02*
X16881611Y-12791984D01*
X17062563Y-12791984D02*
X17043515Y-12782460D01*
X17043515Y-12782460D02*
X17033992Y-12763412D01*
X17033992Y-12763412D02*
X17033992Y-12591984D01*
X17214944Y-12782460D02*
X17195896Y-12791984D01*
X17195896Y-12791984D02*
X17157801Y-12791984D01*
X17157801Y-12791984D02*
X17138753Y-12782460D01*
X17138753Y-12782460D02*
X17129230Y-12763412D01*
X17129230Y-12763412D02*
X17129230Y-12687222D01*
X17129230Y-12687222D02*
X17138753Y-12668174D01*
X17138753Y-12668174D02*
X17157801Y-12658650D01*
X17157801Y-12658650D02*
X17195896Y-12658650D01*
X17195896Y-12658650D02*
X17214944Y-12668174D01*
X17214944Y-12668174D02*
X17224468Y-12687222D01*
X17224468Y-12687222D02*
X17224468Y-12706269D01*
X17224468Y-12706269D02*
X17129230Y-12725317D01*
X17300658Y-12782460D02*
X17319706Y-12791984D01*
X17319706Y-12791984D02*
X17357801Y-12791984D01*
X17357801Y-12791984D02*
X17376849Y-12782460D01*
X17376849Y-12782460D02*
X17386373Y-12763412D01*
X17386373Y-12763412D02*
X17386373Y-12753888D01*
X17386373Y-12753888D02*
X17376849Y-12734841D01*
X17376849Y-12734841D02*
X17357801Y-12725317D01*
X17357801Y-12725317D02*
X17329230Y-12725317D01*
X17329230Y-12725317D02*
X17310182Y-12715793D01*
X17310182Y-12715793D02*
X17300658Y-12696746D01*
X17300658Y-12696746D02*
X17300658Y-12687222D01*
X17300658Y-12687222D02*
X17310182Y-12668174D01*
X17310182Y-12668174D02*
X17329230Y-12658650D01*
X17329230Y-12658650D02*
X17357801Y-12658650D01*
X17357801Y-12658650D02*
X17376849Y-12668174D01*
X17453039Y-12868174D02*
X17462563Y-12858650D01*
X17462563Y-12858650D02*
X17481611Y-12830079D01*
X17481611Y-12830079D02*
X17491134Y-12811031D01*
X17491134Y-12811031D02*
X17500658Y-12782460D01*
X17500658Y-12782460D02*
X17510182Y-12734841D01*
X17510182Y-12734841D02*
X17510182Y-12696746D01*
X17510182Y-12696746D02*
X17500658Y-12649127D01*
X17500658Y-12649127D02*
X17491134Y-12620555D01*
X17491134Y-12620555D02*
X17481611Y-12601508D01*
X17481611Y-12601508D02*
X17462563Y-12572936D01*
X17462563Y-12572936D02*
X17453039Y-12563412D01*
D12*
X12472856Y-12999856D02*
X12472856Y-12929144D01*
X12402144Y-12929144D01*
X12402144Y-12999856D01*
X12472856Y-12999856D01*
D11*
X12853039Y-13055984D02*
X12738753Y-13055984D01*
X12795896Y-13055984D02*
X12795896Y-12855984D01*
X12795896Y-12855984D02*
X12776848Y-12884555D01*
X12776848Y-12884555D02*
X12757801Y-12903603D01*
X12757801Y-12903603D02*
X12738753Y-12913127D01*
X12938753Y-13036936D02*
X12948277Y-13046460D01*
X12948277Y-13046460D02*
X12938753Y-13055984D01*
X12938753Y-13055984D02*
X12929229Y-13046460D01*
X12929229Y-13046460D02*
X12938753Y-13036936D01*
X12938753Y-13036936D02*
X12938753Y-13055984D01*
X13072086Y-12855984D02*
X13091134Y-12855984D01*
X13091134Y-12855984D02*
X13110182Y-12865508D01*
X13110182Y-12865508D02*
X13119705Y-12875031D01*
X13119705Y-12875031D02*
X13129229Y-12894079D01*
X13129229Y-12894079D02*
X13138753Y-12932174D01*
X13138753Y-12932174D02*
X13138753Y-12979793D01*
X13138753Y-12979793D02*
X13129229Y-13017888D01*
X13129229Y-13017888D02*
X13119705Y-13036936D01*
X13119705Y-13036936D02*
X13110182Y-13046460D01*
X13110182Y-13046460D02*
X13091134Y-13055984D01*
X13091134Y-13055984D02*
X13072086Y-13055984D01*
X13072086Y-13055984D02*
X13053039Y-13046460D01*
X13053039Y-13046460D02*
X13043515Y-13036936D01*
X13043515Y-13036936D02*
X13033991Y-13017888D01*
X13033991Y-13017888D02*
X13024467Y-12979793D01*
X13024467Y-12979793D02*
X13024467Y-12932174D01*
X13024467Y-12932174D02*
X13033991Y-12894079D01*
X13033991Y-12894079D02*
X13043515Y-12875031D01*
X13043515Y-12875031D02*
X13053039Y-12865508D01*
X13053039Y-12865508D02*
X13072086Y-12855984D01*
X13262562Y-12855984D02*
X13281610Y-12855984D01*
X13281610Y-12855984D02*
X13300658Y-12865508D01*
X13300658Y-12865508D02*
X13310182Y-12875031D01*
X13310182Y-12875031D02*
X13319705Y-12894079D01*
X13319705Y-12894079D02*
X13329229Y-12932174D01*
X13329229Y-12932174D02*
X13329229Y-12979793D01*
X13329229Y-12979793D02*
X13319705Y-13017888D01*
X13319705Y-13017888D02*
X13310182Y-13036936D01*
X13310182Y-13036936D02*
X13300658Y-13046460D01*
X13300658Y-13046460D02*
X13281610Y-13055984D01*
X13281610Y-13055984D02*
X13262562Y-13055984D01*
X13262562Y-13055984D02*
X13243515Y-13046460D01*
X13243515Y-13046460D02*
X13233991Y-13036936D01*
X13233991Y-13036936D02*
X13224467Y-13017888D01*
X13224467Y-13017888D02*
X13214943Y-12979793D01*
X13214943Y-12979793D02*
X13214943Y-12932174D01*
X13214943Y-12932174D02*
X13224467Y-12894079D01*
X13224467Y-12894079D02*
X13233991Y-12875031D01*
X13233991Y-12875031D02*
X13243515Y-12865508D01*
X13243515Y-12865508D02*
X13262562Y-12855984D01*
X13453039Y-12855984D02*
X13472086Y-12855984D01*
X13472086Y-12855984D02*
X13491134Y-12865508D01*
X13491134Y-12865508D02*
X13500658Y-12875031D01*
X13500658Y-12875031D02*
X13510182Y-12894079D01*
X13510182Y-12894079D02*
X13519705Y-12932174D01*
X13519705Y-12932174D02*
X13519705Y-12979793D01*
X13519705Y-12979793D02*
X13510182Y-13017888D01*
X13510182Y-13017888D02*
X13500658Y-13036936D01*
X13500658Y-13036936D02*
X13491134Y-13046460D01*
X13491134Y-13046460D02*
X13472086Y-13055984D01*
X13472086Y-13055984D02*
X13453039Y-13055984D01*
X13453039Y-13055984D02*
X13433991Y-13046460D01*
X13433991Y-13046460D02*
X13424467Y-13036936D01*
X13424467Y-13036936D02*
X13414943Y-13017888D01*
X13414943Y-13017888D02*
X13405420Y-12979793D01*
X13405420Y-12979793D02*
X13405420Y-12932174D01*
X13405420Y-12932174D02*
X13414943Y-12894079D01*
X13414943Y-12894079D02*
X13424467Y-12875031D01*
X13424467Y-12875031D02*
X13433991Y-12865508D01*
X13433991Y-12865508D02*
X13453039Y-12855984D01*
X13605420Y-13055984D02*
X13605420Y-12922650D01*
X13605420Y-12941698D02*
X13614943Y-12932174D01*
X13614943Y-12932174D02*
X13633991Y-12922650D01*
X13633991Y-12922650D02*
X13662563Y-12922650D01*
X13662563Y-12922650D02*
X13681610Y-12932174D01*
X13681610Y-12932174D02*
X13691134Y-12951222D01*
X13691134Y-12951222D02*
X13691134Y-13055984D01*
X13691134Y-12951222D02*
X13700658Y-12932174D01*
X13700658Y-12932174D02*
X13719705Y-12922650D01*
X13719705Y-12922650D02*
X13748277Y-12922650D01*
X13748277Y-12922650D02*
X13767324Y-12932174D01*
X13767324Y-12932174D02*
X13776848Y-12951222D01*
X13776848Y-12951222D02*
X13776848Y-13055984D01*
X13872086Y-13055984D02*
X13872086Y-12922650D01*
X13872086Y-12941698D02*
X13881610Y-12932174D01*
X13881610Y-12932174D02*
X13900658Y-12922650D01*
X13900658Y-12922650D02*
X13929229Y-12922650D01*
X13929229Y-12922650D02*
X13948277Y-12932174D01*
X13948277Y-12932174D02*
X13957801Y-12951222D01*
X13957801Y-12951222D02*
X13957801Y-13055984D01*
X13957801Y-12951222D02*
X13967324Y-12932174D01*
X13967324Y-12932174D02*
X13986372Y-12922650D01*
X13986372Y-12922650D02*
X14014943Y-12922650D01*
X14014943Y-12922650D02*
X14033991Y-12932174D01*
X14033991Y-12932174D02*
X14043515Y-12951222D01*
X14043515Y-12951222D02*
X14043515Y-13055984D01*
X14433991Y-12846460D02*
X14262563Y-13103603D01*
X14691134Y-12855984D02*
X14710182Y-12855984D01*
X14710182Y-12855984D02*
X14729229Y-12865508D01*
X14729229Y-12865508D02*
X14738753Y-12875031D01*
X14738753Y-12875031D02*
X14748277Y-12894079D01*
X14748277Y-12894079D02*
X14757801Y-12932174D01*
X14757801Y-12932174D02*
X14757801Y-12979793D01*
X14757801Y-12979793D02*
X14748277Y-13017888D01*
X14748277Y-13017888D02*
X14738753Y-13036936D01*
X14738753Y-13036936D02*
X14729229Y-13046460D01*
X14729229Y-13046460D02*
X14710182Y-13055984D01*
X14710182Y-13055984D02*
X14691134Y-13055984D01*
X14691134Y-13055984D02*
X14672086Y-13046460D01*
X14672086Y-13046460D02*
X14662563Y-13036936D01*
X14662563Y-13036936D02*
X14653039Y-13017888D01*
X14653039Y-13017888D02*
X14643515Y-12979793D01*
X14643515Y-12979793D02*
X14643515Y-12932174D01*
X14643515Y-12932174D02*
X14653039Y-12894079D01*
X14653039Y-12894079D02*
X14662563Y-12875031D01*
X14662563Y-12875031D02*
X14672086Y-12865508D01*
X14672086Y-12865508D02*
X14691134Y-12855984D01*
X14843515Y-13036936D02*
X14853039Y-13046460D01*
X14853039Y-13046460D02*
X14843515Y-13055984D01*
X14843515Y-13055984D02*
X14833991Y-13046460D01*
X14833991Y-13046460D02*
X14843515Y-13036936D01*
X14843515Y-13036936D02*
X14843515Y-13055984D01*
X14976848Y-12855984D02*
X14995896Y-12855984D01*
X14995896Y-12855984D02*
X15014944Y-12865508D01*
X15014944Y-12865508D02*
X15024467Y-12875031D01*
X15024467Y-12875031D02*
X15033991Y-12894079D01*
X15033991Y-12894079D02*
X15043515Y-12932174D01*
X15043515Y-12932174D02*
X15043515Y-12979793D01*
X15043515Y-12979793D02*
X15033991Y-13017888D01*
X15033991Y-13017888D02*
X15024467Y-13036936D01*
X15024467Y-13036936D02*
X15014944Y-13046460D01*
X15014944Y-13046460D02*
X14995896Y-13055984D01*
X14995896Y-13055984D02*
X14976848Y-13055984D01*
X14976848Y-13055984D02*
X14957801Y-13046460D01*
X14957801Y-13046460D02*
X14948277Y-13036936D01*
X14948277Y-13036936D02*
X14938753Y-13017888D01*
X14938753Y-13017888D02*
X14929229Y-12979793D01*
X14929229Y-12979793D02*
X14929229Y-12932174D01*
X14929229Y-12932174D02*
X14938753Y-12894079D01*
X14938753Y-12894079D02*
X14948277Y-12875031D01*
X14948277Y-12875031D02*
X14957801Y-12865508D01*
X14957801Y-12865508D02*
X14976848Y-12855984D01*
X15110182Y-12855984D02*
X15233991Y-12855984D01*
X15233991Y-12855984D02*
X15167325Y-12932174D01*
X15167325Y-12932174D02*
X15195896Y-12932174D01*
X15195896Y-12932174D02*
X15214944Y-12941698D01*
X15214944Y-12941698D02*
X15224467Y-12951222D01*
X15224467Y-12951222D02*
X15233991Y-12970269D01*
X15233991Y-12970269D02*
X15233991Y-13017888D01*
X15233991Y-13017888D02*
X15224467Y-13036936D01*
X15224467Y-13036936D02*
X15214944Y-13046460D01*
X15214944Y-13046460D02*
X15195896Y-13055984D01*
X15195896Y-13055984D02*
X15138753Y-13055984D01*
X15138753Y-13055984D02*
X15119706Y-13046460D01*
X15119706Y-13046460D02*
X15110182Y-13036936D01*
X15329229Y-13055984D02*
X15367325Y-13055984D01*
X15367325Y-13055984D02*
X15386372Y-13046460D01*
X15386372Y-13046460D02*
X15395896Y-13036936D01*
X15395896Y-13036936D02*
X15414944Y-13008365D01*
X15414944Y-13008365D02*
X15424467Y-12970269D01*
X15424467Y-12970269D02*
X15424467Y-12894079D01*
X15424467Y-12894079D02*
X15414944Y-12875031D01*
X15414944Y-12875031D02*
X15405420Y-12865508D01*
X15405420Y-12865508D02*
X15386372Y-12855984D01*
X15386372Y-12855984D02*
X15348277Y-12855984D01*
X15348277Y-12855984D02*
X15329229Y-12865508D01*
X15329229Y-12865508D02*
X15319706Y-12875031D01*
X15319706Y-12875031D02*
X15310182Y-12894079D01*
X15310182Y-12894079D02*
X15310182Y-12941698D01*
X15310182Y-12941698D02*
X15319706Y-12960746D01*
X15319706Y-12960746D02*
X15329229Y-12970269D01*
X15329229Y-12970269D02*
X15348277Y-12979793D01*
X15348277Y-12979793D02*
X15386372Y-12979793D01*
X15386372Y-12979793D02*
X15405420Y-12970269D01*
X15405420Y-12970269D02*
X15414944Y-12960746D01*
X15414944Y-12960746D02*
X15424467Y-12941698D01*
X15595896Y-12922650D02*
X15595896Y-13055984D01*
X15548277Y-12846460D02*
X15500658Y-12989317D01*
X15500658Y-12989317D02*
X15624467Y-12989317D01*
X15691134Y-12855984D02*
X15691134Y-12894079D01*
X15767325Y-12855984D02*
X15767325Y-12894079D01*
X16062563Y-13132174D02*
X16053039Y-13122650D01*
X16053039Y-13122650D02*
X16033991Y-13094079D01*
X16033991Y-13094079D02*
X16024468Y-13075031D01*
X16024468Y-13075031D02*
X16014944Y-13046460D01*
X16014944Y-13046460D02*
X16005420Y-12998841D01*
X16005420Y-12998841D02*
X16005420Y-12960746D01*
X16005420Y-12960746D02*
X16014944Y-12913127D01*
X16014944Y-12913127D02*
X16024468Y-12884555D01*
X16024468Y-12884555D02*
X16033991Y-12865508D01*
X16033991Y-12865508D02*
X16053039Y-12836936D01*
X16053039Y-12836936D02*
X16062563Y-12827412D01*
X16119706Y-12855984D02*
X16243515Y-12855984D01*
X16243515Y-12855984D02*
X16176848Y-12932174D01*
X16176848Y-12932174D02*
X16205420Y-12932174D01*
X16205420Y-12932174D02*
X16224468Y-12941698D01*
X16224468Y-12941698D02*
X16233991Y-12951222D01*
X16233991Y-12951222D02*
X16243515Y-12970269D01*
X16243515Y-12970269D02*
X16243515Y-13017888D01*
X16243515Y-13017888D02*
X16233991Y-13036936D01*
X16233991Y-13036936D02*
X16224468Y-13046460D01*
X16224468Y-13046460D02*
X16205420Y-13055984D01*
X16205420Y-13055984D02*
X16148277Y-13055984D01*
X16148277Y-13055984D02*
X16129229Y-13046460D01*
X16129229Y-13046460D02*
X16119706Y-13036936D01*
X16433991Y-13055984D02*
X16319706Y-13055984D01*
X16376848Y-13055984D02*
X16376848Y-12855984D01*
X16376848Y-12855984D02*
X16357801Y-12884555D01*
X16357801Y-12884555D02*
X16338753Y-12903603D01*
X16338753Y-12903603D02*
X16319706Y-12913127D01*
X16672087Y-13055984D02*
X16672087Y-12855984D01*
X16757801Y-13055984D02*
X16757801Y-12951222D01*
X16757801Y-12951222D02*
X16748277Y-12932174D01*
X16748277Y-12932174D02*
X16729230Y-12922650D01*
X16729230Y-12922650D02*
X16700658Y-12922650D01*
X16700658Y-12922650D02*
X16681610Y-12932174D01*
X16681610Y-12932174D02*
X16672087Y-12941698D01*
X16881611Y-13055984D02*
X16862563Y-13046460D01*
X16862563Y-13046460D02*
X16853039Y-13036936D01*
X16853039Y-13036936D02*
X16843515Y-13017888D01*
X16843515Y-13017888D02*
X16843515Y-12960746D01*
X16843515Y-12960746D02*
X16853039Y-12941698D01*
X16853039Y-12941698D02*
X16862563Y-12932174D01*
X16862563Y-12932174D02*
X16881611Y-12922650D01*
X16881611Y-12922650D02*
X16910182Y-12922650D01*
X16910182Y-12922650D02*
X16929230Y-12932174D01*
X16929230Y-12932174D02*
X16938753Y-12941698D01*
X16938753Y-12941698D02*
X16948277Y-12960746D01*
X16948277Y-12960746D02*
X16948277Y-13017888D01*
X16948277Y-13017888D02*
X16938753Y-13036936D01*
X16938753Y-13036936D02*
X16929230Y-13046460D01*
X16929230Y-13046460D02*
X16910182Y-13055984D01*
X16910182Y-13055984D02*
X16881611Y-13055984D01*
X17062563Y-13055984D02*
X17043515Y-13046460D01*
X17043515Y-13046460D02*
X17033992Y-13027412D01*
X17033992Y-13027412D02*
X17033992Y-12855984D01*
X17214944Y-13046460D02*
X17195896Y-13055984D01*
X17195896Y-13055984D02*
X17157801Y-13055984D01*
X17157801Y-13055984D02*
X17138753Y-13046460D01*
X17138753Y-13046460D02*
X17129230Y-13027412D01*
X17129230Y-13027412D02*
X17129230Y-12951222D01*
X17129230Y-12951222D02*
X17138753Y-12932174D01*
X17138753Y-12932174D02*
X17157801Y-12922650D01*
X17157801Y-12922650D02*
X17195896Y-12922650D01*
X17195896Y-12922650D02*
X17214944Y-12932174D01*
X17214944Y-12932174D02*
X17224468Y-12951222D01*
X17224468Y-12951222D02*
X17224468Y-12970269D01*
X17224468Y-12970269D02*
X17129230Y-12989317D01*
X17300658Y-13046460D02*
X17319706Y-13055984D01*
X17319706Y-13055984D02*
X17357801Y-13055984D01*
X17357801Y-13055984D02*
X17376849Y-13046460D01*
X17376849Y-13046460D02*
X17386373Y-13027412D01*
X17386373Y-13027412D02*
X17386373Y-13017888D01*
X17386373Y-13017888D02*
X17376849Y-12998841D01*
X17376849Y-12998841D02*
X17357801Y-12989317D01*
X17357801Y-12989317D02*
X17329230Y-12989317D01*
X17329230Y-12989317D02*
X17310182Y-12979793D01*
X17310182Y-12979793D02*
X17300658Y-12960746D01*
X17300658Y-12960746D02*
X17300658Y-12951222D01*
X17300658Y-12951222D02*
X17310182Y-12932174D01*
X17310182Y-12932174D02*
X17329230Y-12922650D01*
X17329230Y-12922650D02*
X17357801Y-12922650D01*
X17357801Y-12922650D02*
X17376849Y-12932174D01*
X17453039Y-13132174D02*
X17462563Y-13122650D01*
X17462563Y-13122650D02*
X17481611Y-13094079D01*
X17481611Y-13094079D02*
X17491134Y-13075031D01*
X17491134Y-13075031D02*
X17500658Y-13046460D01*
X17500658Y-13046460D02*
X17510182Y-12998841D01*
X17510182Y-12998841D02*
X17510182Y-12960746D01*
X17510182Y-12960746D02*
X17500658Y-12913127D01*
X17500658Y-12913127D02*
X17491134Y-12884555D01*
X17491134Y-12884555D02*
X17481611Y-12865508D01*
X17481611Y-12865508D02*
X17462563Y-12836936D01*
X17462563Y-12836936D02*
X17453039Y-12827412D01*
M02*
