%TF.GenerationSoftware,KiCad,Pcbnew,8.0.4*%
%TF.CreationDate,2025-01-10T13:20:36-08:00*%
%TF.ProjectId,X17-ESC-Controller,5831372d-4553-4432-9d43-6f6e74726f6c,rev?*%
%TF.SameCoordinates,Original*%
%TF.FileFunction,Copper,L2,Bot*%
%TF.FilePolarity,Positive*%
%FSLAX46Y46*%
G04 Gerber Fmt 4.6, Leading zero omitted, Abs format (unit mm)*
G04 Created by KiCad (PCBNEW 8.0.4) date 2025-01-10 13:20:36*
%MOMM*%
%LPD*%
G01*
G04 APERTURE LIST*
G04 Aperture macros list*
%AMRoundRect*
0 Rectangle with rounded corners*
0 $1 Rounding radius*
0 $2 $3 $4 $5 $6 $7 $8 $9 X,Y pos of 4 corners*
0 Add a 4 corners polygon primitive as box body*
4,1,4,$2,$3,$4,$5,$6,$7,$8,$9,$2,$3,0*
0 Add four circle primitives for the rounded corners*
1,1,$1+$1,$2,$3*
1,1,$1+$1,$4,$5*
1,1,$1+$1,$6,$7*
1,1,$1+$1,$8,$9*
0 Add four rect primitives between the rounded corners*
20,1,$1+$1,$2,$3,$4,$5,0*
20,1,$1+$1,$4,$5,$6,$7,0*
20,1,$1+$1,$6,$7,$8,$9,0*
20,1,$1+$1,$8,$9,$2,$3,0*%
G04 Aperture macros list end*
%TA.AperFunction,ComponentPad*%
%ADD10R,1.700000X1.700000*%
%TD*%
%TA.AperFunction,ComponentPad*%
%ADD11O,1.700000X1.700000*%
%TD*%
%TA.AperFunction,ComponentPad*%
%ADD12RoundRect,0.250000X0.600000X-0.600000X0.600000X0.600000X-0.600000X0.600000X-0.600000X-0.600000X0*%
%TD*%
%TA.AperFunction,ComponentPad*%
%ADD13C,1.700000*%
%TD*%
%TA.AperFunction,ComponentPad*%
%ADD14C,1.270000*%
%TD*%
%TA.AperFunction,SMDPad,CuDef*%
%ADD15RoundRect,0.237500X0.250000X0.237500X-0.250000X0.237500X-0.250000X-0.237500X0.250000X-0.237500X0*%
%TD*%
%TA.AperFunction,SMDPad,CuDef*%
%ADD16RoundRect,0.112500X0.637500X-0.112500X0.637500X0.112500X-0.637500X0.112500X-0.637500X-0.112500X0*%
%TD*%
%TA.AperFunction,SMDPad,CuDef*%
%ADD17RoundRect,0.237500X-0.237500X0.300000X-0.237500X-0.300000X0.237500X-0.300000X0.237500X0.300000X0*%
%TD*%
%TA.AperFunction,SMDPad,CuDef*%
%ADD18RoundRect,0.237500X0.237500X-0.300000X0.237500X0.300000X-0.237500X0.300000X-0.237500X-0.300000X0*%
%TD*%
%TA.AperFunction,SMDPad,CuDef*%
%ADD19RoundRect,0.237500X-0.300000X-0.237500X0.300000X-0.237500X0.300000X0.237500X-0.300000X0.237500X0*%
%TD*%
%TA.AperFunction,SMDPad,CuDef*%
%ADD20RoundRect,0.237500X0.300000X0.237500X-0.300000X0.237500X-0.300000X-0.237500X0.300000X-0.237500X0*%
%TD*%
%TA.AperFunction,SMDPad,CuDef*%
%ADD21RoundRect,0.237500X-0.250000X-0.237500X0.250000X-0.237500X0.250000X0.237500X-0.250000X0.237500X0*%
%TD*%
%TA.AperFunction,ViaPad*%
%ADD22C,0.600000*%
%TD*%
%TA.AperFunction,ViaPad*%
%ADD23C,0.939800*%
%TD*%
%TA.AperFunction,Conductor*%
%ADD24C,0.762000*%
%TD*%
%TA.AperFunction,Conductor*%
%ADD25C,0.254000*%
%TD*%
G04 APERTURE END LIST*
D10*
%TO.P,J9,1,Pin_1*%
%TO.N,USART1_TX*%
X160325000Y-112700000D03*
D11*
%TO.P,J9,2,Pin_2*%
%TO.N,USART1_RX*%
X162865000Y-112700000D03*
%TD*%
D10*
%TO.P,J5,1,Pin_1*%
%TO.N,MOSI*%
X156500000Y-112700000D03*
D11*
%TO.P,J5,2,Pin_2*%
%TO.N,MISO*%
X153960000Y-112700000D03*
%TO.P,J5,3,Pin_3*%
%TO.N,SCLK*%
X151420000Y-112700000D03*
%TO.P,J5,4,Pin_4*%
%TO.N,CS*%
X148880000Y-112700000D03*
%TD*%
D10*
%TO.P,J10,1,Pin_1*%
%TO.N,TIM2_CH1*%
X127400000Y-100900000D03*
D11*
%TO.P,J10,2,Pin_2*%
%TO.N,TIM2_CH2*%
X127400000Y-98360000D03*
%TD*%
D12*
%TO.P,J4,1,Pin_1*%
%TO.N,NRST*%
X130840000Y-111240000D03*
D13*
%TO.P,J4,2,Pin_2*%
%TO.N,SYS_SWDIO*%
X130840000Y-108700000D03*
%TO.P,J4,3,Pin_3*%
%TO.N,GND*%
X133380000Y-111240000D03*
%TO.P,J4,4,Pin_4*%
X133380000Y-108700000D03*
%TO.P,J4,5,Pin_5*%
%TO.N,unconnected-(J4-Pin_5-Pad5)*%
X135920000Y-111240000D03*
%TO.P,J4,6,Pin_6*%
%TO.N,SWCLK*%
X135920000Y-108700000D03*
%TO.P,J4,7,Pin_7*%
%TO.N,+3.3V*%
X138460000Y-111240000D03*
%TO.P,J4,8,Pin_8*%
X138460000Y-108700000D03*
%TO.P,J4,9,Pin_9*%
%TO.N,unconnected-(J4-Pin_9-Pad9)*%
X141000000Y-111240000D03*
%TO.P,J4,10,Pin_10*%
%TO.N,unconnected-(J4-Pin_10-Pad10)*%
X141000000Y-108700000D03*
%TD*%
D10*
%TO.P,J11,1,Pin_1*%
%TO.N,TIM2_CH3*%
X172700000Y-95775000D03*
D11*
%TO.P,J11,2,Pin_2*%
%TO.N,TIM2_CH4*%
X172700000Y-93235000D03*
%TD*%
D14*
%TO.P,J1,1,1*%
%TO.N,+5V*%
X138429100Y-94700000D03*
%TO.P,J1,2,2*%
%TO.N,GND*%
X136429099Y-94700000D03*
%TO.P,J1,3,3*%
%TO.N,TIM1_CH2*%
X138429100Y-96699999D03*
%TO.P,J1,4,4*%
%TO.N,A*%
X136429099Y-96699999D03*
%TO.P,J1,5,5*%
%TO.N,TIM1_CH1*%
X138429100Y-98700000D03*
%TO.P,J1,6,6*%
%TO.N,B*%
X136429099Y-98700000D03*
%TO.P,J1,7,7*%
%TO.N,TIM1_CH3*%
X138429100Y-100700001D03*
%TO.P,J1,8,8*%
%TO.N,TIM1_CH4*%
X136429099Y-100700001D03*
%TO.P,J1,9,9*%
%TO.N,TIM2_CH1*%
X138429100Y-102699999D03*
%TO.P,J1,10,10*%
%TO.N,TIM2_CH2*%
X136429099Y-102699999D03*
%TO.P,J1,11,11*%
%TO.N,TIM2_CH3*%
X165900001Y-94700000D03*
%TO.P,J1,12,12*%
%TO.N,TIM2_CH4*%
X163900000Y-94700000D03*
%TO.P,J1,13,13*%
%TO.N,TIM3_CH1*%
X165900001Y-96699999D03*
%TO.P,J1,14,14*%
%TO.N,TIM3_CH2*%
X163900000Y-96699999D03*
%TO.P,J1,15,15*%
%TO.N,USART1_RX*%
X165900001Y-98700000D03*
%TO.P,J1,16,16*%
%TO.N,NRST*%
X163900000Y-98700000D03*
%TO.P,J1,17,17*%
%TO.N,A*%
X165900001Y-100700001D03*
%TO.P,J1,18,18*%
%TO.N,B*%
X163900000Y-100700001D03*
%TO.P,J1,19,19*%
%TO.N,unconnected-(J1-Pad19)*%
X165900001Y-102699999D03*
%TO.P,J1,20,20*%
%TO.N,unconnected-(J1-Pad20)*%
X163900000Y-102699999D03*
%TD*%
D10*
%TO.P,J3,1,Pin_1*%
%TO.N,TIM3_CH1*%
X172700000Y-99525000D03*
D11*
%TO.P,J3,2,Pin_2*%
%TO.N,TIM3_CH2*%
X172700000Y-102065000D03*
%TD*%
D10*
%TO.P,J6,1,Pin_1*%
%TO.N,TIM1_CH1*%
X142800000Y-95500000D03*
D11*
%TO.P,J6,2,Pin_2*%
%TO.N,TIM1_CH2*%
X142800000Y-98040000D03*
%TO.P,J6,3,Pin_3*%
%TO.N,TIM1_CH3*%
X142800000Y-100580000D03*
%TO.P,J6,4,Pin_4*%
%TO.N,TIM1_CH4*%
X142800000Y-103120000D03*
%TD*%
D10*
%TO.P,J8,1,Pin_1*%
%TO.N,B*%
X150500000Y-83900000D03*
D11*
%TO.P,J8,2,Pin_2*%
%TO.N,A*%
X153040000Y-83900000D03*
%TD*%
D10*
%TO.P,J7,1,Pin_1*%
%TO.N,USART3_RX*%
X157300000Y-91000000D03*
D11*
%TO.P,J7,2,Pin_2*%
%TO.N,USART3_TX*%
X157300000Y-93540000D03*
%TO.P,J7,3,Pin_3*%
%TO.N,USART3_DE*%
X157300000Y-96080000D03*
%TD*%
D15*
%TO.P,R1,1*%
%TO.N,A*%
X151625000Y-88100000D03*
%TO.P,R1,2*%
%TO.N,+5V*%
X149800000Y-88100000D03*
%TD*%
D16*
%TO.P,U3,1,V+*%
%TO.N,+3.3V*%
X158607500Y-107650000D03*
%TO.P,U3,2,CLOCK*%
%TO.N,RCC_OSC_IN*%
X158607500Y-106350000D03*
%TO.P,U3,3,GND*%
%TO.N,GND*%
X161267500Y-107000000D03*
%TD*%
D17*
%TO.P,C1,1*%
%TO.N,+3.3V*%
X157837500Y-102875000D03*
%TO.P,C1,2*%
%TO.N,GND*%
X157837500Y-104600000D03*
%TD*%
D18*
%TO.P,C2,1*%
%TO.N,+3.3V*%
X147637500Y-98300000D03*
%TO.P,C2,2*%
%TO.N,GND*%
X147637500Y-96575000D03*
%TD*%
D19*
%TO.P,C5,1*%
%TO.N,+3.3V*%
X158775000Y-109100000D03*
%TO.P,C5,2*%
%TO.N,GND*%
X160500000Y-109100000D03*
%TD*%
D17*
%TO.P,C9,1*%
%TO.N,+3.3V*%
X145837500Y-106337500D03*
%TO.P,C9,2*%
%TO.N,GND*%
X145837500Y-108062500D03*
%TD*%
D20*
%TO.P,C8,1*%
%TO.N,+3.3V*%
X154737500Y-108900000D03*
%TO.P,C8,2*%
%TO.N,GND*%
X153012500Y-108900000D03*
%TD*%
D17*
%TO.P,C6,1*%
%TO.N,+3.3V*%
X156237500Y-102875000D03*
%TO.P,C6,2*%
%TO.N,GND*%
X156237500Y-104600000D03*
%TD*%
%TO.P,C7,1*%
%TO.N,+3.3V*%
X156337500Y-107200000D03*
%TO.P,C7,2*%
%TO.N,GND*%
X156337500Y-108925000D03*
%TD*%
%TO.P,C4,1*%
%TO.N,+3.3V*%
X147437500Y-106337500D03*
%TO.P,C4,2*%
%TO.N,GND*%
X147437500Y-108062500D03*
%TD*%
D21*
%TO.P,R4,1*%
%TO.N,GND*%
X147775000Y-86400000D03*
%TO.P,R4,2*%
%TO.N,B*%
X149600000Y-86400000D03*
%TD*%
D18*
%TO.P,C10,1*%
%TO.N,+3.3V*%
X149237500Y-98300000D03*
%TO.P,C10,2*%
%TO.N,GND*%
X149237500Y-96575000D03*
%TD*%
D22*
%TO.N,GND*%
X158700000Y-101200000D03*
X159800000Y-101300000D03*
X161900000Y-103200000D03*
X166800000Y-83500000D03*
X160100000Y-88100000D03*
X172200000Y-106900000D03*
X170300000Y-108800000D03*
X153700000Y-104300000D03*
X170300000Y-83500000D03*
X170600000Y-90000000D03*
X167100000Y-85600000D03*
X144500000Y-112400000D03*
X154600000Y-87900000D03*
X172900000Y-87500000D03*
X170400000Y-85700000D03*
X133300000Y-95900000D03*
X163000000Y-85600000D03*
X172100000Y-104600000D03*
X130500000Y-95900000D03*
X128700000Y-107400000D03*
X162700000Y-91000000D03*
X152000000Y-106700000D03*
D23*
X141000000Y-85100000D03*
D22*
X146600000Y-110400000D03*
X126600000Y-112600000D03*
X172900000Y-89900000D03*
X165700000Y-113600000D03*
X170600000Y-87700000D03*
X169000000Y-106700000D03*
X160300000Y-90800000D03*
X167600000Y-108800000D03*
D23*
X148100000Y-95100000D03*
D22*
X156900000Y-88200000D03*
X128400000Y-112800000D03*
D23*
X168100000Y-111800000D03*
D22*
X133400000Y-98500000D03*
X172900000Y-83500000D03*
X160000000Y-93100000D03*
X163000000Y-83500000D03*
X159000000Y-102300000D03*
X161600000Y-97500000D03*
D23*
X162900000Y-109100000D03*
D22*
X163300000Y-106900000D03*
D23*
X130700000Y-94000000D03*
D22*
X126600000Y-107400000D03*
X144000000Y-110200000D03*
X151100000Y-101200000D03*
X146300000Y-112500000D03*
X169800000Y-92150000D03*
X152600000Y-106417405D03*
X151900000Y-101500000D03*
D23*
X132400000Y-83900000D03*
D22*
X132800000Y-100600000D03*
X151000000Y-106400000D03*
X158600000Y-83600000D03*
X163100000Y-105000000D03*
X168900000Y-104000000D03*
X162100000Y-98600000D03*
X155800000Y-83600000D03*
X168000000Y-90100000D03*
X130600000Y-98400000D03*
X173000000Y-85400000D03*
X167700000Y-87800000D03*
%TO.N,RCC_OSC_IN*%
X154600000Y-104800000D03*
D23*
%TO.N,+5V*%
X143615480Y-89515480D03*
X145100000Y-91000000D03*
X134400000Y-90800000D03*
%TO.N,+3.3V*%
X149300000Y-106300000D03*
X158900000Y-109749100D03*
X153968796Y-105536405D03*
X141000000Y-89700000D03*
X149526758Y-101749100D03*
X153000000Y-103400000D03*
D22*
%TO.N,TIM2_CH2*%
X148984864Y-103064682D03*
%TO.N,TIM2_CH1*%
X149300000Y-103800000D03*
%TO.N,A*%
X152400000Y-86400000D03*
%TO.N,B*%
X150600000Y-87000000D03*
X150600000Y-85600000D03*
%TD*%
D24*
%TO.N,GND*%
X157837500Y-104600000D02*
X156237500Y-104600000D01*
D25*
%TO.N,RCC_OSC_IN*%
X158382501Y-106125001D02*
X155925001Y-106125001D01*
X158607500Y-106350000D02*
X158382501Y-106125001D01*
X155925001Y-106125001D02*
X154600000Y-104800000D01*
D24*
%TO.N,+5V*%
X143615480Y-89515480D02*
X145100000Y-91000000D01*
X148000000Y-88100000D02*
X149800000Y-88100000D01*
X138300000Y-94700000D02*
X134400000Y-90800000D01*
X145100000Y-91000000D02*
X148000000Y-88100000D01*
X138429100Y-94700000D02*
X138300000Y-94700000D01*
X145200000Y-91000000D02*
X145100000Y-91000000D01*
%TO.N,+3.3V*%
X156787500Y-107650000D02*
X156337500Y-107200000D01*
X149526758Y-101749100D02*
X149819062Y-101749100D01*
X146400000Y-95100000D02*
X146400000Y-97200000D01*
X150944962Y-102875000D02*
X151469962Y-103400000D01*
X157837500Y-102875000D02*
X156237500Y-102875000D01*
X149262500Y-106337500D02*
X149300000Y-106300000D01*
X154600000Y-102875000D02*
X154600000Y-102996900D01*
X149237500Y-98300000D02*
X147637500Y-98300000D01*
X158900000Y-109749100D02*
X158900000Y-109525000D01*
X140822500Y-106337500D02*
X145837500Y-106337500D01*
X158475000Y-107782500D02*
X158607500Y-107650000D01*
X145837500Y-106337500D02*
X147437500Y-106337500D01*
X154737500Y-108900000D02*
X154600000Y-108900000D01*
X146400000Y-97200000D02*
X146537500Y-97200000D01*
X146537500Y-97200000D02*
X147637500Y-98300000D01*
X151469962Y-103400000D02*
X154075000Y-103400000D01*
X152512486Y-105536405D02*
X153968796Y-105536405D01*
X138460000Y-111240000D02*
X138460000Y-108700000D01*
X138460000Y-108700000D02*
X140822500Y-106337500D01*
X150944962Y-103968881D02*
X150944962Y-104655038D01*
X154100000Y-108400000D02*
X154100000Y-107123919D01*
X141000000Y-89700000D02*
X146400000Y-95100000D01*
X150944962Y-104655038D02*
X149300000Y-106300000D01*
X149819062Y-101749100D02*
X150944962Y-102875000D01*
X156337500Y-107200000D02*
X154176081Y-107200000D01*
X154176081Y-107200000D02*
X154100000Y-107123919D01*
X154600000Y-108900000D02*
X154100000Y-108400000D01*
X149526758Y-101749100D02*
X149237500Y-101459842D01*
X158775000Y-107817500D02*
X158607500Y-107650000D01*
X154075000Y-103400000D02*
X154600000Y-102875000D01*
X150944962Y-102875000D02*
X150944962Y-103968881D01*
X147437500Y-106337500D02*
X149262500Y-106337500D01*
X158775000Y-109100000D02*
X158775000Y-107817500D01*
X158607500Y-107650000D02*
X156787500Y-107650000D01*
X149237500Y-101459842D02*
X149237500Y-98300000D01*
X154176081Y-107200000D02*
X154500000Y-107200000D01*
X154600000Y-102875000D02*
X156237500Y-102875000D01*
X153968796Y-106668796D02*
X153968796Y-105536405D01*
X154500000Y-107200000D02*
X153968796Y-106668796D01*
X150944962Y-103968881D02*
X152512486Y-105536405D01*
D25*
%TO.N,TIM2_CH3*%
X171275000Y-95775000D02*
X170200000Y-94700000D01*
X172400000Y-95775000D02*
X171275000Y-95775000D01*
X170200000Y-94700000D02*
X165900001Y-94700000D01*
%TO.N,USART1_RX*%
X164862000Y-99738001D02*
X164862000Y-110703000D01*
X164862000Y-110703000D02*
X162865000Y-112700000D01*
X165900001Y-98700000D02*
X164862000Y-99738001D01*
%TO.N,TIM3_CH1*%
X166484002Y-97284000D02*
X165900001Y-96699999D01*
X170584552Y-99525000D02*
X168343552Y-97284000D01*
X172400000Y-99525000D02*
X170584552Y-99525000D01*
X168343552Y-97284000D02*
X166484002Y-97284000D01*
%TO.N,TIM3_CH2*%
X172400000Y-101982500D02*
X168155500Y-97738000D01*
X172400000Y-102065000D02*
X172400000Y-101982500D01*
X164938001Y-97738000D02*
X163900000Y-96699999D01*
X168155500Y-97738000D02*
X164938001Y-97738000D01*
%TO.N,TIM2_CH2*%
X148984864Y-103064682D02*
X147752546Y-104297000D01*
X147752546Y-104297000D02*
X138026100Y-104297000D01*
X138026100Y-104297000D02*
X136429099Y-102699999D01*
%TO.N,TIM2_CH1*%
X137119626Y-104751000D02*
X135467099Y-103098473D01*
X135467099Y-103098473D02*
X135467099Y-102301525D01*
X136030625Y-101737999D02*
X137467100Y-101737999D01*
X149300000Y-103800000D02*
X148349000Y-104751000D01*
X137467100Y-101737999D02*
X138429100Y-102699999D01*
X135467099Y-102301525D02*
X136030625Y-101737999D01*
X148349000Y-104751000D02*
X137119626Y-104751000D01*
%TO.N,TIM2_CH4*%
X166298475Y-93738000D02*
X164862000Y-93738000D01*
X172400000Y-93235000D02*
X171389000Y-94246000D01*
X171389000Y-94246000D02*
X166806475Y-94246000D01*
X164862000Y-93738000D02*
X163900000Y-94700000D01*
X166806475Y-94246000D02*
X166298475Y-93738000D01*
%TO.N,A*%
X152400000Y-86400000D02*
X153040000Y-85760000D01*
X151625000Y-88100000D02*
X151625000Y-87175000D01*
X151625000Y-87175000D02*
X152400000Y-86400000D01*
X153040000Y-85760000D02*
X153040000Y-83900000D01*
%TO.N,B*%
X149600000Y-86400000D02*
X150000000Y-86400000D01*
X150000000Y-86400000D02*
X150600000Y-87000000D01*
X150600000Y-87000000D02*
X150600000Y-85600000D01*
%TD*%
%TA.AperFunction,Conductor*%
%TO.N,GND*%
G36*
X149255468Y-82520185D02*
G01*
X149301223Y-82572989D01*
X149311167Y-82642147D01*
X149287695Y-82698811D01*
X149206206Y-82807664D01*
X149206202Y-82807671D01*
X149155908Y-82942517D01*
X149149501Y-83002116D01*
X149149500Y-83002135D01*
X149149500Y-84797870D01*
X149149501Y-84797876D01*
X149155908Y-84857483D01*
X149206202Y-84992328D01*
X149206206Y-84992335D01*
X149292452Y-85107544D01*
X149292455Y-85107547D01*
X149414769Y-85199112D01*
X149413246Y-85201145D01*
X149453172Y-85241063D01*
X149468030Y-85309335D01*
X149443619Y-85374801D01*
X149387689Y-85416678D01*
X149344348Y-85424500D01*
X149300832Y-85424500D01*
X149300812Y-85424501D01*
X149199747Y-85434825D01*
X149035984Y-85489092D01*
X149035981Y-85489093D01*
X148889151Y-85579659D01*
X148774827Y-85693983D01*
X148713504Y-85727467D01*
X148643812Y-85722483D01*
X148599465Y-85693982D01*
X148485538Y-85580055D01*
X148485534Y-85580052D01*
X148338811Y-85489551D01*
X148338800Y-85489546D01*
X148175152Y-85435319D01*
X148074154Y-85425000D01*
X148025000Y-85425000D01*
X148025000Y-86526000D01*
X148005315Y-86593039D01*
X147952511Y-86638794D01*
X147901000Y-86650000D01*
X146787501Y-86650000D01*
X146787501Y-86686654D01*
X146797819Y-86787652D01*
X146852046Y-86951300D01*
X146852051Y-86951311D01*
X146942552Y-87098034D01*
X146942555Y-87098038D01*
X147064461Y-87219944D01*
X147064465Y-87219947D01*
X147211188Y-87310448D01*
X147211201Y-87310454D01*
X147269524Y-87329780D01*
X147326969Y-87369552D01*
X147353793Y-87434067D01*
X147341478Y-87502843D01*
X147318202Y-87535167D01*
X145187680Y-89665688D01*
X145126357Y-89699173D01*
X145056665Y-89694189D01*
X145012318Y-89665688D01*
X144550241Y-89203611D01*
X144519262Y-89151926D01*
X144516350Y-89142327D01*
X144516348Y-89142324D01*
X144516348Y-89142322D01*
X144426245Y-88973751D01*
X144426241Y-88973744D01*
X144304976Y-88825983D01*
X144157215Y-88704718D01*
X144157208Y-88704714D01*
X143988634Y-88614610D01*
X143805714Y-88559121D01*
X143615480Y-88540385D01*
X143425245Y-88559121D01*
X143242325Y-88614610D01*
X143073751Y-88704714D01*
X143073744Y-88704718D01*
X142925983Y-88825983D01*
X142804718Y-88973744D01*
X142804714Y-88973751D01*
X142714610Y-89142325D01*
X142659121Y-89325245D01*
X142640385Y-89515480D01*
X142659120Y-89705709D01*
X142659121Y-89705712D01*
X142685434Y-89792455D01*
X142692546Y-89815897D01*
X142693169Y-89885764D01*
X142655921Y-89944877D01*
X142592627Y-89974468D01*
X142523382Y-89965143D01*
X142486204Y-89939574D01*
X141934761Y-89388131D01*
X141903782Y-89336446D01*
X141900870Y-89326847D01*
X141900868Y-89326844D01*
X141900868Y-89326842D01*
X141810765Y-89158271D01*
X141810761Y-89158264D01*
X141689496Y-89010503D01*
X141541735Y-88889238D01*
X141541728Y-88889234D01*
X141373154Y-88799130D01*
X141190234Y-88743641D01*
X141000000Y-88724905D01*
X140809765Y-88743641D01*
X140626845Y-88799130D01*
X140458271Y-88889234D01*
X140458264Y-88889238D01*
X140310503Y-89010503D01*
X140189238Y-89158264D01*
X140189234Y-89158271D01*
X140099130Y-89326845D01*
X140043641Y-89509765D01*
X140024905Y-89700000D01*
X140043641Y-89890234D01*
X140099130Y-90073154D01*
X140189234Y-90241728D01*
X140189238Y-90241735D01*
X140310503Y-90389496D01*
X140458264Y-90510761D01*
X140458271Y-90510765D01*
X140626842Y-90600868D01*
X140626844Y-90600868D01*
X140626847Y-90600870D01*
X140636446Y-90603782D01*
X140688131Y-90634761D01*
X143052966Y-92999596D01*
X144127132Y-94073761D01*
X144160617Y-94135084D01*
X144160149Y-94141618D01*
X144212867Y-94161280D01*
X144226238Y-94172867D01*
X145482181Y-95428810D01*
X145515666Y-95490133D01*
X145518500Y-95516491D01*
X145518500Y-97113179D01*
X145518500Y-97113180D01*
X145518500Y-97286820D01*
X145518500Y-97286822D01*
X145518499Y-97286822D01*
X145552374Y-97457118D01*
X145552377Y-97457128D01*
X145618821Y-97617540D01*
X145618828Y-97617553D01*
X145715293Y-97761922D01*
X145715296Y-97761926D01*
X145838073Y-97884703D01*
X145838077Y-97884706D01*
X145982449Y-97981173D01*
X145982451Y-97981173D01*
X145982453Y-97981175D01*
X146079894Y-98021536D01*
X146112607Y-98035086D01*
X146152836Y-98061966D01*
X146625681Y-98534811D01*
X146659166Y-98596134D01*
X146662000Y-98622488D01*
X146662000Y-98649166D01*
X146662001Y-98649187D01*
X146672325Y-98750252D01*
X146680029Y-98773500D01*
X146726592Y-98914016D01*
X146817160Y-99060850D01*
X146939150Y-99182840D01*
X147085984Y-99273408D01*
X147249747Y-99327674D01*
X147350823Y-99338000D01*
X147924176Y-99337999D01*
X147924184Y-99337998D01*
X147924187Y-99337998D01*
X147979530Y-99332344D01*
X148025253Y-99327674D01*
X148189016Y-99273408D01*
X148189021Y-99273404D01*
X148192995Y-99272088D01*
X148262823Y-99269686D01*
X148322866Y-99305417D01*
X148354059Y-99367937D01*
X148356000Y-99389794D01*
X148356000Y-101373021D01*
X148356000Y-101546663D01*
X148356000Y-101546665D01*
X148355999Y-101546665D01*
X148389874Y-101716960D01*
X148389877Y-101716970D01*
X148456322Y-101877385D01*
X148552795Y-102021768D01*
X148552796Y-102021769D01*
X148591995Y-102060967D01*
X148622975Y-102112651D01*
X148625888Y-102122254D01*
X148625889Y-102122256D01*
X148660456Y-102186926D01*
X148674698Y-102255328D01*
X148649698Y-102320572D01*
X148617071Y-102350372D01*
X148482603Y-102434864D01*
X148355048Y-102562419D01*
X148259074Y-102715160D01*
X148199496Y-102885427D01*
X148194550Y-102929319D01*
X148167482Y-102993733D01*
X148159011Y-103003114D01*
X147528946Y-103633181D01*
X147467623Y-103666666D01*
X147441265Y-103669500D01*
X144212503Y-103669500D01*
X144145464Y-103649815D01*
X144099709Y-103597011D01*
X144089765Y-103527853D01*
X144092728Y-103513407D01*
X144117579Y-103420659D01*
X144135063Y-103355408D01*
X144155659Y-103120000D01*
X144135063Y-102884592D01*
X144073903Y-102656337D01*
X143974035Y-102442171D01*
X143961946Y-102424905D01*
X143838494Y-102248597D01*
X143671402Y-102081506D01*
X143671396Y-102081501D01*
X143485842Y-101951575D01*
X143442217Y-101896998D01*
X143435023Y-101827500D01*
X143466546Y-101765145D01*
X143485842Y-101748425D01*
X143530770Y-101716966D01*
X143671401Y-101618495D01*
X143838495Y-101451401D01*
X143974035Y-101257830D01*
X144073903Y-101043663D01*
X144135063Y-100815408D01*
X144155659Y-100580000D01*
X144135063Y-100344592D01*
X144073903Y-100116337D01*
X143974035Y-99902171D01*
X143907865Y-99807669D01*
X143838494Y-99708597D01*
X143671402Y-99541506D01*
X143671396Y-99541501D01*
X143485842Y-99411575D01*
X143442217Y-99356998D01*
X143435023Y-99287500D01*
X143466546Y-99225145D01*
X143485842Y-99208425D01*
X143623622Y-99111950D01*
X143671401Y-99078495D01*
X143838495Y-98911401D01*
X143974035Y-98717830D01*
X144073903Y-98503663D01*
X144135063Y-98275408D01*
X144155659Y-98040000D01*
X144135063Y-97804592D01*
X144073903Y-97576337D01*
X143974035Y-97362171D01*
X143968247Y-97353905D01*
X143838496Y-97168600D01*
X143781842Y-97111946D01*
X143716567Y-97046671D01*
X143683084Y-96985351D01*
X143688068Y-96915659D01*
X143729939Y-96859725D01*
X143760915Y-96842810D01*
X143892331Y-96793796D01*
X144007546Y-96707546D01*
X144093796Y-96592331D01*
X144144091Y-96457483D01*
X144150500Y-96397873D01*
X144150499Y-94602128D01*
X144144091Y-94542517D01*
X144142435Y-94538078D01*
X144093797Y-94407671D01*
X144093793Y-94407664D01*
X144039291Y-94334859D01*
X144018307Y-94278602D01*
X143980024Y-94270274D01*
X143965140Y-94260709D01*
X143959624Y-94256580D01*
X143907867Y-94217834D01*
X143892330Y-94206203D01*
X143892328Y-94206202D01*
X143757482Y-94155908D01*
X143757483Y-94155908D01*
X143697883Y-94149501D01*
X143697881Y-94149500D01*
X143697873Y-94149500D01*
X143697864Y-94149500D01*
X141902129Y-94149500D01*
X141902123Y-94149501D01*
X141842516Y-94155908D01*
X141707671Y-94206202D01*
X141707664Y-94206206D01*
X141592455Y-94292452D01*
X141592452Y-94292455D01*
X141506206Y-94407664D01*
X141506202Y-94407671D01*
X141455908Y-94542517D01*
X141452040Y-94578498D01*
X141449501Y-94602123D01*
X141449500Y-94602135D01*
X141449500Y-96397870D01*
X141449501Y-96397876D01*
X141455908Y-96457483D01*
X141506202Y-96592328D01*
X141506206Y-96592335D01*
X141592452Y-96707544D01*
X141592454Y-96707546D01*
X141707664Y-96793793D01*
X141707671Y-96793797D01*
X141839081Y-96842810D01*
X141895015Y-96884681D01*
X141919432Y-96950145D01*
X141904580Y-97018418D01*
X141883430Y-97046673D01*
X141761503Y-97168600D01*
X141625965Y-97362169D01*
X141625964Y-97362171D01*
X141526098Y-97576335D01*
X141526094Y-97576344D01*
X141464938Y-97804586D01*
X141464936Y-97804596D01*
X141444341Y-98039999D01*
X141444341Y-98040000D01*
X141464936Y-98275403D01*
X141464938Y-98275413D01*
X141526094Y-98503655D01*
X141526096Y-98503659D01*
X141526097Y-98503663D01*
X141593955Y-98649184D01*
X141625965Y-98717830D01*
X141625967Y-98717834D01*
X141734281Y-98872521D01*
X141760203Y-98909542D01*
X141761501Y-98911395D01*
X141761506Y-98911402D01*
X141928597Y-99078493D01*
X141928603Y-99078498D01*
X142114158Y-99208425D01*
X142157783Y-99263002D01*
X142164977Y-99332500D01*
X142133454Y-99394855D01*
X142114158Y-99411575D01*
X141928597Y-99541505D01*
X141761505Y-99708597D01*
X141625965Y-99902169D01*
X141625964Y-99902171D01*
X141526098Y-100116335D01*
X141526094Y-100116344D01*
X141464938Y-100344586D01*
X141464936Y-100344596D01*
X141444341Y-100579999D01*
X141444341Y-100580000D01*
X141464936Y-100815403D01*
X141464938Y-100815413D01*
X141526094Y-101043655D01*
X141526096Y-101043659D01*
X141526097Y-101043663D01*
X141557942Y-101111954D01*
X141625965Y-101257830D01*
X141625967Y-101257834D01*
X141761501Y-101451395D01*
X141761506Y-101451402D01*
X141928597Y-101618493D01*
X141928603Y-101618498D01*
X142114158Y-101748425D01*
X142157783Y-101803002D01*
X142164977Y-101872500D01*
X142133454Y-101934855D01*
X142114158Y-101951575D01*
X141928597Y-102081505D01*
X141761505Y-102248597D01*
X141625965Y-102442169D01*
X141625964Y-102442171D01*
X141526098Y-102656335D01*
X141526094Y-102656344D01*
X141464938Y-102884586D01*
X141464936Y-102884596D01*
X141444341Y-103119999D01*
X141444341Y-103120000D01*
X141464936Y-103355403D01*
X141464938Y-103355413D01*
X141507272Y-103513407D01*
X141505609Y-103583257D01*
X141466446Y-103641119D01*
X141402218Y-103668623D01*
X141387497Y-103669500D01*
X139368895Y-103669500D01*
X139301856Y-103649815D01*
X139256101Y-103597011D01*
X139246157Y-103527853D01*
X139269941Y-103470773D01*
X139307785Y-103420659D01*
X139398658Y-103300324D01*
X139492459Y-103111946D01*
X139550048Y-102909541D01*
X139569465Y-102699999D01*
X139550048Y-102490457D01*
X139492459Y-102288052D01*
X139398658Y-102099674D01*
X139271840Y-101931740D01*
X139118150Y-101791634D01*
X139081872Y-101731927D01*
X139083632Y-101662079D01*
X139118150Y-101608366D01*
X139271840Y-101468260D01*
X139398658Y-101300326D01*
X139492459Y-101111948D01*
X139550048Y-100909543D01*
X139569465Y-100700001D01*
X139550048Y-100490459D01*
X139492459Y-100288054D01*
X139398658Y-100099676D01*
X139271840Y-99931742D01*
X139135738Y-99807669D01*
X139118152Y-99791637D01*
X139081870Y-99731926D01*
X139083631Y-99662079D01*
X139118149Y-99608365D01*
X139271840Y-99468259D01*
X139398658Y-99300325D01*
X139492459Y-99111947D01*
X139550048Y-98909542D01*
X139569465Y-98700000D01*
X139550048Y-98490458D01*
X139492459Y-98288053D01*
X139398658Y-98099675D01*
X139271840Y-97931741D01*
X139233004Y-97896337D01*
X139118152Y-97791636D01*
X139081870Y-97731925D01*
X139083631Y-97662078D01*
X139118149Y-97608364D01*
X139271840Y-97468258D01*
X139398658Y-97300324D01*
X139492459Y-97111946D01*
X139550048Y-96909541D01*
X139569465Y-96699999D01*
X139550048Y-96490457D01*
X139492459Y-96288052D01*
X139398658Y-96099674D01*
X139271840Y-95931740D01*
X139271837Y-95931737D01*
X139118153Y-95791636D01*
X139081871Y-95731925D01*
X139083632Y-95662078D01*
X139118150Y-95608365D01*
X139271840Y-95468259D01*
X139398658Y-95300325D01*
X139492459Y-95111947D01*
X139550048Y-94909542D01*
X139569465Y-94700000D01*
X139550048Y-94490458D01*
X139492459Y-94288053D01*
X139398658Y-94099675D01*
X139271840Y-93931741D01*
X139116323Y-93789969D01*
X139116321Y-93789967D01*
X138937407Y-93679188D01*
X138937401Y-93679185D01*
X138782748Y-93619273D01*
X138741176Y-93603168D01*
X138534320Y-93564500D01*
X138534318Y-93564500D01*
X138462492Y-93564500D01*
X138395453Y-93544815D01*
X138374811Y-93528181D01*
X135334761Y-90488131D01*
X135303782Y-90436446D01*
X135300870Y-90426847D01*
X135300868Y-90426844D01*
X135300868Y-90426842D01*
X135210765Y-90258271D01*
X135210761Y-90258264D01*
X135089496Y-90110503D01*
X134941735Y-89989238D01*
X134941728Y-89989234D01*
X134773154Y-89899130D01*
X134590234Y-89843641D01*
X134400000Y-89824905D01*
X134209765Y-89843641D01*
X134026845Y-89899130D01*
X133858271Y-89989234D01*
X133858264Y-89989238D01*
X133710503Y-90110503D01*
X133589238Y-90258264D01*
X133589234Y-90258271D01*
X133499130Y-90426845D01*
X133443641Y-90609765D01*
X133424905Y-90800000D01*
X133443641Y-90990234D01*
X133499130Y-91173154D01*
X133589234Y-91341728D01*
X133589238Y-91341735D01*
X133710503Y-91489496D01*
X133858264Y-91610761D01*
X133858271Y-91610765D01*
X134026842Y-91700868D01*
X134026844Y-91700868D01*
X134026847Y-91700870D01*
X134036446Y-91703782D01*
X134088131Y-91734761D01*
X135879486Y-93526116D01*
X135912971Y-93587439D01*
X135907987Y-93657131D01*
X135866115Y-93713064D01*
X135857082Y-93719224D01*
X135822987Y-93740334D01*
X135822986Y-93740335D01*
X136401652Y-94319000D01*
X136378939Y-94319000D01*
X136282038Y-94344964D01*
X136195159Y-94395124D01*
X136124223Y-94466060D01*
X136074063Y-94552939D01*
X136048099Y-94649840D01*
X136048099Y-94672553D01*
X135466645Y-94091099D01*
X135466644Y-94091099D01*
X135459969Y-94099939D01*
X135366210Y-94288230D01*
X135308644Y-94490555D01*
X135289237Y-94699999D01*
X135289237Y-94700000D01*
X135308644Y-94909444D01*
X135366210Y-95111769D01*
X135459970Y-95300062D01*
X135466644Y-95308899D01*
X136048099Y-94727446D01*
X136048099Y-94750160D01*
X136074063Y-94847061D01*
X136124223Y-94933940D01*
X136195159Y-95004876D01*
X136282038Y-95055036D01*
X136378939Y-95081000D01*
X136401652Y-95081000D01*
X135821759Y-95660890D01*
X135810749Y-95724991D01*
X135764683Y-95775845D01*
X135741879Y-95789964D01*
X135741875Y-95789968D01*
X135586360Y-95931738D01*
X135459541Y-96099673D01*
X135365741Y-96288048D01*
X135308150Y-96490461D01*
X135288734Y-96699998D01*
X135288734Y-96699999D01*
X135308150Y-96909536D01*
X135308150Y-96909538D01*
X135308151Y-96909541D01*
X135358386Y-97086098D01*
X135365741Y-97111949D01*
X135404014Y-97188811D01*
X135459541Y-97300324D01*
X135586357Y-97468256D01*
X135586360Y-97468259D01*
X135740046Y-97608362D01*
X135776328Y-97668073D01*
X135774567Y-97737920D01*
X135740046Y-97791636D01*
X135586360Y-97931738D01*
X135459541Y-98099674D01*
X135365741Y-98288049D01*
X135308150Y-98490462D01*
X135288734Y-98699999D01*
X135288734Y-98700000D01*
X135308150Y-98909537D01*
X135308150Y-98909539D01*
X135308151Y-98909542D01*
X135365740Y-99111947D01*
X135459541Y-99300325D01*
X135586357Y-99468257D01*
X135586360Y-99468260D01*
X135740046Y-99608363D01*
X135776328Y-99668074D01*
X135774567Y-99737921D01*
X135740046Y-99791637D01*
X135586360Y-99931739D01*
X135459541Y-100099675D01*
X135365741Y-100288050D01*
X135308150Y-100490463D01*
X135288734Y-100700000D01*
X135288734Y-100700001D01*
X135308150Y-100909538D01*
X135308150Y-100909540D01*
X135308151Y-100909543D01*
X135319923Y-100950916D01*
X135365741Y-101111953D01*
X135365742Y-101111954D01*
X135460106Y-101301464D01*
X135472367Y-101370249D01*
X135445494Y-101434744D01*
X135436787Y-101444416D01*
X135149278Y-101731927D01*
X135067091Y-101814114D01*
X135044205Y-101837000D01*
X134979685Y-101901519D01*
X134979684Y-101901521D01*
X134911019Y-102004285D01*
X134911013Y-102004296D01*
X134903779Y-102021763D01*
X134903779Y-102021764D01*
X134863714Y-102118487D01*
X134863711Y-102118497D01*
X134849430Y-102190295D01*
X134839599Y-102239717D01*
X134839599Y-103160280D01*
X134863711Y-103281500D01*
X134863713Y-103281508D01*
X134894324Y-103355409D01*
X134911014Y-103395703D01*
X134957109Y-103464688D01*
X134957109Y-103464689D01*
X134979689Y-103498483D01*
X134979692Y-103498486D01*
X136632215Y-105151008D01*
X136678930Y-105197723D01*
X136719619Y-105238412D01*
X136822386Y-105307079D01*
X136822399Y-105307086D01*
X136936586Y-105354383D01*
X136936591Y-105354385D01*
X136936595Y-105354385D01*
X136936596Y-105354386D01*
X137057820Y-105378500D01*
X137057823Y-105378500D01*
X140262313Y-105378500D01*
X140329352Y-105398185D01*
X140375107Y-105450989D01*
X140385051Y-105520147D01*
X140356026Y-105583703D01*
X140331204Y-105605602D01*
X140260577Y-105652793D01*
X140260573Y-105652796D01*
X138601143Y-107312225D01*
X138539820Y-107345710D01*
X138502656Y-107348072D01*
X138460004Y-107344341D01*
X138459999Y-107344341D01*
X138224596Y-107364936D01*
X138224586Y-107364938D01*
X137996344Y-107426094D01*
X137996335Y-107426098D01*
X137782171Y-107525964D01*
X137782169Y-107525965D01*
X137588597Y-107661505D01*
X137421505Y-107828597D01*
X137291575Y-108014158D01*
X137236998Y-108057783D01*
X137167500Y-108064977D01*
X137105145Y-108033454D01*
X137088425Y-108014158D01*
X136958494Y-107828597D01*
X136791402Y-107661506D01*
X136791395Y-107661501D01*
X136597834Y-107525967D01*
X136597830Y-107525965D01*
X136489835Y-107475606D01*
X136383663Y-107426097D01*
X136383659Y-107426096D01*
X136383655Y-107426094D01*
X136155413Y-107364938D01*
X136155403Y-107364936D01*
X135920001Y-107344341D01*
X135919999Y-107344341D01*
X135684596Y-107364936D01*
X135684586Y-107364938D01*
X135456344Y-107426094D01*
X135456335Y-107426098D01*
X135242171Y-107525964D01*
X135242169Y-107525965D01*
X135048597Y-107661505D01*
X134881505Y-107828597D01*
X134751269Y-108014595D01*
X134696692Y-108058220D01*
X134627194Y-108065414D01*
X134564839Y-108033891D01*
X134548119Y-108014595D01*
X134494925Y-107938626D01*
X134494925Y-107938625D01*
X133862962Y-108570589D01*
X133845925Y-108507007D01*
X133780099Y-108392993D01*
X133687007Y-108299901D01*
X133572993Y-108234075D01*
X133509410Y-108217037D01*
X134141373Y-107585073D01*
X134141373Y-107585072D01*
X134057583Y-107526402D01*
X134057579Y-107526400D01*
X133843492Y-107426570D01*
X133843483Y-107426566D01*
X133615326Y-107365432D01*
X133615315Y-107365430D01*
X133380002Y-107344843D01*
X133379998Y-107344843D01*
X133144684Y-107365430D01*
X133144673Y-107365432D01*
X132916516Y-107426566D01*
X132916507Y-107426570D01*
X132702419Y-107526401D01*
X132618625Y-107585072D01*
X133250590Y-108217037D01*
X133187007Y-108234075D01*
X133072993Y-108299901D01*
X132979901Y-108392993D01*
X132914075Y-108507007D01*
X132897037Y-108570590D01*
X132265073Y-107938626D01*
X132211881Y-108014594D01*
X132157304Y-108058219D01*
X132087806Y-108065413D01*
X132025451Y-108033891D01*
X132008730Y-108014594D01*
X131878494Y-107828597D01*
X131711402Y-107661506D01*
X131711395Y-107661501D01*
X131517834Y-107525967D01*
X131517830Y-107525965D01*
X131409835Y-107475606D01*
X131303663Y-107426097D01*
X131303659Y-107426096D01*
X131303655Y-107426094D01*
X131075413Y-107364938D01*
X131075403Y-107364936D01*
X130840001Y-107344341D01*
X130839999Y-107344341D01*
X130604596Y-107364936D01*
X130604586Y-107364938D01*
X130376344Y-107426094D01*
X130376335Y-107426098D01*
X130162171Y-107525964D01*
X130162169Y-107525965D01*
X129968597Y-107661505D01*
X129801505Y-107828597D01*
X129665965Y-108022169D01*
X129665964Y-108022171D01*
X129566098Y-108236335D01*
X129566094Y-108236344D01*
X129504938Y-108464586D01*
X129504936Y-108464596D01*
X129484341Y-108699999D01*
X129484341Y-108700000D01*
X129504936Y-108935403D01*
X129504938Y-108935413D01*
X129566094Y-109163655D01*
X129566096Y-109163659D01*
X129566097Y-109163663D01*
X129645800Y-109334586D01*
X129665965Y-109377830D01*
X129665967Y-109377834D01*
X129724462Y-109461373D01*
X129801505Y-109571401D01*
X129968599Y-109738495D01*
X129968604Y-109738499D01*
X129969968Y-109739643D01*
X129970407Y-109740303D01*
X129972427Y-109742323D01*
X129972021Y-109742728D01*
X130008669Y-109797815D01*
X130009776Y-109867676D01*
X129972937Y-109927046D01*
X129929267Y-109952336D01*
X129920669Y-109955184D01*
X129920663Y-109955187D01*
X129771342Y-110047289D01*
X129647289Y-110171342D01*
X129555187Y-110320663D01*
X129555185Y-110320668D01*
X129531642Y-110391718D01*
X129500001Y-110487203D01*
X129500001Y-110487204D01*
X129500000Y-110487204D01*
X129489500Y-110589983D01*
X129489500Y-111890001D01*
X129489501Y-111890018D01*
X129500000Y-111992796D01*
X129500001Y-111992799D01*
X129539303Y-112111402D01*
X129555186Y-112159334D01*
X129647288Y-112308656D01*
X129771344Y-112432712D01*
X129920666Y-112524814D01*
X130087203Y-112579999D01*
X130189991Y-112590500D01*
X131490008Y-112590499D01*
X131592797Y-112579999D01*
X131759334Y-112524814D01*
X131908656Y-112432712D01*
X132032712Y-112308656D01*
X132124814Y-112159334D01*
X132148794Y-112086965D01*
X132188565Y-112029523D01*
X132253081Y-112002699D01*
X132263861Y-112002585D01*
X132897037Y-111369409D01*
X132914075Y-111432993D01*
X132979901Y-111547007D01*
X133072993Y-111640099D01*
X133187007Y-111705925D01*
X133250590Y-111722962D01*
X132618625Y-112354925D01*
X132702421Y-112413599D01*
X132916507Y-112513429D01*
X132916516Y-112513433D01*
X133144673Y-112574567D01*
X133144684Y-112574569D01*
X133379998Y-112595157D01*
X133380002Y-112595157D01*
X133615315Y-112574569D01*
X133615326Y-112574567D01*
X133843483Y-112513433D01*
X133843492Y-112513429D01*
X134057578Y-112413600D01*
X134057582Y-112413598D01*
X134141373Y-112354926D01*
X134141373Y-112354925D01*
X133509409Y-111722962D01*
X133572993Y-111705925D01*
X133687007Y-111640099D01*
X133780099Y-111547007D01*
X133845925Y-111432993D01*
X133862962Y-111369410D01*
X134494925Y-112001373D01*
X134548119Y-111925405D01*
X134602696Y-111881781D01*
X134672195Y-111874588D01*
X134734549Y-111906110D01*
X134751269Y-111925405D01*
X134881505Y-112111401D01*
X135048599Y-112278495D01*
X135091675Y-112308657D01*
X135242165Y-112414032D01*
X135242167Y-112414033D01*
X135242170Y-112414035D01*
X135456337Y-112513903D01*
X135684592Y-112575063D01*
X135861034Y-112590500D01*
X135919999Y-112595659D01*
X135920000Y-112595659D01*
X135920001Y-112595659D01*
X135978966Y-112590500D01*
X136155408Y-112575063D01*
X136383663Y-112513903D01*
X136597830Y-112414035D01*
X136791401Y-112278495D01*
X136958495Y-112111401D01*
X137088425Y-111925842D01*
X137143002Y-111882217D01*
X137212500Y-111875023D01*
X137274855Y-111906546D01*
X137291575Y-111925842D01*
X137421500Y-112111395D01*
X137421505Y-112111401D01*
X137588599Y-112278495D01*
X137631675Y-112308657D01*
X137782165Y-112414032D01*
X137782167Y-112414033D01*
X137782170Y-112414035D01*
X137996337Y-112513903D01*
X138224592Y-112575063D01*
X138401034Y-112590500D01*
X138459999Y-112595659D01*
X138460000Y-112595659D01*
X138460001Y-112595659D01*
X138518966Y-112590500D01*
X138695408Y-112575063D01*
X138923663Y-112513903D01*
X139137830Y-112414035D01*
X139331401Y-112278495D01*
X139498495Y-112111401D01*
X139628425Y-111925842D01*
X139683002Y-111882217D01*
X139752500Y-111875023D01*
X139814855Y-111906546D01*
X139831575Y-111925842D01*
X139961500Y-112111395D01*
X139961505Y-112111401D01*
X140128599Y-112278495D01*
X140171675Y-112308657D01*
X140322165Y-112414032D01*
X140322167Y-112414033D01*
X140322170Y-112414035D01*
X140536337Y-112513903D01*
X140764592Y-112575063D01*
X140941034Y-112590500D01*
X140999999Y-112595659D01*
X141000000Y-112595659D01*
X141000001Y-112595659D01*
X141058966Y-112590500D01*
X141235408Y-112575063D01*
X141463663Y-112513903D01*
X141677830Y-112414035D01*
X141871401Y-112278495D01*
X142038495Y-112111401D01*
X142174035Y-111917830D01*
X142273903Y-111703663D01*
X142335063Y-111475408D01*
X142355659Y-111240000D01*
X142335063Y-111004592D01*
X142273903Y-110776337D01*
X142174035Y-110562171D01*
X142172421Y-110559865D01*
X142038494Y-110368597D01*
X141871402Y-110201506D01*
X141871396Y-110201501D01*
X141685842Y-110071575D01*
X141642217Y-110016998D01*
X141635023Y-109947500D01*
X141666546Y-109885145D01*
X141685842Y-109868425D01*
X141762248Y-109814925D01*
X141871401Y-109738495D01*
X142038495Y-109571401D01*
X142174035Y-109377830D01*
X142263182Y-109186654D01*
X151975001Y-109186654D01*
X151985319Y-109287652D01*
X152039546Y-109451300D01*
X152039551Y-109451311D01*
X152130052Y-109598034D01*
X152130055Y-109598038D01*
X152251961Y-109719944D01*
X152251965Y-109719947D01*
X152398688Y-109810448D01*
X152398699Y-109810453D01*
X152562347Y-109864680D01*
X152663351Y-109874999D01*
X152762500Y-109874998D01*
X152762500Y-109150000D01*
X151975001Y-109150000D01*
X151975001Y-109186654D01*
X142263182Y-109186654D01*
X142273903Y-109163663D01*
X142335063Y-108935408D01*
X142355659Y-108700000D01*
X142353585Y-108676300D01*
X142342639Y-108551185D01*
X142335063Y-108464592D01*
X142320878Y-108411654D01*
X144862501Y-108411654D01*
X144872819Y-108512652D01*
X144927046Y-108676300D01*
X144927051Y-108676311D01*
X145017552Y-108823034D01*
X145017555Y-108823038D01*
X145139461Y-108944944D01*
X145139465Y-108944947D01*
X145286188Y-109035448D01*
X145286199Y-109035453D01*
X145449847Y-109089680D01*
X145550852Y-109099999D01*
X145587500Y-109099999D01*
X146087500Y-109099999D01*
X146124140Y-109099999D01*
X146124154Y-109099998D01*
X146225152Y-109089680D01*
X146388800Y-109035453D01*
X146388811Y-109035448D01*
X146535534Y-108944947D01*
X146535538Y-108944944D01*
X146549819Y-108930664D01*
X146611142Y-108897179D01*
X146680834Y-108902163D01*
X146725181Y-108930664D01*
X146739461Y-108944944D01*
X146739465Y-108944947D01*
X146886188Y-109035448D01*
X146886199Y-109035453D01*
X147049847Y-109089680D01*
X147150852Y-109099999D01*
X147187500Y-109099999D01*
X147687500Y-109099999D01*
X147724140Y-109099999D01*
X147724154Y-109099998D01*
X147825152Y-109089680D01*
X147988800Y-109035453D01*
X147988811Y-109035448D01*
X148135534Y-108944947D01*
X148135538Y-108944944D01*
X148257444Y-108823038D01*
X148257447Y-108823034D01*
X148347948Y-108676311D01*
X148347953Y-108676300D01*
X148368814Y-108613345D01*
X151975000Y-108613345D01*
X151975000Y-108650000D01*
X152762500Y-108650000D01*
X152762500Y-107924999D01*
X152663360Y-107925000D01*
X152663344Y-107925001D01*
X152562347Y-107935319D01*
X152398699Y-107989546D01*
X152398688Y-107989551D01*
X152251965Y-108080052D01*
X152251961Y-108080055D01*
X152130055Y-108201961D01*
X152130052Y-108201965D01*
X152039551Y-108348688D01*
X152039546Y-108348699D01*
X151985319Y-108512347D01*
X151975000Y-108613345D01*
X148368814Y-108613345D01*
X148402180Y-108512652D01*
X148412499Y-108411654D01*
X148412500Y-108411641D01*
X148412500Y-108312500D01*
X147687500Y-108312500D01*
X147687500Y-109099999D01*
X147187500Y-109099999D01*
X147187500Y-108312500D01*
X146087500Y-108312500D01*
X146087500Y-109099999D01*
X145587500Y-109099999D01*
X145587500Y-108312500D01*
X144862501Y-108312500D01*
X144862501Y-108411654D01*
X142320878Y-108411654D01*
X142273903Y-108236337D01*
X142174035Y-108022171D01*
X142168731Y-108014595D01*
X142038494Y-107828597D01*
X141871402Y-107661506D01*
X141871395Y-107661501D01*
X141677834Y-107525967D01*
X141677830Y-107525965D01*
X141569820Y-107475599D01*
X141526463Y-107455381D01*
X141474025Y-107409210D01*
X141454873Y-107342016D01*
X141475089Y-107275135D01*
X141528254Y-107229800D01*
X141578869Y-107219000D01*
X144846551Y-107219000D01*
X144913590Y-107238685D01*
X144959345Y-107291489D01*
X144969289Y-107360647D01*
X144952089Y-107408097D01*
X144927051Y-107448688D01*
X144927046Y-107448699D01*
X144872819Y-107612347D01*
X144862500Y-107713345D01*
X144862500Y-107812500D01*
X148412499Y-107812500D01*
X148412499Y-107713360D01*
X148412498Y-107713345D01*
X148402180Y-107612347D01*
X148347953Y-107448699D01*
X148347948Y-107448688D01*
X148322911Y-107408097D01*
X148304470Y-107340705D01*
X148325392Y-107274041D01*
X148379034Y-107229271D01*
X148428449Y-107219000D01*
X148968217Y-107219000D01*
X149004212Y-107224339D01*
X149051505Y-107238685D01*
X149109768Y-107256359D01*
X149300000Y-107275095D01*
X149490232Y-107256359D01*
X149673153Y-107200870D01*
X149841734Y-107110762D01*
X149989496Y-106989496D01*
X150110762Y-106841734D01*
X150200870Y-106673153D01*
X150203781Y-106663553D01*
X150234759Y-106611869D01*
X151200359Y-105646268D01*
X151261682Y-105612784D01*
X151331374Y-105617768D01*
X151375721Y-105646269D01*
X151827780Y-106098328D01*
X151905036Y-106175584D01*
X151950564Y-106221112D01*
X152031215Y-106275001D01*
X152094939Y-106317580D01*
X152141924Y-106337041D01*
X152141925Y-106337042D01*
X152188913Y-106356505D01*
X152255362Y-106384030D01*
X152425661Y-106417904D01*
X152425665Y-106417905D01*
X152425666Y-106417905D01*
X152599307Y-106417905D01*
X152963296Y-106417905D01*
X153030335Y-106437590D01*
X153076090Y-106490394D01*
X153087296Y-106541905D01*
X153087296Y-106581975D01*
X153087296Y-106755617D01*
X153087296Y-106755619D01*
X153087295Y-106755619D01*
X153121170Y-106925914D01*
X153121173Y-106925924D01*
X153187618Y-107086338D01*
X153187619Y-107086339D01*
X153187621Y-107086343D01*
X153197602Y-107101280D01*
X153218480Y-107167957D01*
X153218500Y-107170171D01*
X153218500Y-108313179D01*
X153218500Y-108486821D01*
X153218500Y-108486823D01*
X153218499Y-108486823D01*
X153252374Y-108657118D01*
X153252377Y-108657129D01*
X153253060Y-108658776D01*
X153253407Y-108660524D01*
X153254144Y-108662951D01*
X153253904Y-108663023D01*
X153262500Y-108706230D01*
X153262500Y-109874999D01*
X153361640Y-109874999D01*
X153361654Y-109874998D01*
X153462652Y-109864680D01*
X153626300Y-109810453D01*
X153626311Y-109810448D01*
X153773035Y-109719947D01*
X153786960Y-109706021D01*
X153848282Y-109672533D01*
X153917973Y-109677514D01*
X153962327Y-109706017D01*
X153976650Y-109720340D01*
X154123484Y-109810908D01*
X154287247Y-109865174D01*
X154388323Y-109875500D01*
X155086676Y-109875499D01*
X155086684Y-109875498D01*
X155086687Y-109875498D01*
X155155927Y-109868425D01*
X155187753Y-109865174D01*
X155351516Y-109810908D01*
X155448306Y-109751206D01*
X155515696Y-109732767D01*
X155582359Y-109753689D01*
X155601082Y-109769065D01*
X155639461Y-109807444D01*
X155639465Y-109807447D01*
X155786188Y-109897948D01*
X155786199Y-109897953D01*
X155949847Y-109952180D01*
X156050852Y-109962499D01*
X156087500Y-109962499D01*
X156587500Y-109962499D01*
X156624140Y-109962499D01*
X156624154Y-109962498D01*
X156725152Y-109952180D01*
X156888800Y-109897953D01*
X156888811Y-109897948D01*
X157035534Y-109807447D01*
X157035538Y-109807444D01*
X157157444Y-109685538D01*
X157157447Y-109685534D01*
X157247948Y-109538811D01*
X157247953Y-109538800D01*
X157302180Y-109375152D01*
X157312499Y-109274154D01*
X157312500Y-109274141D01*
X157312500Y-109175000D01*
X156587500Y-109175000D01*
X156587500Y-109962499D01*
X156087500Y-109962499D01*
X156087500Y-108799000D01*
X156107185Y-108731961D01*
X156159989Y-108686206D01*
X156211500Y-108675000D01*
X157312499Y-108675000D01*
X157312499Y-108655500D01*
X157332184Y-108588461D01*
X157384988Y-108542706D01*
X157436499Y-108531500D01*
X157635500Y-108531500D01*
X157702539Y-108551185D01*
X157748294Y-108603989D01*
X157758238Y-108673147D01*
X157753208Y-108694496D01*
X157749320Y-108706230D01*
X157747325Y-108712250D01*
X157737000Y-108813315D01*
X157737000Y-109386669D01*
X157737001Y-109386687D01*
X157747325Y-109487752D01*
X157764241Y-109538800D01*
X157801592Y-109651516D01*
X157880692Y-109779758D01*
X157892161Y-109798351D01*
X157902488Y-109808678D01*
X157935973Y-109870001D01*
X157938210Y-109884202D01*
X157943641Y-109939334D01*
X157999130Y-110122254D01*
X158089234Y-110290828D01*
X158089238Y-110290835D01*
X158210503Y-110438596D01*
X158358264Y-110559861D01*
X158358271Y-110559865D01*
X158443488Y-110605414D01*
X158526847Y-110649970D01*
X158709768Y-110705459D01*
X158900000Y-110724195D01*
X159090232Y-110705459D01*
X159273153Y-110649970D01*
X159441734Y-110559862D01*
X159589496Y-110438596D01*
X159710762Y-110290834D01*
X159800870Y-110122253D01*
X159802556Y-110116693D01*
X159840851Y-110058256D01*
X159904662Y-110029797D01*
X159960221Y-110034981D01*
X160049848Y-110064680D01*
X160150851Y-110074999D01*
X160750000Y-110074999D01*
X160849140Y-110074999D01*
X160849154Y-110074998D01*
X160950152Y-110064680D01*
X161113800Y-110010453D01*
X161113811Y-110010448D01*
X161260534Y-109919947D01*
X161260538Y-109919944D01*
X161382444Y-109798038D01*
X161382447Y-109798034D01*
X161472948Y-109651311D01*
X161472953Y-109651300D01*
X161527180Y-109487652D01*
X161537499Y-109386654D01*
X161537500Y-109386641D01*
X161537500Y-109350000D01*
X160750000Y-109350000D01*
X160750000Y-110074999D01*
X160150851Y-110074999D01*
X160250000Y-110074998D01*
X160250000Y-108850000D01*
X160750000Y-108850000D01*
X161537499Y-108850000D01*
X161537499Y-108813360D01*
X161537498Y-108813345D01*
X161527180Y-108712347D01*
X161472953Y-108548699D01*
X161472948Y-108548688D01*
X161382447Y-108401965D01*
X161382444Y-108401961D01*
X161260538Y-108280055D01*
X161260534Y-108280052D01*
X161113811Y-108189551D01*
X161113800Y-108189546D01*
X160950152Y-108135319D01*
X160849154Y-108125000D01*
X160750000Y-108125000D01*
X160750000Y-108850000D01*
X160250000Y-108850000D01*
X160250000Y-108124999D01*
X160150860Y-108125000D01*
X160150844Y-108125001D01*
X160049845Y-108135319D01*
X159969637Y-108161897D01*
X159899808Y-108164298D01*
X159839767Y-108128566D01*
X159808575Y-108066045D01*
X159811558Y-108009596D01*
X159817382Y-107989551D01*
X159855265Y-107859156D01*
X159858000Y-107824405D01*
X159857999Y-107475596D01*
X159857737Y-107472274D01*
X159872094Y-107403899D01*
X159921140Y-107354137D01*
X159989304Y-107338791D01*
X160054943Y-107362733D01*
X160088086Y-107399415D01*
X160142181Y-107490885D01*
X160142188Y-107490894D01*
X160251605Y-107600311D01*
X160251614Y-107600317D01*
X160384815Y-107679092D01*
X160384818Y-107679093D01*
X160533415Y-107722265D01*
X160533426Y-107722267D01*
X160568146Y-107724999D01*
X161042499Y-107724999D01*
X161492500Y-107724999D01*
X161966842Y-107724999D01*
X161966863Y-107724998D01*
X162001578Y-107722266D01*
X162150181Y-107679093D01*
X162150184Y-107679092D01*
X162283385Y-107600317D01*
X162283394Y-107600311D01*
X162392811Y-107490894D01*
X162392817Y-107490885D01*
X162471592Y-107357684D01*
X162471593Y-107357681D01*
X162510141Y-107225001D01*
X162510140Y-107225000D01*
X161492500Y-107225000D01*
X161492500Y-107724999D01*
X161042499Y-107724999D01*
X161042500Y-107724998D01*
X161042500Y-107225000D01*
X160024858Y-107225000D01*
X159995040Y-107264713D01*
X159939046Y-107306504D01*
X159869347Y-107311388D01*
X159808073Y-107277815D01*
X159789152Y-107253387D01*
X159733215Y-107158802D01*
X159733210Y-107158796D01*
X159662095Y-107087681D01*
X159628610Y-107026358D01*
X159633594Y-106956666D01*
X159662095Y-106912319D01*
X159733210Y-106841203D01*
X159733215Y-106841198D01*
X159789151Y-106746614D01*
X159840216Y-106698935D01*
X159908957Y-106686431D01*
X159973547Y-106713075D01*
X159995040Y-106735286D01*
X160024859Y-106775000D01*
X161042500Y-106775000D01*
X161492500Y-106775000D01*
X162510140Y-106775000D01*
X162510141Y-106774998D01*
X162471593Y-106642318D01*
X162471592Y-106642315D01*
X162392817Y-106509114D01*
X162392811Y-106509105D01*
X162283394Y-106399688D01*
X162283385Y-106399682D01*
X162150184Y-106320907D01*
X162150181Y-106320906D01*
X162001584Y-106277734D01*
X162001573Y-106277732D01*
X161966859Y-106275000D01*
X161492500Y-106275000D01*
X161492500Y-106775000D01*
X161042500Y-106775000D01*
X161042500Y-106275000D01*
X160568158Y-106275000D01*
X160568136Y-106275001D01*
X160533421Y-106277733D01*
X160384818Y-106320906D01*
X160384815Y-106320907D01*
X160251614Y-106399682D01*
X160251605Y-106399688D01*
X160142188Y-106509105D01*
X160142181Y-106509114D01*
X160088088Y-106600582D01*
X160037019Y-106648266D01*
X159968277Y-106660769D01*
X159903688Y-106634124D01*
X159863758Y-106576788D01*
X159857738Y-106527731D01*
X159858000Y-106524405D01*
X159857999Y-106175596D01*
X159855265Y-106140844D01*
X159812055Y-105992113D01*
X159733215Y-105858802D01*
X159733213Y-105858800D01*
X159733210Y-105858796D01*
X159623703Y-105749289D01*
X159623694Y-105749282D01*
X159542611Y-105701330D01*
X159490387Y-105670445D01*
X159341656Y-105627235D01*
X159341653Y-105627234D01*
X159341651Y-105627234D01*
X159306910Y-105624500D01*
X159306905Y-105624500D01*
X158800533Y-105624500D01*
X158733494Y-105604815D01*
X158731693Y-105603636D01*
X158701861Y-105583703D01*
X158679735Y-105568918D01*
X158676869Y-105567387D01*
X158675648Y-105566188D01*
X158674668Y-105565533D01*
X158674792Y-105565347D01*
X158627023Y-105518426D01*
X158611560Y-105450289D01*
X158635389Y-105384609D01*
X158647640Y-105370342D01*
X158657445Y-105360536D01*
X158657447Y-105360534D01*
X158747948Y-105213811D01*
X158747953Y-105213800D01*
X158802180Y-105050152D01*
X158812499Y-104949154D01*
X158812500Y-104949141D01*
X158812500Y-104850000D01*
X156111500Y-104850000D01*
X156044461Y-104830315D01*
X155998706Y-104777511D01*
X155987500Y-104726000D01*
X155987500Y-104474000D01*
X156007185Y-104406961D01*
X156059989Y-104361206D01*
X156111500Y-104350000D01*
X158812499Y-104350000D01*
X158812499Y-104250860D01*
X158812498Y-104250845D01*
X158802180Y-104149847D01*
X158747953Y-103986199D01*
X158747948Y-103986188D01*
X158657447Y-103839465D01*
X158657444Y-103839461D01*
X158643517Y-103825534D01*
X158610032Y-103764211D01*
X158615016Y-103694519D01*
X158643517Y-103650172D01*
X158657840Y-103635850D01*
X158748408Y-103489016D01*
X158802674Y-103325253D01*
X158813000Y-103224177D01*
X158812999Y-102525824D01*
X158811961Y-102515666D01*
X158802674Y-102424747D01*
X158778028Y-102350372D01*
X158748408Y-102260984D01*
X158657840Y-102114150D01*
X158535850Y-101992160D01*
X158389016Y-101901592D01*
X158225253Y-101847326D01*
X158225251Y-101847325D01*
X158124178Y-101837000D01*
X157550830Y-101837000D01*
X157550812Y-101837001D01*
X157449747Y-101847325D01*
X157285984Y-101901592D01*
X157285981Y-101901593D01*
X157166908Y-101975039D01*
X157101811Y-101993500D01*
X156973189Y-101993500D01*
X156908092Y-101975039D01*
X156789018Y-101901593D01*
X156789013Y-101901591D01*
X156760169Y-101892033D01*
X156625253Y-101847326D01*
X156625251Y-101847325D01*
X156524178Y-101837000D01*
X155950830Y-101837000D01*
X155950812Y-101837001D01*
X155849747Y-101847325D01*
X155685984Y-101901592D01*
X155685981Y-101901593D01*
X155566908Y-101975039D01*
X155501811Y-101993500D01*
X154513177Y-101993500D01*
X154342881Y-102027374D01*
X154342871Y-102027377D01*
X154182456Y-102093822D01*
X154038072Y-102190296D01*
X153746189Y-102482181D01*
X153684866Y-102515666D01*
X153658508Y-102518500D01*
X153440452Y-102518500D01*
X153381997Y-102503857D01*
X153373153Y-102499130D01*
X153190234Y-102443641D01*
X153000000Y-102424905D01*
X152809765Y-102443641D01*
X152626846Y-102499130D01*
X152618003Y-102503857D01*
X152559548Y-102518500D01*
X151886454Y-102518500D01*
X151819415Y-102498815D01*
X151798773Y-102482181D01*
X151506886Y-102190294D01*
X150380989Y-101064396D01*
X150380988Y-101064395D01*
X150236608Y-100967924D01*
X150195546Y-100950916D01*
X150141143Y-100907074D01*
X150119079Y-100840780D01*
X150119000Y-100836355D01*
X150119000Y-98996860D01*
X150137463Y-98931761D01*
X150148404Y-98914023D01*
X150148404Y-98914021D01*
X150148408Y-98914016D01*
X150202674Y-98750253D01*
X150213000Y-98649177D01*
X150212999Y-97950824D01*
X150211049Y-97931739D01*
X150202674Y-97849747D01*
X150187709Y-97804586D01*
X150148408Y-97685984D01*
X150057840Y-97539150D01*
X150043517Y-97524827D01*
X150010032Y-97463504D01*
X150015016Y-97393812D01*
X150043521Y-97349460D01*
X150057447Y-97335535D01*
X150147948Y-97188811D01*
X150147953Y-97188800D01*
X150202180Y-97025152D01*
X150212499Y-96924154D01*
X150212500Y-96924141D01*
X150212500Y-96825000D01*
X147511500Y-96825000D01*
X147444461Y-96805315D01*
X147398706Y-96752511D01*
X147387500Y-96701000D01*
X147387500Y-96325000D01*
X147887500Y-96325000D01*
X148987500Y-96325000D01*
X149487500Y-96325000D01*
X150212499Y-96325000D01*
X150212499Y-96225860D01*
X150212498Y-96225845D01*
X150202180Y-96124847D01*
X150147953Y-95961199D01*
X150147948Y-95961188D01*
X150057447Y-95814465D01*
X150057444Y-95814461D01*
X149935538Y-95692555D01*
X149935534Y-95692552D01*
X149788811Y-95602051D01*
X149788800Y-95602046D01*
X149625152Y-95547819D01*
X149524154Y-95537500D01*
X149487500Y-95537500D01*
X149487500Y-96325000D01*
X148987500Y-96325000D01*
X148987500Y-95537500D01*
X148950861Y-95537500D01*
X148950843Y-95537501D01*
X148849847Y-95547819D01*
X148686199Y-95602046D01*
X148686188Y-95602051D01*
X148539465Y-95692552D01*
X148539461Y-95692555D01*
X148525181Y-95706836D01*
X148463858Y-95740321D01*
X148394166Y-95735337D01*
X148349819Y-95706836D01*
X148335538Y-95692555D01*
X148335534Y-95692552D01*
X148188811Y-95602051D01*
X148188800Y-95602046D01*
X148025152Y-95547819D01*
X147924154Y-95537500D01*
X147887500Y-95537500D01*
X147887500Y-96325000D01*
X147387500Y-96325000D01*
X147387500Y-95537500D01*
X147380015Y-95530015D01*
X147338461Y-95517814D01*
X147292706Y-95465010D01*
X147281500Y-95413499D01*
X147281500Y-95013178D01*
X147261289Y-94911575D01*
X147254026Y-94875063D01*
X147247624Y-94842876D01*
X147191933Y-94708425D01*
X147181178Y-94682459D01*
X147181174Y-94682452D01*
X147134888Y-94613180D01*
X147101433Y-94563111D01*
X147084707Y-94538078D01*
X147027831Y-94481202D01*
X146961923Y-94415294D01*
X146086628Y-93539999D01*
X155944341Y-93539999D01*
X155944341Y-93540000D01*
X155964936Y-93775403D01*
X155964938Y-93775413D01*
X156026094Y-94003655D01*
X156026096Y-94003659D01*
X156026097Y-94003663D01*
X156074005Y-94106401D01*
X156125965Y-94217830D01*
X156125967Y-94217834D01*
X156214985Y-94344964D01*
X156258888Y-94407664D01*
X156261501Y-94411395D01*
X156261506Y-94411402D01*
X156428597Y-94578493D01*
X156428603Y-94578498D01*
X156614158Y-94708425D01*
X156657783Y-94763002D01*
X156664977Y-94832500D01*
X156633454Y-94894855D01*
X156614158Y-94911575D01*
X156428597Y-95041505D01*
X156261505Y-95208597D01*
X156125965Y-95402169D01*
X156125964Y-95402171D01*
X156026098Y-95616335D01*
X156026094Y-95616344D01*
X155964938Y-95844586D01*
X155964936Y-95844596D01*
X155944341Y-96079999D01*
X155944341Y-96080000D01*
X155964936Y-96315403D01*
X155964938Y-96315413D01*
X156026094Y-96543655D01*
X156026096Y-96543659D01*
X156026097Y-96543663D01*
X156123485Y-96752511D01*
X156125965Y-96757830D01*
X156125967Y-96757834D01*
X156201682Y-96865965D01*
X156261505Y-96951401D01*
X156428599Y-97118495D01*
X156500155Y-97168599D01*
X156622165Y-97254032D01*
X156622167Y-97254033D01*
X156622170Y-97254035D01*
X156836337Y-97353903D01*
X156836343Y-97353904D01*
X156836344Y-97353905D01*
X156867194Y-97362171D01*
X157064592Y-97415063D01*
X157252918Y-97431539D01*
X157299999Y-97435659D01*
X157300000Y-97435659D01*
X157300001Y-97435659D01*
X157339234Y-97432226D01*
X157535408Y-97415063D01*
X157763663Y-97353903D01*
X157977830Y-97254035D01*
X158171401Y-97118495D01*
X158338495Y-96951401D01*
X158474035Y-96757830D01*
X158573903Y-96543663D01*
X158635063Y-96315408D01*
X158655659Y-96080000D01*
X158635063Y-95844592D01*
X158585841Y-95660890D01*
X158573905Y-95616344D01*
X158573904Y-95616343D01*
X158573903Y-95616337D01*
X158474035Y-95402171D01*
X158466248Y-95391049D01*
X158338494Y-95208597D01*
X158171402Y-95041506D01*
X158171396Y-95041501D01*
X157985842Y-94911575D01*
X157942217Y-94856998D01*
X157935023Y-94787500D01*
X157966546Y-94725145D01*
X157985842Y-94708425D01*
X158121864Y-94613181D01*
X158171401Y-94578495D01*
X158338495Y-94411401D01*
X158474035Y-94217830D01*
X158573903Y-94003663D01*
X158635063Y-93775408D01*
X158655659Y-93540000D01*
X158635063Y-93304592D01*
X158573903Y-93076337D01*
X158474035Y-92862171D01*
X158410431Y-92771335D01*
X158338496Y-92668600D01*
X158338495Y-92668599D01*
X158216567Y-92546671D01*
X158183084Y-92485351D01*
X158188068Y-92415659D01*
X158229939Y-92359725D01*
X158260915Y-92342810D01*
X158392331Y-92293796D01*
X158507546Y-92207546D01*
X158593796Y-92092331D01*
X158644091Y-91957483D01*
X158650500Y-91897873D01*
X158650499Y-90102128D01*
X158644091Y-90042517D01*
X158624219Y-89989238D01*
X158593797Y-89907671D01*
X158593793Y-89907664D01*
X158507547Y-89792455D01*
X158507544Y-89792452D01*
X158392335Y-89706206D01*
X158392328Y-89706202D01*
X158257482Y-89655908D01*
X158257483Y-89655908D01*
X158197883Y-89649501D01*
X158197881Y-89649500D01*
X158197873Y-89649500D01*
X158197864Y-89649500D01*
X156402129Y-89649500D01*
X156402123Y-89649501D01*
X156342516Y-89655908D01*
X156207671Y-89706202D01*
X156207664Y-89706206D01*
X156092455Y-89792452D01*
X156092452Y-89792455D01*
X156006206Y-89907664D01*
X156006202Y-89907671D01*
X155955908Y-90042517D01*
X155949501Y-90102116D01*
X155949501Y-90102123D01*
X155949500Y-90102135D01*
X155949500Y-91897870D01*
X155949501Y-91897876D01*
X155955908Y-91957483D01*
X156006202Y-92092328D01*
X156006206Y-92092335D01*
X156092452Y-92207544D01*
X156092455Y-92207547D01*
X156207664Y-92293793D01*
X156207671Y-92293797D01*
X156339081Y-92342810D01*
X156395015Y-92384681D01*
X156419432Y-92450145D01*
X156404580Y-92518418D01*
X156383430Y-92546673D01*
X156261503Y-92668600D01*
X156125965Y-92862169D01*
X156125964Y-92862171D01*
X156026098Y-93076335D01*
X156026094Y-93076344D01*
X155964938Y-93304586D01*
X155964936Y-93304596D01*
X155944341Y-93539999D01*
X146086628Y-93539999D01*
X144675903Y-92129274D01*
X144642419Y-92067952D01*
X144647403Y-91998260D01*
X144689275Y-91942327D01*
X144754739Y-91917910D01*
X144799581Y-91922934D01*
X144863511Y-91942327D01*
X144909768Y-91956359D01*
X145100000Y-91975095D01*
X145290232Y-91956359D01*
X145473153Y-91900870D01*
X145641734Y-91810762D01*
X145789496Y-91689496D01*
X145910762Y-91541734D01*
X145958145Y-91453083D01*
X145964388Y-91442669D01*
X145981175Y-91417547D01*
X145992731Y-91389646D01*
X145997939Y-91378633D01*
X146000870Y-91373153D01*
X146002678Y-91367190D01*
X146006774Y-91355741D01*
X146008576Y-91351391D01*
X146035446Y-91311182D01*
X148328810Y-89017819D01*
X148390133Y-88984334D01*
X148416491Y-88981500D01*
X149153140Y-88981500D01*
X149218235Y-88999960D01*
X149235984Y-89010908D01*
X149399747Y-89065174D01*
X149500823Y-89075500D01*
X150099176Y-89075499D01*
X150099184Y-89075498D01*
X150099187Y-89075498D01*
X150154530Y-89069844D01*
X150200253Y-89065174D01*
X150364016Y-89010908D01*
X150510850Y-88920340D01*
X150624819Y-88806371D01*
X150686142Y-88772886D01*
X150755834Y-88777870D01*
X150800181Y-88806371D01*
X150914150Y-88920340D01*
X151060984Y-89010908D01*
X151224747Y-89065174D01*
X151325823Y-89075500D01*
X151924176Y-89075499D01*
X151924184Y-89075498D01*
X151924187Y-89075498D01*
X151979530Y-89069844D01*
X152025253Y-89065174D01*
X152189016Y-89010908D01*
X152335850Y-88920340D01*
X152457840Y-88798350D01*
X152548408Y-88651516D01*
X152602674Y-88487753D01*
X152613000Y-88386677D01*
X152612999Y-87813324D01*
X152602674Y-87712247D01*
X152548408Y-87548484D01*
X152457840Y-87401650D01*
X152457839Y-87401649D01*
X152457838Y-87401647D01*
X152453362Y-87395987D01*
X152454851Y-87394809D01*
X152426000Y-87341972D01*
X152430984Y-87272280D01*
X152459464Y-87227954D01*
X152461546Y-87225871D01*
X152522859Y-87192373D01*
X152535346Y-87190315D01*
X152579255Y-87185368D01*
X152749522Y-87125789D01*
X152902262Y-87029816D01*
X153029816Y-86902262D01*
X153125789Y-86749522D01*
X153185368Y-86579255D01*
X153190313Y-86535361D01*
X153217378Y-86470951D01*
X153225832Y-86461585D01*
X153527411Y-86160008D01*
X153539663Y-86141671D01*
X153558605Y-86113324D01*
X153558605Y-86113323D01*
X153583745Y-86075698D01*
X153596083Y-86057233D01*
X153619793Y-85999991D01*
X153643386Y-85943034D01*
X153667500Y-85821803D01*
X153667500Y-85698197D01*
X153667500Y-85173826D01*
X153687185Y-85106787D01*
X153720375Y-85072252D01*
X153911401Y-84938495D01*
X154078495Y-84771401D01*
X154214035Y-84577830D01*
X154313903Y-84363663D01*
X154375063Y-84135408D01*
X154395659Y-83900000D01*
X154375063Y-83664592D01*
X154313903Y-83436337D01*
X154214035Y-83222171D01*
X154078495Y-83028599D01*
X154078494Y-83028597D01*
X153911402Y-82861506D01*
X153911396Y-82861501D01*
X153717987Y-82726075D01*
X153674362Y-82671498D01*
X153667168Y-82602000D01*
X153698691Y-82539645D01*
X153758921Y-82504231D01*
X153789110Y-82500500D01*
X174375500Y-82500500D01*
X174442539Y-82520185D01*
X174488294Y-82572989D01*
X174499500Y-82624500D01*
X174499500Y-114675500D01*
X174479815Y-114742539D01*
X174427011Y-114788294D01*
X174375500Y-114799500D01*
X125526377Y-114799500D01*
X125459338Y-114779815D01*
X125413583Y-114727011D01*
X125402378Y-114675128D01*
X125404239Y-114055659D01*
X125408310Y-112699999D01*
X147524341Y-112699999D01*
X147524341Y-112700000D01*
X147544936Y-112935403D01*
X147544938Y-112935413D01*
X147606094Y-113163655D01*
X147606096Y-113163659D01*
X147606097Y-113163663D01*
X147610000Y-113172032D01*
X147705965Y-113377830D01*
X147705967Y-113377834D01*
X147814281Y-113532521D01*
X147841505Y-113571401D01*
X148008599Y-113738495D01*
X148105384Y-113806265D01*
X148202165Y-113874032D01*
X148202167Y-113874033D01*
X148202170Y-113874035D01*
X148416337Y-113973903D01*
X148644592Y-114035063D01*
X148821034Y-114050500D01*
X148879999Y-114055659D01*
X148880000Y-114055659D01*
X148880001Y-114055659D01*
X148938966Y-114050500D01*
X149115408Y-114035063D01*
X149343663Y-113973903D01*
X149557830Y-113874035D01*
X149751401Y-113738495D01*
X149918495Y-113571401D01*
X150048425Y-113385842D01*
X150103002Y-113342217D01*
X150172500Y-113335023D01*
X150234855Y-113366546D01*
X150251575Y-113385842D01*
X150381500Y-113571395D01*
X150381505Y-113571401D01*
X150548599Y-113738495D01*
X150645384Y-113806265D01*
X150742165Y-113874032D01*
X150742167Y-113874033D01*
X150742170Y-113874035D01*
X150956337Y-113973903D01*
X151184592Y-114035063D01*
X151361034Y-114050500D01*
X151419999Y-114055659D01*
X151420000Y-114055659D01*
X151420001Y-114055659D01*
X151478966Y-114050500D01*
X151655408Y-114035063D01*
X151883663Y-113973903D01*
X152097830Y-113874035D01*
X152291401Y-113738495D01*
X152458495Y-113571401D01*
X152588425Y-113385842D01*
X152643002Y-113342217D01*
X152712500Y-113335023D01*
X152774855Y-113366546D01*
X152791575Y-113385842D01*
X152921500Y-113571395D01*
X152921505Y-113571401D01*
X153088599Y-113738495D01*
X153185384Y-113806265D01*
X153282165Y-113874032D01*
X153282167Y-113874033D01*
X153282170Y-113874035D01*
X153496337Y-113973903D01*
X153724592Y-114035063D01*
X153901034Y-114050500D01*
X153959999Y-114055659D01*
X153960000Y-114055659D01*
X153960001Y-114055659D01*
X154018966Y-114050500D01*
X154195408Y-114035063D01*
X154423663Y-113973903D01*
X154637830Y-113874035D01*
X154831401Y-113738495D01*
X154953329Y-113616566D01*
X155014648Y-113583084D01*
X155084340Y-113588068D01*
X155140274Y-113629939D01*
X155157189Y-113660917D01*
X155206202Y-113792328D01*
X155206206Y-113792335D01*
X155292452Y-113907544D01*
X155292455Y-113907547D01*
X155407664Y-113993793D01*
X155407671Y-113993797D01*
X155542517Y-114044091D01*
X155542516Y-114044091D01*
X155549444Y-114044835D01*
X155602127Y-114050500D01*
X157397872Y-114050499D01*
X157457483Y-114044091D01*
X157592331Y-113993796D01*
X157707546Y-113907546D01*
X157793796Y-113792331D01*
X157844091Y-113657483D01*
X157850500Y-113597873D01*
X157850499Y-111802135D01*
X158974500Y-111802135D01*
X158974500Y-113597870D01*
X158974501Y-113597876D01*
X158980908Y-113657483D01*
X159031202Y-113792328D01*
X159031206Y-113792335D01*
X159117452Y-113907544D01*
X159117455Y-113907547D01*
X159232664Y-113993793D01*
X159232671Y-113993797D01*
X159367517Y-114044091D01*
X159367516Y-114044091D01*
X159374444Y-114044835D01*
X159427127Y-114050500D01*
X161222872Y-114050499D01*
X161282483Y-114044091D01*
X161417331Y-113993796D01*
X161532546Y-113907546D01*
X161618796Y-113792331D01*
X161667810Y-113660916D01*
X161709681Y-113604984D01*
X161775145Y-113580566D01*
X161843418Y-113595417D01*
X161871673Y-113616569D01*
X161993599Y-113738495D01*
X162090384Y-113806265D01*
X162187165Y-113874032D01*
X162187167Y-113874033D01*
X162187170Y-113874035D01*
X162401337Y-113973903D01*
X162629592Y-114035063D01*
X162806034Y-114050500D01*
X162864999Y-114055659D01*
X162865000Y-114055659D01*
X162865001Y-114055659D01*
X162923966Y-114050500D01*
X163100408Y-114035063D01*
X163328663Y-113973903D01*
X163542830Y-113874035D01*
X163736401Y-113738495D01*
X163903495Y-113571401D01*
X164039035Y-113377830D01*
X164138903Y-113163663D01*
X164200063Y-112935408D01*
X164220659Y-112700000D01*
X164200063Y-112464592D01*
X164173741Y-112366356D01*
X164175404Y-112296506D01*
X164205833Y-112246584D01*
X165349410Y-111103009D01*
X165418083Y-111000233D01*
X165465385Y-110886035D01*
X165474562Y-110839901D01*
X165489500Y-110764806D01*
X165489500Y-103927759D01*
X165509185Y-103860720D01*
X165561989Y-103814965D01*
X165631147Y-103805021D01*
X165636237Y-103805862D01*
X165794781Y-103835499D01*
X165794783Y-103835499D01*
X166005219Y-103835499D01*
X166005221Y-103835499D01*
X166212077Y-103796831D01*
X166408305Y-103720812D01*
X166587224Y-103610030D01*
X166742741Y-103468258D01*
X166869559Y-103300324D01*
X166963360Y-103111946D01*
X167020949Y-102909541D01*
X167040366Y-102699999D01*
X167020949Y-102490457D01*
X166963360Y-102288052D01*
X166869559Y-102099674D01*
X166742741Y-101931740D01*
X166589051Y-101791634D01*
X166552773Y-101731927D01*
X166554533Y-101662079D01*
X166589051Y-101608366D01*
X166742741Y-101468260D01*
X166869559Y-101300326D01*
X166963360Y-101111948D01*
X167020949Y-100909543D01*
X167040366Y-100700001D01*
X167020949Y-100490459D01*
X166963360Y-100288054D01*
X166869559Y-100099676D01*
X166742741Y-99931742D01*
X166606639Y-99807669D01*
X166589053Y-99791637D01*
X166552771Y-99731926D01*
X166554532Y-99662079D01*
X166589050Y-99608365D01*
X166742741Y-99468259D01*
X166869559Y-99300325D01*
X166963360Y-99111947D01*
X167020949Y-98909542D01*
X167040366Y-98700000D01*
X167021920Y-98500940D01*
X167035335Y-98432372D01*
X167083692Y-98381940D01*
X167145391Y-98365500D01*
X167844219Y-98365500D01*
X167911258Y-98385185D01*
X167931900Y-98401819D01*
X171323626Y-101793545D01*
X171357111Y-101854868D01*
X171359473Y-101892033D01*
X171344341Y-102064997D01*
X171344341Y-102065000D01*
X171364936Y-102300403D01*
X171364938Y-102300413D01*
X171426094Y-102528655D01*
X171426096Y-102528659D01*
X171426097Y-102528663D01*
X171485632Y-102656335D01*
X171525965Y-102742830D01*
X171525967Y-102742834D01*
X171625224Y-102884586D01*
X171661505Y-102936401D01*
X171828599Y-103103495D01*
X171852171Y-103120000D01*
X172022165Y-103239032D01*
X172022167Y-103239033D01*
X172022170Y-103239035D01*
X172236337Y-103338903D01*
X172464592Y-103400063D01*
X172652918Y-103416539D01*
X172699999Y-103420659D01*
X172700000Y-103420659D01*
X172700001Y-103420659D01*
X172739234Y-103417226D01*
X172935408Y-103400063D01*
X173163663Y-103338903D01*
X173377830Y-103239035D01*
X173571401Y-103103495D01*
X173738495Y-102936401D01*
X173874035Y-102742830D01*
X173973903Y-102528663D01*
X174035063Y-102300408D01*
X174055659Y-102065000D01*
X174035063Y-101829592D01*
X173978501Y-101618498D01*
X173973905Y-101601344D01*
X173973904Y-101601343D01*
X173973903Y-101601337D01*
X173874035Y-101387171D01*
X173862186Y-101370249D01*
X173738496Y-101193600D01*
X173738495Y-101193599D01*
X173616567Y-101071671D01*
X173583084Y-101010351D01*
X173588068Y-100940659D01*
X173629939Y-100884725D01*
X173660915Y-100867810D01*
X173792331Y-100818796D01*
X173907546Y-100732546D01*
X173993796Y-100617331D01*
X174044091Y-100482483D01*
X174050500Y-100422873D01*
X174050499Y-98627128D01*
X174044091Y-98567517D01*
X174031892Y-98534811D01*
X173993797Y-98432671D01*
X173993793Y-98432664D01*
X173907547Y-98317455D01*
X173907544Y-98317452D01*
X173792335Y-98231206D01*
X173792328Y-98231202D01*
X173657482Y-98180908D01*
X173657483Y-98180908D01*
X173597883Y-98174501D01*
X173597881Y-98174500D01*
X173597873Y-98174500D01*
X173597864Y-98174500D01*
X171802129Y-98174500D01*
X171802123Y-98174501D01*
X171742516Y-98180908D01*
X171607671Y-98231202D01*
X171607664Y-98231206D01*
X171492455Y-98317452D01*
X171492452Y-98317455D01*
X171406206Y-98432664D01*
X171406202Y-98432671D01*
X171355908Y-98567517D01*
X171352832Y-98596134D01*
X171349501Y-98627123D01*
X171349500Y-98627135D01*
X171349500Y-98773500D01*
X171329815Y-98840539D01*
X171277011Y-98886294D01*
X171225500Y-98897500D01*
X170895833Y-98897500D01*
X170828794Y-98877815D01*
X170808152Y-98861181D01*
X168743565Y-96796593D01*
X168743562Y-96796590D01*
X168697925Y-96766097D01*
X168640785Y-96727917D01*
X168640781Y-96727915D01*
X168640779Y-96727914D01*
X168640780Y-96727914D01*
X168591606Y-96707546D01*
X168526587Y-96680614D01*
X168526579Y-96680612D01*
X168405359Y-96656500D01*
X168405355Y-96656500D01*
X167149376Y-96656500D01*
X167082337Y-96636815D01*
X167036582Y-96584011D01*
X167025905Y-96543941D01*
X167020949Y-96490461D01*
X167020949Y-96490457D01*
X166963360Y-96288052D01*
X166869559Y-96099674D01*
X166742741Y-95931740D01*
X166742738Y-95931737D01*
X166589054Y-95791636D01*
X166552772Y-95731925D01*
X166554533Y-95662078D01*
X166589051Y-95608365D01*
X166742741Y-95468259D01*
X166811828Y-95376773D01*
X166867937Y-95335137D01*
X166910782Y-95327500D01*
X169888719Y-95327500D01*
X169955758Y-95347185D01*
X169976400Y-95363819D01*
X170787589Y-96175008D01*
X170838426Y-96225845D01*
X170874994Y-96262413D01*
X170874996Y-96262414D01*
X170977756Y-96331076D01*
X170977758Y-96331077D01*
X170977767Y-96331083D01*
X171002772Y-96341440D01*
X171025071Y-96350677D01*
X171067254Y-96368149D01*
X171091966Y-96378386D01*
X171213192Y-96402499D01*
X171213196Y-96402500D01*
X171213197Y-96402500D01*
X171225501Y-96402500D01*
X171292540Y-96422185D01*
X171338295Y-96474989D01*
X171349501Y-96526500D01*
X171349501Y-96672876D01*
X171355908Y-96732483D01*
X171406202Y-96867328D01*
X171406206Y-96867335D01*
X171492452Y-96982544D01*
X171492455Y-96982547D01*
X171607664Y-97068793D01*
X171607671Y-97068797D01*
X171742517Y-97119091D01*
X171742516Y-97119091D01*
X171749444Y-97119835D01*
X171802127Y-97125500D01*
X173597872Y-97125499D01*
X173657483Y-97119091D01*
X173792331Y-97068796D01*
X173907546Y-96982546D01*
X173993796Y-96867331D01*
X174044091Y-96732483D01*
X174050500Y-96672873D01*
X174050499Y-94877128D01*
X174044091Y-94817517D01*
X174041287Y-94810000D01*
X173993797Y-94682671D01*
X173993793Y-94682664D01*
X173907547Y-94567455D01*
X173907544Y-94567452D01*
X173792335Y-94481206D01*
X173792328Y-94481202D01*
X173660917Y-94432189D01*
X173604983Y-94390318D01*
X173580566Y-94324853D01*
X173595418Y-94256580D01*
X173616563Y-94228332D01*
X173738495Y-94106401D01*
X173874035Y-93912830D01*
X173973903Y-93698663D01*
X174035063Y-93470408D01*
X174055659Y-93235000D01*
X174035063Y-92999592D01*
X173973903Y-92771337D01*
X173874035Y-92557171D01*
X173866685Y-92546673D01*
X173738494Y-92363597D01*
X173571402Y-92196506D01*
X173571395Y-92196501D01*
X173377834Y-92060967D01*
X173377830Y-92060965D01*
X173377828Y-92060964D01*
X173163663Y-91961097D01*
X173163659Y-91961096D01*
X173163655Y-91961094D01*
X172935413Y-91899938D01*
X172935403Y-91899936D01*
X172700001Y-91879341D01*
X172699999Y-91879341D01*
X172464596Y-91899936D01*
X172464586Y-91899938D01*
X172236344Y-91961094D01*
X172236335Y-91961098D01*
X172022171Y-92060964D01*
X172022169Y-92060965D01*
X171828597Y-92196505D01*
X171661505Y-92363597D01*
X171525965Y-92557169D01*
X171525964Y-92557171D01*
X171426098Y-92771335D01*
X171426094Y-92771344D01*
X171364938Y-92999586D01*
X171364936Y-92999596D01*
X171344341Y-93234999D01*
X171352836Y-93332102D01*
X171339069Y-93400602D01*
X171316989Y-93430590D01*
X171165398Y-93582182D01*
X171104078Y-93615666D01*
X171077719Y-93618500D01*
X167117756Y-93618500D01*
X167050717Y-93598815D01*
X167030075Y-93582181D01*
X166698488Y-93250593D01*
X166698484Y-93250590D01*
X166698483Y-93250589D01*
X166675152Y-93235000D01*
X166675150Y-93234998D01*
X166595714Y-93181920D01*
X166595701Y-93181913D01*
X166562260Y-93168062D01*
X166481510Y-93134614D01*
X166481502Y-93134612D01*
X166360282Y-93110500D01*
X166360278Y-93110500D01*
X164923803Y-93110500D01*
X164800196Y-93110500D01*
X164800194Y-93110500D01*
X164678970Y-93134613D01*
X164678960Y-93134616D01*
X164564774Y-93181913D01*
X164564756Y-93181923D01*
X164461992Y-93250587D01*
X164461985Y-93250593D01*
X164171798Y-93540781D01*
X164110475Y-93574266D01*
X164061333Y-93574989D01*
X164044151Y-93571777D01*
X164005220Y-93564500D01*
X163794780Y-93564500D01*
X163587924Y-93603168D01*
X163587921Y-93603168D01*
X163587921Y-93603169D01*
X163391698Y-93679185D01*
X163391692Y-93679188D01*
X163212778Y-93789967D01*
X163212776Y-93789969D01*
X163057261Y-93931739D01*
X162930442Y-94099674D01*
X162836642Y-94288049D01*
X162807846Y-94389255D01*
X162781685Y-94481206D01*
X162779051Y-94490462D01*
X162759635Y-94699999D01*
X162759635Y-94700000D01*
X162779051Y-94909537D01*
X162779051Y-94909539D01*
X162779052Y-94909542D01*
X162836641Y-95111947D01*
X162930442Y-95300325D01*
X163057258Y-95468257D01*
X163057261Y-95468260D01*
X163210946Y-95608362D01*
X163247228Y-95668073D01*
X163245467Y-95737920D01*
X163210946Y-95791636D01*
X163057261Y-95931737D01*
X162930442Y-96099673D01*
X162836642Y-96288048D01*
X162779051Y-96490461D01*
X162759635Y-96699998D01*
X162759635Y-96699999D01*
X162779051Y-96909536D01*
X162779051Y-96909538D01*
X162779052Y-96909541D01*
X162829287Y-97086098D01*
X162836642Y-97111949D01*
X162874915Y-97188811D01*
X162930442Y-97300324D01*
X163057258Y-97468256D01*
X163057261Y-97468259D01*
X163210947Y-97608362D01*
X163247229Y-97668073D01*
X163245468Y-97737920D01*
X163210947Y-97791636D01*
X163057261Y-97931738D01*
X162930442Y-98099674D01*
X162836642Y-98288049D01*
X162779051Y-98490462D01*
X162759635Y-98699999D01*
X162759635Y-98700000D01*
X162779051Y-98909537D01*
X162779051Y-98909539D01*
X162779052Y-98909542D01*
X162836641Y-99111947D01*
X162930442Y-99300325D01*
X163057258Y-99468257D01*
X163057261Y-99468260D01*
X163210947Y-99608363D01*
X163247229Y-99668074D01*
X163245468Y-99737921D01*
X163210947Y-99791637D01*
X163057261Y-99931739D01*
X162930442Y-100099675D01*
X162836642Y-100288050D01*
X162779051Y-100490463D01*
X162759635Y-100700000D01*
X162759635Y-100700001D01*
X162779051Y-100909538D01*
X162779051Y-100909540D01*
X162779052Y-100909543D01*
X162825182Y-101071674D01*
X162836642Y-101111951D01*
X162930442Y-101300326D01*
X163057261Y-101468262D01*
X163210945Y-101608363D01*
X163247227Y-101668074D01*
X163245466Y-101737922D01*
X163210945Y-101791637D01*
X163057261Y-101931737D01*
X162930442Y-102099673D01*
X162836642Y-102288048D01*
X162779051Y-102490461D01*
X162759635Y-102699998D01*
X162759635Y-102699999D01*
X162779051Y-102909536D01*
X162779051Y-102909538D01*
X162779052Y-102909541D01*
X162836641Y-103111946D01*
X162836642Y-103111949D01*
X162840651Y-103120000D01*
X162930442Y-103300324D01*
X163005761Y-103400063D01*
X163057261Y-103468259D01*
X163212776Y-103610029D01*
X163212778Y-103610031D01*
X163391692Y-103720810D01*
X163391698Y-103720813D01*
X163433268Y-103736917D01*
X163587924Y-103796831D01*
X163794780Y-103835499D01*
X163794782Y-103835499D01*
X164005217Y-103835499D01*
X164005220Y-103835499D01*
X164087718Y-103820077D01*
X164157229Y-103827108D01*
X164211908Y-103870605D01*
X164234391Y-103936759D01*
X164234500Y-103941966D01*
X164234500Y-110391718D01*
X164214815Y-110458757D01*
X164198181Y-110479399D01*
X163318415Y-111359164D01*
X163257092Y-111392649D01*
X163198641Y-111391258D01*
X163100413Y-111364938D01*
X163100403Y-111364936D01*
X162865001Y-111344341D01*
X162864999Y-111344341D01*
X162629596Y-111364936D01*
X162629586Y-111364938D01*
X162401344Y-111426094D01*
X162401335Y-111426098D01*
X162187171Y-111525964D01*
X162187169Y-111525965D01*
X161993600Y-111661503D01*
X161871673Y-111783430D01*
X161810350Y-111816914D01*
X161740658Y-111811930D01*
X161684725Y-111770058D01*
X161667810Y-111739081D01*
X161618797Y-111607671D01*
X161618793Y-111607664D01*
X161532547Y-111492455D01*
X161532544Y-111492452D01*
X161417335Y-111406206D01*
X161417328Y-111406202D01*
X161282482Y-111355908D01*
X161282483Y-111355908D01*
X161222883Y-111349501D01*
X161222881Y-111349500D01*
X161222873Y-111349500D01*
X161222864Y-111349500D01*
X159427129Y-111349500D01*
X159427123Y-111349501D01*
X159367516Y-111355908D01*
X159232671Y-111406202D01*
X159232664Y-111406206D01*
X159117455Y-111492452D01*
X159117452Y-111492455D01*
X159031206Y-111607664D01*
X159031202Y-111607671D01*
X158980908Y-111742517D01*
X158974501Y-111802116D01*
X158974501Y-111802123D01*
X158974500Y-111802135D01*
X157850499Y-111802135D01*
X157850499Y-111802128D01*
X157844091Y-111742517D01*
X157843152Y-111740000D01*
X157793797Y-111607671D01*
X157793793Y-111607664D01*
X157707547Y-111492455D01*
X157707544Y-111492452D01*
X157592335Y-111406206D01*
X157592328Y-111406202D01*
X157457482Y-111355908D01*
X157457483Y-111355908D01*
X157397883Y-111349501D01*
X157397881Y-111349500D01*
X157397873Y-111349500D01*
X157397864Y-111349500D01*
X155602129Y-111349500D01*
X155602123Y-111349501D01*
X155542516Y-111355908D01*
X155407671Y-111406202D01*
X155407664Y-111406206D01*
X155292455Y-111492452D01*
X155292452Y-111492455D01*
X155206206Y-111607664D01*
X155206203Y-111607669D01*
X155157189Y-111739083D01*
X155115317Y-111795016D01*
X155049853Y-111819433D01*
X154981580Y-111804581D01*
X154953326Y-111783430D01*
X154831402Y-111661506D01*
X154831395Y-111661501D01*
X154637834Y-111525967D01*
X154637830Y-111525965D01*
X154637828Y-111525964D01*
X154423663Y-111426097D01*
X154423659Y-111426096D01*
X154423655Y-111426094D01*
X154195413Y-111364938D01*
X154195403Y-111364936D01*
X153960001Y-111344341D01*
X153959999Y-111344341D01*
X153724596Y-111364936D01*
X153724586Y-111364938D01*
X153496344Y-111426094D01*
X153496335Y-111426098D01*
X153282171Y-111525964D01*
X153282169Y-111525965D01*
X153088597Y-111661505D01*
X152921505Y-111828597D01*
X152791575Y-112014158D01*
X152736998Y-112057783D01*
X152667500Y-112064977D01*
X152605145Y-112033454D01*
X152588425Y-112014158D01*
X152458494Y-111828597D01*
X152291402Y-111661506D01*
X152291395Y-111661501D01*
X152097834Y-111525967D01*
X152097830Y-111525965D01*
X152097828Y-111525964D01*
X151883663Y-111426097D01*
X151883659Y-111426096D01*
X151883655Y-111426094D01*
X151655413Y-111364938D01*
X151655403Y-111364936D01*
X151420001Y-111344341D01*
X151419999Y-111344341D01*
X151184596Y-111364936D01*
X151184586Y-111364938D01*
X150956344Y-111426094D01*
X150956335Y-111426098D01*
X150742171Y-111525964D01*
X150742169Y-111525965D01*
X150548597Y-111661505D01*
X150381505Y-111828597D01*
X150251575Y-112014158D01*
X150196998Y-112057783D01*
X150127500Y-112064977D01*
X150065145Y-112033454D01*
X150048425Y-112014158D01*
X149918494Y-111828597D01*
X149751402Y-111661506D01*
X149751395Y-111661501D01*
X149557834Y-111525967D01*
X149557830Y-111525965D01*
X149557828Y-111525964D01*
X149343663Y-111426097D01*
X149343659Y-111426096D01*
X149343655Y-111426094D01*
X149115413Y-111364938D01*
X149115403Y-111364936D01*
X148880001Y-111344341D01*
X148879999Y-111344341D01*
X148644596Y-111364936D01*
X148644586Y-111364938D01*
X148416344Y-111426094D01*
X148416335Y-111426098D01*
X148202171Y-111525964D01*
X148202169Y-111525965D01*
X148008597Y-111661505D01*
X147841505Y-111828597D01*
X147705965Y-112022169D01*
X147705964Y-112022171D01*
X147606098Y-112236335D01*
X147606094Y-112236344D01*
X147544938Y-112464586D01*
X147544936Y-112464596D01*
X147524341Y-112699999D01*
X125408310Y-112699999D01*
X125451373Y-98359999D01*
X126044341Y-98359999D01*
X126044341Y-98360000D01*
X126064936Y-98595403D01*
X126064938Y-98595413D01*
X126126094Y-98823655D01*
X126126096Y-98823659D01*
X126126097Y-98823663D01*
X126168233Y-98914023D01*
X126225965Y-99037830D01*
X126225967Y-99037834D01*
X126277862Y-99111947D01*
X126361501Y-99231396D01*
X126361506Y-99231402D01*
X126483430Y-99353326D01*
X126516915Y-99414649D01*
X126511931Y-99484341D01*
X126470059Y-99540274D01*
X126439083Y-99557189D01*
X126307669Y-99606203D01*
X126307664Y-99606206D01*
X126192455Y-99692452D01*
X126192452Y-99692455D01*
X126106206Y-99807664D01*
X126106202Y-99807671D01*
X126055908Y-99942517D01*
X126049501Y-100002116D01*
X126049501Y-100002123D01*
X126049500Y-100002135D01*
X126049500Y-101797870D01*
X126049501Y-101797876D01*
X126055908Y-101857483D01*
X126106202Y-101992328D01*
X126106206Y-101992335D01*
X126192452Y-102107544D01*
X126192455Y-102107547D01*
X126307664Y-102193793D01*
X126307671Y-102193797D01*
X126442517Y-102244091D01*
X126442516Y-102244091D01*
X126449444Y-102244835D01*
X126502127Y-102250500D01*
X128297872Y-102250499D01*
X128357483Y-102244091D01*
X128492331Y-102193796D01*
X128607546Y-102107546D01*
X128693796Y-101992331D01*
X128744091Y-101857483D01*
X128750500Y-101797873D01*
X128750499Y-100002128D01*
X128744091Y-99942517D01*
X128740072Y-99931742D01*
X128693797Y-99807671D01*
X128693793Y-99807664D01*
X128607547Y-99692455D01*
X128607544Y-99692452D01*
X128492335Y-99606206D01*
X128492328Y-99606202D01*
X128360917Y-99557189D01*
X128304983Y-99515318D01*
X128280566Y-99449853D01*
X128295418Y-99381580D01*
X128316563Y-99353332D01*
X128438495Y-99231401D01*
X128574035Y-99037830D01*
X128673903Y-98823663D01*
X128735063Y-98595408D01*
X128755659Y-98360000D01*
X128735063Y-98124592D01*
X128673903Y-97896337D01*
X128574035Y-97682171D01*
X128528790Y-97617553D01*
X128438494Y-97488597D01*
X128271402Y-97321506D01*
X128271395Y-97321501D01*
X128077834Y-97185967D01*
X128077830Y-97185965D01*
X128040591Y-97168600D01*
X127863663Y-97086097D01*
X127863659Y-97086096D01*
X127863655Y-97086094D01*
X127635413Y-97024938D01*
X127635403Y-97024936D01*
X127400001Y-97004341D01*
X127399999Y-97004341D01*
X127164596Y-97024936D01*
X127164586Y-97024938D01*
X126936344Y-97086094D01*
X126936335Y-97086098D01*
X126722171Y-97185964D01*
X126722169Y-97185965D01*
X126528597Y-97321505D01*
X126361505Y-97488597D01*
X126225965Y-97682169D01*
X126225964Y-97682171D01*
X126126098Y-97896335D01*
X126126094Y-97896344D01*
X126064938Y-98124586D01*
X126064936Y-98124596D01*
X126044341Y-98359999D01*
X125451373Y-98359999D01*
X125465848Y-93539999D01*
X125488151Y-86113345D01*
X146787500Y-86113345D01*
X146787500Y-86150000D01*
X147525000Y-86150000D01*
X147525000Y-85425000D01*
X147524999Y-85424999D01*
X147475861Y-85425000D01*
X147475843Y-85425001D01*
X147374847Y-85435319D01*
X147211199Y-85489546D01*
X147211188Y-85489551D01*
X147064465Y-85580052D01*
X147064461Y-85580055D01*
X146942555Y-85701961D01*
X146942552Y-85701965D01*
X146852051Y-85848688D01*
X146852046Y-85848699D01*
X146797819Y-86012347D01*
X146787500Y-86113345D01*
X125488151Y-86113345D01*
X125498629Y-82624128D01*
X125518514Y-82557148D01*
X125571455Y-82511551D01*
X125622628Y-82500500D01*
X149188429Y-82500500D01*
X149255468Y-82520185D01*
G37*
%TD.AperFunction*%
%TA.AperFunction,Conductor*%
G36*
X132914075Y-108892993D02*
G01*
X132979901Y-109007007D01*
X133072993Y-109100099D01*
X133187007Y-109165925D01*
X133250590Y-109182962D01*
X132618625Y-109814925D01*
X132695031Y-109868425D01*
X132738655Y-109923002D01*
X132745848Y-109992501D01*
X132714326Y-110054855D01*
X132695029Y-110071576D01*
X132618625Y-110125072D01*
X133250590Y-110757037D01*
X133187007Y-110774075D01*
X133072993Y-110839901D01*
X132979901Y-110932993D01*
X132914075Y-111047007D01*
X132897037Y-111110590D01*
X132260655Y-110474208D01*
X132208806Y-110463788D01*
X132158623Y-110415173D01*
X132148793Y-110393031D01*
X132140697Y-110368599D01*
X132124814Y-110320666D01*
X132032712Y-110171344D01*
X131908656Y-110047288D01*
X131815888Y-109990069D01*
X131759336Y-109955187D01*
X131759331Y-109955185D01*
X131759215Y-109955146D01*
X131750733Y-109952336D01*
X131693290Y-109912564D01*
X131666467Y-109848048D01*
X131678782Y-109779272D01*
X131707767Y-109742517D01*
X131707573Y-109742323D01*
X131709219Y-109740676D01*
X131710040Y-109739636D01*
X131711388Y-109738504D01*
X131711401Y-109738495D01*
X131878495Y-109571401D01*
X132008732Y-109385403D01*
X132063307Y-109341780D01*
X132132805Y-109334586D01*
X132195160Y-109366109D01*
X132211880Y-109385405D01*
X132265073Y-109461373D01*
X132897037Y-108829409D01*
X132914075Y-108892993D01*
G37*
%TD.AperFunction*%
%TA.AperFunction,Conductor*%
G36*
X134494925Y-109461373D02*
G01*
X134548119Y-109385405D01*
X134602696Y-109341781D01*
X134672195Y-109334588D01*
X134734549Y-109366110D01*
X134751269Y-109385405D01*
X134752144Y-109386654D01*
X134881505Y-109571401D01*
X134881506Y-109571402D01*
X135048597Y-109738493D01*
X135048603Y-109738498D01*
X135234158Y-109868425D01*
X135277783Y-109923002D01*
X135284977Y-109992500D01*
X135253454Y-110054855D01*
X135234158Y-110071575D01*
X135048597Y-110201505D01*
X134881505Y-110368597D01*
X134751269Y-110554595D01*
X134696692Y-110598220D01*
X134627194Y-110605414D01*
X134564839Y-110573891D01*
X134548119Y-110554595D01*
X134494925Y-110478626D01*
X134494925Y-110478625D01*
X133862962Y-111110589D01*
X133845925Y-111047007D01*
X133780099Y-110932993D01*
X133687007Y-110839901D01*
X133572993Y-110774075D01*
X133509410Y-110757037D01*
X134141373Y-110125073D01*
X134064969Y-110071576D01*
X134021344Y-110016999D01*
X134014150Y-109947501D01*
X134045672Y-109885146D01*
X134064968Y-109868425D01*
X134141373Y-109814925D01*
X133509409Y-109182962D01*
X133572993Y-109165925D01*
X133687007Y-109100099D01*
X133780099Y-109007007D01*
X133845925Y-108892993D01*
X133862962Y-108829410D01*
X134494925Y-109461373D01*
G37*
%TD.AperFunction*%
%TA.AperFunction,Conductor*%
G36*
X153825617Y-104301185D02*
G01*
X153871372Y-104353989D01*
X153881316Y-104423147D01*
X153875618Y-104446458D01*
X153855640Y-104503546D01*
X153814917Y-104560321D01*
X153774596Y-104581248D01*
X153595642Y-104635534D01*
X153586799Y-104640262D01*
X153528344Y-104654905D01*
X152928977Y-104654905D01*
X152861938Y-104635220D01*
X152841296Y-104618586D01*
X152798917Y-104576207D01*
X152765432Y-104514884D01*
X152770416Y-104445192D01*
X152812288Y-104389259D01*
X152877752Y-104364842D01*
X152898751Y-104365122D01*
X153000000Y-104375095D01*
X153190232Y-104356359D01*
X153373153Y-104300870D01*
X153381997Y-104296143D01*
X153440452Y-104281500D01*
X153758578Y-104281500D01*
X153825617Y-104301185D01*
G37*
%TD.AperFunction*%
%TA.AperFunction,Conductor*%
G36*
X137391551Y-95308899D02*
G01*
X137395271Y-95308641D01*
X137463513Y-95323639D01*
X137502806Y-95357616D01*
X137586358Y-95468257D01*
X137586361Y-95468260D01*
X137740046Y-95608362D01*
X137776328Y-95668073D01*
X137774567Y-95737920D01*
X137740046Y-95791636D01*
X137586361Y-95931738D01*
X137528053Y-96008950D01*
X137471943Y-96050586D01*
X137402231Y-96055277D01*
X137341050Y-96021535D01*
X137330145Y-96008950D01*
X137294077Y-95961188D01*
X137271839Y-95931740D01*
X137116322Y-95789968D01*
X137093513Y-95775845D01*
X137046880Y-95723820D01*
X137036406Y-95660859D01*
X136456547Y-95081000D01*
X136479259Y-95081000D01*
X136576160Y-95055036D01*
X136663039Y-95004876D01*
X136733975Y-94933940D01*
X136784135Y-94847061D01*
X136810099Y-94750160D01*
X136810099Y-94727447D01*
X137391551Y-95308899D01*
G37*
%TD.AperFunction*%
%TD*%
M02*
